{"glyphs":{"0":{"ha":651,"x_min":31,"x_max":621,"o":"m 621 436 q 613 341 621 392 q 590 238 606 290 q 549 140 574 187 q 490 56 524 92 q 412 -3 456 19 q 313 -25 368 -25 q 217 -5 259 -25 q 144 49 176 15 q 91 127 113 83 q 56 219 70 171 q 37 316 43 267 q 31 408 31 365 q 35 503 31 454 q 50 600 39 552 q 78 694 60 648 q 121 781 95 741 q 181 854 146 821 q 262 908 216 886 l 267 900 q 191 803 220 860 q 145 682 162 745 q 122 552 128 618 q 115 429 115 486 q 120 349 115 393 q 135 257 124 304 q 163 166 145 211 q 208 87 181 122 q 272 32 235 53 q 358 11 309 11 q 425 31 396 11 q 473 83 453 51 q 507 156 494 115 q 528 237 520 196 q 539 317 536 279 q 542 383 542 355 q 537 456 542 413 q 523 548 533 500 q 498 645 513 597 q 459 731 482 693 q 406 794 437 770 q 336 818 376 818 q 284 802 306 818 q 249 762 262 786 q 231 709 236 738 q 229 656 226 681 l 222 654 q 219 679 220 667 q 218 703 218 690 q 227 768 218 736 q 253 824 235 800 q 297 863 271 848 q 361 878 324 878 q 451 854 412 878 q 520 794 490 831 q 569 713 549 758 q 599 625 589 668 q 615 531 610 578 q 621 436 621 484 z "},"1":{"ha":437,"x_min":47,"x_max":437,"o":"m 437 79 q 371 38 408 56 q 296 7 335 20 q 216 -11 256 -5 q 138 -17 176 -17 q 108 -14 123 -17 q 82 -5 94 -12 q 64 14 71 2 q 57 43 57 25 q 59 57 57 50 q 65 72 61 65 q 75 83 68 79 q 89 87 81 87 q 98 86 95 87 q 160 75 128 77 q 224 71 192 72 q 201 262 205 165 q 196 453 196 359 q 197 561 196 507 q 203 667 199 614 q 172 637 190 654 q 133 606 153 621 q 92 578 113 590 q 54 561 71 566 l 47 571 q 92 623 70 591 q 134 690 114 654 q 171 761 154 726 q 200 825 188 797 q 212 858 207 840 q 225 890 218 877 q 235 903 229 900 q 252 907 240 907 q 272 903 260 907 q 296 892 285 899 q 316 876 308 885 q 324 857 324 867 l 324 852 q 282 664 298 759 q 257 472 265 569 q 246 275 248 375 q 246 71 243 175 l 260 71 q 302 72 280 71 q 347 75 325 73 q 391 81 370 77 q 432 90 413 85 l 437 79 z "},"2":{"ha":543,"x_min":20,"x_max":516,"o":"m 511 -21 q 399 -2 456 -6 q 287 1 342 1 q 196 -1 242 1 q 105 -14 149 -3 l 96 -14 q 66 0 77 -14 q 55 32 55 14 q 64 61 55 50 q 87 79 73 73 q 117 87 100 85 q 148 89 134 89 l 155 89 q 263 168 213 121 q 349 272 313 215 q 407 393 386 329 q 427 525 427 458 q 422 590 427 555 q 406 659 416 625 q 378 724 395 693 q 337 780 361 755 q 283 818 313 804 q 216 832 254 832 q 162 822 188 832 q 116 793 136 812 q 84 750 96 775 q 72 697 72 726 q 77 657 72 675 q 91 622 82 638 q 112 590 100 605 q 138 559 124 574 q 152 542 146 550 q 157 519 157 533 q 153 498 157 509 q 144 478 150 488 q 129 463 138 469 q 108 457 119 457 q 64 476 81 457 q 38 522 47 495 q 24 578 28 549 q 20 627 20 607 q 29 704 20 667 q 56 774 38 741 q 102 834 75 807 q 166 879 130 861 q 213 896 188 890 q 263 901 237 901 q 330 891 298 901 q 389 862 361 880 q 437 817 416 843 q 473 760 458 791 q 496 687 490 725 q 503 611 503 649 q 481 457 503 532 q 421 315 460 382 q 330 189 383 247 q 213 86 277 131 q 293 75 252 83 q 373 55 334 67 q 449 27 412 43 q 516 -9 485 11 l 511 -21 z "},"3":{"ha":532,"x_min":24,"x_max":505,"o":"m 486 164 q 467 81 486 117 q 416 21 447 45 q 346 -16 385 -3 q 269 -28 307 -28 q 205 -22 238 -28 q 146 1 173 -15 q 101 45 119 18 q 83 113 83 72 q 95 168 83 144 q 124 211 106 193 q 168 242 143 229 q 220 260 193 254 l 224 250 q 170 196 192 231 q 149 117 149 161 q 157 66 149 90 q 182 26 166 43 q 219 -1 197 9 q 268 -10 241 -10 q 328 4 302 -10 q 369 41 353 18 q 394 90 386 63 q 401 142 401 117 q 387 232 401 193 q 347 296 373 270 q 285 338 321 323 q 203 357 248 353 l 203 385 q 281 408 244 391 q 347 452 319 424 q 392 519 375 479 q 408 609 408 558 q 395 691 408 650 q 357 766 382 732 q 298 821 333 800 q 220 842 263 842 q 165 832 191 842 q 119 803 139 821 q 87 759 99 784 q 75 705 75 734 q 80 664 75 682 q 95 629 85 646 q 116 596 104 612 q 142 564 128 581 q 155 543 149 554 q 160 517 160 532 q 146 479 160 496 q 110 463 133 463 q 67 481 83 463 q 40 527 50 500 q 27 583 31 553 q 24 632 24 612 q 40 734 24 684 q 89 824 57 785 q 165 887 120 863 q 267 911 210 911 q 361 889 317 911 q 436 830 404 867 q 486 746 468 793 q 505 649 505 699 q 488 558 505 601 q 443 480 472 516 q 373 418 414 445 q 283 374 332 391 q 357 347 320 365 q 422 303 393 330 q 469 242 451 277 q 486 164 486 207 z "},"4":{"ha":576,"x_min":14,"x_max":542,"o":"m 68 326 q 71 325 68 325 q 129 416 107 367 q 164 523 151 466 q 185 645 178 580 q 201 782 193 709 q 209 806 203 795 q 223 826 214 818 q 243 838 232 834 q 268 837 255 841 q 287 824 281 833 q 295 803 293 815 q 297 778 298 791 q 295 752 296 764 q 275 641 290 699 q 235 527 260 584 q 177 416 211 470 q 100 317 143 362 q 163 304 130 310 q 232 294 197 298 q 301 287 267 290 q 368 283 336 284 q 360 401 363 343 q 357 510 357 458 q 358 563 357 532 q 360 631 358 595 q 368 705 363 667 q 383 776 374 743 q 407 836 393 810 q 443 876 422 863 q 467 889 454 884 q 494 895 481 895 q 509 890 503 895 q 515 876 515 886 q 511 856 515 866 q 481 770 493 816 q 460 677 469 724 q 448 584 452 629 q 440 499 443 538 q 437 430 437 460 q 436 386 436 401 q 436 352 436 367 q 437 326 437 338 q 437 304 437 314 q 437 283 437 294 q 464 287 452 285 q 487 290 476 288 q 509 295 498 292 q 535 302 521 298 l 542 288 q 522 279 534 284 q 496 269 510 274 q 467 258 482 263 q 437 249 452 253 q 440 100 437 173 q 450 -47 442 26 l 437 -52 q 397 83 412 10 q 373 233 382 155 q 279 219 326 222 q 184 215 231 215 q 156 215 173 215 q 119 217 138 215 q 81 222 100 218 q 47 233 62 226 q 23 253 33 241 q 14 282 14 264 q 16 297 14 288 q 25 314 19 307 q 42 326 31 322 q 68 326 52 330 z "},"5":{"ha":578,"x_min":24,"x_max":551,"o":"m 551 267 q 527 155 551 208 q 462 62 503 102 q 368 -2 421 22 q 256 -25 314 -25 q 168 -11 210 -25 q 94 30 125 3 q 43 96 62 57 q 24 184 24 135 q 46 283 24 235 q 104 366 68 331 l 113 357 q 93 300 100 331 q 86 240 86 270 q 102 159 86 201 q 146 83 118 117 q 212 27 174 50 q 292 5 249 5 q 370 29 338 5 q 419 88 401 52 q 446 165 438 123 q 454 244 454 208 q 440 344 454 295 q 398 432 426 393 q 328 494 370 471 q 229 518 286 518 q 165 510 197 518 q 104 489 134 501 l 83 493 l 136 808 q 128 840 128 823 q 130 855 128 847 q 136 869 132 863 q 146 881 140 876 q 160 885 152 885 q 168 884 165 885 q 249 870 207 873 q 331 868 291 868 q 373 869 351 868 q 418 872 395 870 q 462 878 440 874 q 503 888 484 882 l 509 876 q 442 834 478 852 q 366 804 406 816 q 287 786 327 792 q 208 781 246 780 l 199 781 l 128 542 q 201 565 163 556 q 278 574 239 574 q 391 548 340 574 q 477 479 441 522 q 532 381 513 436 q 551 267 551 326 z "},"6":{"ha":597,"x_min":34,"x_max":570,"o":"m 570 301 q 553 187 570 244 q 503 84 536 130 q 421 10 469 39 q 309 -18 372 -18 q 219 -1 259 -18 q 149 44 180 16 q 97 111 119 73 q 61 192 75 149 q 40 279 47 235 q 34 366 34 323 q 45 483 34 423 q 80 598 57 542 q 135 704 102 654 q 210 796 168 755 q 303 867 252 838 q 414 911 355 897 l 417 899 q 299 815 349 867 q 215 698 249 762 q 161 562 180 633 q 134 419 141 490 q 159 483 142 453 q 202 536 176 513 q 259 571 227 558 q 327 585 290 585 q 434 562 389 585 q 510 500 480 539 q 555 410 541 462 q 570 301 570 359 m 474 275 q 472 329 474 299 q 463 388 469 358 q 445 447 456 418 q 417 498 434 476 q 375 534 399 520 q 319 547 351 547 q 259 534 286 547 q 214 498 233 521 q 181 447 195 476 q 159 388 168 418 q 148 326 151 357 q 144 269 144 295 q 148 217 144 245 q 160 160 152 189 q 182 105 169 132 q 214 58 195 79 q 257 26 233 38 q 312 14 281 14 q 365 27 342 14 q 407 62 389 40 q 437 111 425 83 q 458 168 450 138 q 470 225 467 197 q 474 275 474 253 z "},"7":{"ha":436,"x_min":-20,"x_max":470,"o":"m 432 880 l 426 859 q 445 862 434 861 q 465 866 456 864 l 470 854 q 418 829 446 841 q 347 653 385 748 q 276 457 309 559 q 221 250 243 355 q 199 41 199 144 q 200 17 199 28 q 201 -7 201 5 q 197 -24 201 -15 q 182 -33 194 -33 q 168 -29 176 -33 q 154 -20 161 -25 q 141 -8 147 -14 q 131 3 135 -2 q 112 44 117 20 q 107 90 107 68 q 119 213 107 151 q 151 336 131 275 q 199 459 172 398 q 256 581 226 521 q 316 699 286 641 q 376 814 347 758 q 242 785 311 793 q 107 777 174 777 q 70 778 92 777 q 28 785 48 779 q -6 804 8 791 q -20 838 -20 816 q -8 870 -20 856 q 21 884 3 884 q 27 884 24 884 q 34 882 31 884 q 102 868 66 873 q 175 860 138 863 q 247 856 211 857 q 317 854 283 854 q 359 854 339 854 q 402 857 380 854 l 421 884 l 432 880 z "},"8":{"ha":577,"x_min":20,"x_max":557,"o":"m 557 657 q 540 564 557 604 q 494 491 523 523 q 428 432 466 458 q 349 382 391 406 q 399 340 375 362 q 441 293 422 319 q 470 239 459 268 q 481 175 481 210 q 466 99 481 134 q 425 39 451 64 q 363 -1 399 14 q 288 -16 328 -16 q 214 -4 250 -16 q 152 29 179 7 q 110 83 125 51 q 94 157 94 115 q 105 219 94 191 q 134 269 115 246 q 176 309 152 291 q 227 345 200 328 q 152 398 189 370 q 86 459 115 426 q 38 534 56 493 q 20 625 20 574 q 41 732 20 682 q 97 821 61 783 q 181 882 132 859 q 288 904 231 904 q 391 887 342 904 q 477 837 440 869 q 535 760 513 805 q 557 657 557 714 m 471 661 q 457 738 471 700 q 418 806 443 776 q 358 856 393 837 q 283 875 324 875 q 272 875 277 875 q 260 873 266 875 q 140 806 180 859 q 100 671 100 753 q 121 584 100 623 q 176 513 143 545 q 248 454 210 481 q 321 401 287 427 q 433 510 396 448 q 471 661 471 572 m 414 138 q 398 197 414 170 q 359 247 382 224 q 308 289 336 270 q 258 323 281 308 q 190 249 211 290 q 169 150 169 208 q 178 95 169 121 q 205 50 188 69 q 247 19 222 31 q 302 8 272 8 q 352 18 331 8 q 387 46 373 28 q 407 87 400 64 q 414 138 414 111 z "},"9":{"ha":597,"x_min":27,"x_max":564,"o":"m 564 515 q 552 398 564 457 q 518 283 541 339 q 463 177 496 227 q 388 85 430 126 q 294 14 346 43 q 184 -31 243 -16 l 180 -18 q 299 65 249 13 q 384 182 349 118 q 437 319 418 247 q 465 461 457 391 q 438 397 456 427 q 395 345 420 367 q 339 309 370 322 q 271 296 307 296 q 164 318 210 296 q 87 380 118 341 q 42 471 57 419 q 27 579 27 522 q 35 655 27 617 q 58 729 43 694 q 95 796 73 765 q 146 849 117 827 q 211 885 176 872 q 290 899 247 899 q 379 882 340 899 q 450 836 419 865 q 502 770 480 808 q 537 689 524 732 q 557 602 551 646 q 564 515 564 557 m 454 611 q 450 664 454 635 q 437 720 446 692 q 415 775 429 749 q 384 822 402 802 q 340 854 365 842 q 286 867 316 867 q 233 853 256 867 q 191 819 209 840 q 161 770 174 798 q 140 713 148 742 q 128 656 132 684 q 124 606 124 628 q 126 552 124 582 q 135 493 129 523 q 153 434 142 463 q 181 383 164 405 q 222 347 198 361 q 279 334 246 334 q 338 347 313 334 q 384 382 364 360 q 417 434 404 405 q 438 493 430 463 q 450 554 446 524 q 454 611 454 585 z "}," ":{"ha":326,"x_min":0,"x_max":0,"o":""},"D":{"ha":839,"x_min":20,"x_max":798,"o":"m 798 313 q 784 175 798 244 q 742 44 770 106 q 673 -73 714 -19 q 580 -166 633 -127 q 463 -229 528 -206 q 323 -252 398 -252 q 202 -234 256 -252 q 112 -180 149 -216 q 56 -94 75 -145 q 36 25 36 -42 q 38 73 36 49 q 45 119 40 96 l 56 121 l 56 111 q 74 -9 56 50 q 127 -114 92 -68 q 216 -187 163 -159 q 338 -215 269 -215 q 460 -188 407 -215 q 553 -117 513 -161 q 619 -14 592 -72 q 662 107 646 44 q 685 232 678 170 q 692 347 692 294 q 683 463 692 400 q 653 589 673 526 q 602 711 633 652 q 529 815 571 770 q 433 888 487 861 q 313 916 379 916 q 262 907 288 916 q 210 884 235 899 q 161 850 184 869 q 121 807 138 830 q 94 758 104 783 q 84 707 84 732 q 89 673 84 688 q 99 645 94 658 q 110 622 105 633 q 115 599 115 610 q 101 566 115 579 q 69 553 88 553 q 44 559 54 553 q 30 577 35 566 q 22 600 24 587 q 20 625 20 613 q 28 684 20 654 q 50 740 37 713 q 81 792 64 768 q 117 839 99 817 q 218 919 162 890 q 344 949 275 949 q 495 921 429 949 q 613 845 562 893 q 699 734 663 798 q 756 600 734 671 q 788 456 778 530 q 798 313 798 382 m 338 768 q 337 756 338 762 q 333 745 335 750 q 307 686 321 714 q 284 627 292 658 q 240 411 254 510 q 223 222 227 312 q 224 46 220 132 q 234 -129 229 -39 l 223 -134 q 194 -21 205 -79 q 175 98 182 38 q 165 219 168 159 q 162 336 162 279 q 163 401 162 363 q 168 482 164 439 q 178 570 171 526 q 196 654 184 615 q 225 724 208 694 q 268 770 243 755 q 292 782 279 776 q 317 787 304 787 q 338 768 338 787 z "},"E":{"ha":706,"x_min":27,"x_max":740,"o":"m 740 760 q 724 672 740 711 q 681 604 708 634 q 617 553 654 574 q 541 516 581 531 q 457 493 500 501 q 373 481 414 484 l 373 493 q 466 534 418 509 q 552 595 513 560 q 617 674 591 630 q 642 772 642 719 q 610 865 642 831 q 519 900 578 900 q 426 885 472 900 q 338 845 380 871 q 259 783 296 819 q 197 706 223 748 q 155 619 170 665 q 140 526 140 573 q 161 433 140 475 q 216 357 182 390 q 293 301 250 323 q 381 267 336 278 l 381 254 q 335 231 359 245 q 286 196 311 216 q 238 152 261 176 q 198 100 216 127 q 170 44 180 73 q 159 -16 159 14 q 198 -136 159 -95 q 316 -176 237 -176 q 400 -164 360 -176 q 476 -131 441 -153 q 540 -77 511 -109 q 591 -8 569 -46 l 600 -12 q 547 -105 581 -61 q 467 -182 512 -149 q 367 -235 421 -216 q 256 -254 313 -254 q 175 -241 212 -254 q 111 -203 138 -229 q 68 -141 83 -178 q 52 -56 52 -104 q 110 115 52 41 q 281 237 168 189 q 178 256 224 237 q 97 308 131 274 q 45 388 64 341 q 27 492 27 435 q 47 602 27 547 q 103 705 68 656 q 187 797 139 755 q 290 870 235 839 q 405 918 345 901 q 524 936 465 936 q 607 927 568 936 q 676 897 646 918 q 723 842 705 876 q 740 760 740 808 z "},"F":{"ha":717,"x_min":0,"x_max":893,"o":"m 400 718 q 398 708 400 713 q 395 699 397 703 q 380 664 388 681 q 367 629 373 647 q 329 458 342 553 q 313 260 316 363 q 343 258 328 259 q 374 257 358 257 q 441 260 405 257 q 511 267 477 262 q 576 277 546 271 q 627 290 606 283 l 635 282 q 491 224 574 244 q 311 196 408 203 q 317 -25 310 84 q 339 -229 325 -134 l 328 -235 q 294 -138 308 -190 q 269 -32 279 -87 q 252 80 258 23 q 241 193 245 137 q 214 192 228 192 q 186 192 200 192 q 158 193 174 192 q 127 198 142 194 q 104 213 113 203 q 94 240 94 222 q 100 259 94 252 q 114 272 106 267 q 133 280 123 277 q 154 282 144 282 q 164 281 159 282 q 175 279 170 281 q 206 275 191 277 q 237 271 222 273 q 236 322 236 296 q 236 371 236 347 q 237 425 236 394 q 240 490 237 456 q 249 560 243 525 q 265 626 255 595 q 291 682 275 657 q 329 720 307 706 q 354 731 340 726 q 379 737 367 737 q 400 718 400 737 m 893 918 q 778 853 844 880 q 640 807 712 825 q 496 780 568 789 q 363 771 425 771 q 315 773 344 771 q 252 779 286 775 q 183 790 218 783 q 116 807 148 798 q 60 831 85 817 q 24 861 36 844 q 8 887 16 873 q 0 917 0 902 q 21 936 0 936 q 31 935 26 936 q 40 933 35 935 q 89 916 66 925 q 138 900 113 907 q 303 872 220 881 q 471 863 386 863 q 682 878 574 863 q 888 930 791 894 l 893 918 z "},"G":{"ha":806,"x_min":44,"x_max":833,"o":"m 825 175 q 807 176 816 175 q 788 176 798 176 q 728 174 762 176 q 653 166 693 171 q 669 57 669 111 q 648 -56 669 -3 q 591 -149 628 -109 q 504 -212 555 -189 q 391 -235 452 -235 q 279 -216 329 -235 q 191 -163 229 -197 q 124 -85 152 -130 q 79 10 96 -41 q 53 116 61 61 q 44 224 44 171 q 60 380 44 298 q 106 540 76 461 q 182 691 137 619 q 284 817 227 762 q 413 904 342 871 q 567 936 484 936 q 653 925 613 936 q 723 891 693 914 q 770 833 753 869 q 787 749 787 798 q 774 677 787 711 q 740 613 762 643 q 688 560 718 584 q 625 520 659 536 q 556 494 591 503 q 486 486 520 486 l 475 486 l 475 500 q 559 532 519 509 q 628 589 599 555 q 675 665 658 623 q 692 753 692 707 q 657 862 692 821 q 552 903 623 903 q 420 871 479 903 q 317 789 362 840 q 239 670 272 737 q 186 531 207 603 q 156 388 165 459 q 146 256 146 316 q 152 160 146 210 q 171 64 158 111 q 206 -24 184 18 q 259 -97 228 -66 q 333 -147 291 -129 q 429 -165 374 -165 q 507 -151 470 -165 q 573 -110 545 -136 q 617 -48 601 -84 q 634 31 634 -12 q 623 98 634 65 q 591 157 611 130 q 519 145 555 152 q 452 131 484 138 q 392 114 420 123 q 345 97 365 106 q 332 93 339 93 q 320 101 323 93 q 317 117 317 109 q 322 144 317 129 q 334 173 326 159 q 353 198 342 187 q 377 212 364 209 q 415 220 395 218 q 456 224 435 223 q 496 225 476 225 q 535 225 517 225 q 605 223 564 225 q 690 217 646 222 q 772 205 733 213 q 833 184 810 197 l 825 175 z "},"H":{"ha":836,"x_min":0,"x_max":822,"o":"m 306 911 q 304 899 306 905 q 300 888 302 894 q 278 828 290 857 q 257 768 266 799 q 232 643 241 715 q 217 489 222 570 q 210 320 212 407 q 211 151 209 234 q 326 133 266 141 q 443 120 386 125 q 550 112 500 115 q 637 109 601 109 l 664 109 q 646 313 651 212 q 642 504 642 415 q 642 566 642 530 q 646 642 643 602 q 656 724 650 682 q 674 803 663 766 q 703 869 686 840 q 745 914 720 899 q 771 928 757 922 q 800 935 785 935 q 822 913 822 935 q 820 900 822 906 q 817 888 819 894 q 795 829 806 858 q 774 770 783 800 q 749 659 759 721 q 733 527 739 597 q 726 382 728 457 q 724 234 724 308 q 728 91 725 161 q 736 -39 731 21 q 746 -148 741 -100 q 758 -225 752 -195 l 745 -231 q 698 -83 717 -163 q 668 81 680 -4 q 571 61 626 69 q 459 49 516 54 q 350 43 403 45 q 261 41 298 41 l 215 41 q 226 -117 219 -47 q 241 -227 233 -186 l 228 -232 q 186 -102 203 -172 q 156 43 168 -32 q 118 47 136 44 q 82 54 100 50 q 50 70 64 58 q 24 98 35 82 q 6 133 13 115 q 0 170 0 152 q 4 189 0 179 q 21 199 8 199 q 39 195 31 199 q 84 179 59 186 q 140 165 110 172 q 127 340 131 254 q 123 503 123 427 q 124 565 123 529 q 129 641 125 601 q 138 723 132 682 q 157 802 145 765 q 185 868 168 838 q 228 913 203 897 q 254 927 239 920 q 283 935 269 935 q 300 928 294 935 q 306 911 306 922 z "},"I":{"ha":450,"x_min":-52,"x_max":533,"o":"m 311 -212 q 288 -236 311 -236 q 259 -229 273 -236 q 233 -214 245 -221 q 228 -209 230 -212 q 222 -204 225 -207 q 140 -213 179 -210 q 75 -216 102 -216 q 35 -215 56 -216 q -6 -206 13 -213 q -39 -184 -26 -199 q -52 -144 -52 -170 q -40 -109 -52 -125 q -7 -93 -28 -93 q -2 -94 -5 -93 q 3 -94 1 -94 q 92 -110 45 -104 q 186 -121 139 -117 q 178 -61 180 -92 q 174 -1 175 -31 q 173 53 173 28 q 174 94 174 78 q 175 203 174 144 q 179 327 176 262 q 188 460 182 392 q 200 596 193 528 q 217 727 207 663 q 239 848 227 791 q 127 829 182 840 q 28 804 73 818 q 20 803 24 803 q 14 803 17 803 q -5 808 3 803 q -19 820 -14 812 q -27 837 -24 827 q -31 856 -31 846 q -21 890 -31 876 q 5 912 -11 903 q 40 925 20 921 q 81 931 60 929 q 120 933 101 933 q 153 933 138 933 q 201 932 174 933 q 260 928 229 931 q 268 952 264 941 q 276 974 272 963 l 290 968 q 284 926 288 954 q 356 919 319 923 q 426 907 393 914 q 487 892 459 901 q 533 873 515 884 l 526 863 q 492 865 509 865 q 458 865 475 865 q 372 862 418 865 q 277 853 326 859 q 270 751 273 808 q 264 630 267 694 q 260 496 262 566 q 259 357 259 427 q 260 218 259 287 q 266 87 262 150 q 275 -30 269 25 q 289 -126 281 -84 q 325 -127 307 -127 q 361 -127 343 -127 q 433 -126 397 -127 q 505 -117 470 -124 l 512 -127 q 476 -146 498 -138 q 427 -163 454 -155 q 369 -179 400 -172 q 307 -191 338 -186 q 310 -202 309 -197 q 311 -212 311 -207 z "},"J":{"ha":739,"x_min":0,"x_max":739,"o":"m 672 196 q 663 88 672 143 q 635 -19 654 33 q 587 -117 616 -71 q 517 -197 557 -163 q 426 -251 477 -231 q 313 -271 375 -271 q 196 -253 252 -271 q 96 -202 139 -236 q 26 -117 52 -168 q 0 -1 0 -67 q 9 76 0 38 q 35 150 18 115 q 75 216 52 185 q 129 273 99 248 l 142 267 q 105 171 118 220 q 93 71 93 122 q 108 -36 93 16 q 153 -131 123 -89 q 229 -198 183 -172 q 335 -224 274 -224 q 421 -208 385 -224 q 483 -164 458 -192 q 525 -101 509 -137 q 549 -23 541 -64 q 561 60 557 18 q 564 143 564 103 q 554 315 564 227 q 528 493 545 404 q 490 671 512 583 q 444 843 469 759 q 338 807 388 825 q 250 772 288 789 q 240 769 245 770 q 231 768 236 768 q 211 773 220 768 q 196 786 202 779 q 186 804 190 794 q 183 823 183 814 q 189 849 183 838 q 203 869 194 861 q 224 884 212 878 q 248 895 235 890 q 326 914 281 906 q 418 926 371 922 q 412 947 415 937 q 406 968 409 957 l 418 975 q 434 952 426 964 q 450 928 442 941 q 518 932 486 931 q 576 933 551 933 q 615 933 593 933 q 659 930 637 932 q 703 925 682 928 q 739 914 724 921 l 734 903 q 624 889 687 901 q 494 858 561 877 q 569 702 536 783 q 625 536 602 621 q 660 366 648 452 q 672 196 672 280 z "},"K":{"ha":832,"x_min":28,"x_max":1158,"o":"m 337 908 q 335 896 337 902 q 330 884 332 890 q 303 828 317 855 q 279 772 290 801 q 247 670 260 725 q 224 555 234 615 q 208 430 214 494 q 199 298 202 366 q 267 276 236 291 q 326 239 297 261 q 426 323 380 273 q 510 432 472 373 q 579 555 549 491 q 633 682 610 620 q 673 802 656 745 q 699 903 689 859 q 712 932 702 918 q 736 960 722 947 q 766 980 750 972 q 798 987 783 987 q 821 978 814 987 q 827 954 827 969 l 827 945 q 800 812 820 882 q 748 673 779 743 q 676 535 718 603 q 584 408 634 467 q 474 300 533 349 q 349 219 415 251 q 376 195 363 208 q 404 170 389 183 q 522 54 464 113 q 641 -61 580 -5 q 768 -165 702 -117 q 912 -250 835 -214 q 958 -268 932 -259 q 1009 -284 983 -277 q 1062 -295 1036 -291 q 1110 -299 1088 -299 q 1133 -298 1122 -299 q 1155 -294 1143 -297 l 1158 -308 q 1095 -331 1128 -324 q 1027 -337 1062 -337 q 971 -333 1001 -337 q 911 -322 941 -330 q 851 -306 880 -315 q 800 -284 823 -296 q 664 -202 730 -250 q 535 -100 597 -155 q 418 15 473 -45 q 317 138 363 75 q 299 164 308 151 q 280 191 290 178 q 195 173 239 178 q 198 -33 194 68 q 209 -227 202 -134 l 194 -232 q 164 -139 177 -188 q 143 -39 152 -90 q 129 65 134 13 q 119 170 123 118 q 88 176 104 172 q 59 188 72 180 q 37 208 45 196 q 28 237 28 220 q 36 266 28 254 q 57 286 44 277 q 84 298 69 294 q 115 304 100 302 l 115 342 q 115 425 115 375 q 120 533 116 475 q 132 650 123 591 q 156 762 140 710 q 194 854 171 814 q 252 911 218 893 q 280 924 266 918 q 311 930 295 930 q 329 926 321 930 q 337 908 337 921 m 41 233 q 48 213 41 221 q 67 199 56 204 q 93 190 79 193 q 119 186 106 187 q 115 289 116 239 q 88 285 101 288 q 64 276 75 282 q 47 259 54 269 q 41 233 41 249 m 196 189 q 268 210 233 195 q 236 248 253 231 q 198 277 220 265 q 197 233 197 255 q 196 189 196 211 z "},"L":{"ha":625,"x_min":14,"x_max":665,"o":"m 665 -46 q 632 -131 658 -95 q 569 -191 606 -168 q 487 -226 532 -214 q 398 -237 443 -237 q 332 -229 366 -237 q 264 -212 298 -221 q 197 -194 230 -202 q 134 -186 164 -186 q 104 -189 120 -186 q 73 -199 88 -193 q 45 -214 58 -205 q 24 -235 32 -223 l 14 -229 q 28 -177 16 -201 q 59 -136 40 -153 q 101 -108 77 -118 q 154 -98 125 -98 q 167 -98 161 -98 q 180 -99 174 -98 q 133 50 152 -31 q 104 215 115 131 q 89 383 93 300 q 84 539 84 467 q 85 596 84 564 q 90 665 86 629 q 99 738 93 701 q 117 807 106 774 q 146 865 129 840 q 187 905 163 891 q 214 919 200 913 q 243 925 228 925 q 259 921 252 925 q 267 905 267 916 q 265 894 267 899 q 261 884 263 889 q 239 836 250 859 q 220 789 228 813 q 192 661 203 730 q 175 516 180 591 q 169 361 170 441 q 172 202 168 281 q 182 46 176 123 q 199 -101 189 -31 q 257 -112 227 -105 q 316 -124 286 -118 q 378 -136 347 -131 q 441 -140 409 -140 q 503 -135 472 -140 q 562 -119 534 -130 q 614 -88 590 -107 q 654 -41 637 -69 l 665 -46 z "},"M":{"ha":1156,"x_min":102,"x_max":1495,"o":"m 1495 -315 q 1445 -338 1472 -332 q 1391 -344 1418 -344 q 1226 -316 1298 -344 q 1099 -241 1154 -289 q 1006 -127 1044 -193 q 942 13 968 -62 q 903 170 917 88 q 885 334 890 252 q 883 494 880 416 q 892 640 885 572 q 862 581 880 621 q 823 488 844 541 q 779 371 802 434 q 733 243 755 307 q 689 116 710 178 q 651 3 667 54 q 622 -83 634 -47 q 607 -131 610 -119 q 600 -151 604 -139 q 589 -175 595 -163 q 574 -195 583 -186 q 555 -203 566 -203 q 534 -193 543 -203 q 521 -170 526 -183 q 513 -142 516 -156 q 509 -121 510 -129 q 501 -49 505 -92 q 495 47 498 -5 q 492 160 493 100 q 489 281 490 220 q 488 400 488 342 q 487 510 488 459 q 487 602 487 562 q 487 667 487 643 q 451 581 472 633 q 407 464 431 529 q 356 324 382 399 q 305 170 330 249 q 256 9 279 90 q 214 -147 233 -71 q 209 -164 212 -154 q 201 -182 206 -174 q 190 -198 197 -191 q 172 -204 182 -204 q 155 -198 163 -204 q 143 -183 148 -192 q 135 -165 138 -175 q 131 -147 132 -155 q 125 -110 127 -130 q 121 -68 123 -90 q 118 -26 119 -47 q 115 12 117 -5 q 105 196 108 105 q 102 379 102 287 q 105 559 102 470 q 114 741 108 649 q 120 800 116 767 q 136 862 124 833 q 171 911 148 891 q 233 930 193 930 q 249 926 242 930 q 256 911 256 922 l 256 904 q 243 823 250 863 q 231 741 237 783 q 203 470 214 605 q 192 197 192 334 q 194 92 192 144 q 201 -14 196 39 q 284 243 248 132 q 347 439 319 355 q 392 583 374 524 q 424 682 411 642 q 444 746 437 722 q 456 784 452 770 q 463 803 461 797 q 467 814 465 809 q 495 855 477 837 q 541 873 513 873 q 571 864 559 873 q 590 840 583 854 q 599 809 597 826 q 602 778 602 792 q 595 570 600 673 q 587 366 591 467 q 584 165 584 265 q 593 -33 585 66 q 644 118 621 47 q 687 253 667 189 q 727 377 708 317 q 767 495 747 437 q 810 612 788 553 q 860 732 833 670 q 873 756 866 744 q 890 779 881 769 q 912 796 900 789 q 939 803 924 803 q 972 789 960 803 q 991 757 985 776 q 1000 717 998 738 q 1002 682 1002 696 q 998 544 1002 620 q 992 387 994 469 q 994 222 990 306 q 1012 61 997 139 q 1056 -85 1027 -17 q 1135 -203 1085 -153 q 1257 -283 1184 -254 q 1432 -312 1330 -312 q 1462 -310 1448 -312 q 1491 -301 1477 -307 l 1495 -315 z "},"N":{"ha":801,"x_min":102,"x_max":1140,"o":"m 1140 -315 q 1091 -338 1118 -332 q 1036 -344 1064 -344 q 858 -313 935 -344 q 725 -230 781 -283 q 630 -105 668 -177 q 569 48 592 -34 q 534 219 545 131 q 520 395 523 308 q 523 565 518 483 q 534 715 527 647 q 460 595 495 665 q 394 444 425 524 q 338 278 364 363 q 292 112 313 193 q 255 -39 271 31 q 229 -160 239 -110 q 225 -174 227 -165 q 220 -191 224 -183 q 210 -205 216 -199 q 195 -211 204 -211 q 180 -206 187 -211 q 166 -194 172 -201 q 156 -178 160 -186 q 149 -162 151 -170 q 119 -21 129 -96 q 105 133 109 55 q 102 287 102 210 q 102 432 102 363 q 104 584 102 508 q 112 736 106 660 q 118 796 114 763 q 133 858 121 829 q 166 906 144 886 q 226 925 188 925 q 242 921 235 925 q 248 905 248 916 l 248 900 q 232 742 239 819 q 219 587 224 664 q 210 431 213 509 q 207 271 207 353 q 210 110 207 191 q 222 -50 214 30 q 274 175 247 65 q 337 390 302 285 q 418 596 372 496 q 526 793 465 696 q 540 813 532 802 q 559 836 549 825 q 581 854 570 846 q 605 861 593 861 q 628 848 620 861 q 641 816 637 834 q 645 780 644 798 q 646 751 646 762 q 634 608 641 688 q 626 442 628 529 q 628 266 624 355 q 649 93 633 176 q 696 -65 665 9 q 779 -193 728 -138 q 904 -280 830 -248 q 1079 -312 977 -312 q 1108 -310 1093 -312 q 1137 -301 1124 -307 l 1140 -315 z "},"O":{"ha":817,"x_min":37,"x_max":779,"o":"m 779 336 q 769 217 779 281 q 739 87 760 152 q 688 -37 719 23 q 613 -143 656 -97 q 515 -216 570 -189 q 391 -244 460 -244 q 271 -219 323 -244 q 179 -151 218 -193 q 113 -53 140 -109 q 69 63 85 3 q 45 184 52 123 q 37 300 37 245 q 43 419 37 357 q 61 541 48 480 q 96 660 75 602 q 150 768 118 718 q 226 860 182 819 q 328 928 270 901 l 333 918 q 261 842 292 885 q 208 748 231 798 q 170 644 185 699 q 145 534 154 589 q 132 424 136 479 q 127 319 127 370 q 134 216 127 273 q 155 102 140 160 q 195 -9 170 45 q 254 -106 219 -64 q 337 -173 290 -148 q 446 -199 385 -199 q 533 -175 494 -199 q 600 -111 571 -151 q 648 -22 628 -72 q 680 80 667 28 q 697 180 692 132 q 703 265 703 229 q 700 333 703 294 q 689 416 696 372 q 671 507 682 460 q 644 598 661 553 q 607 682 628 642 q 557 751 585 721 q 496 798 530 781 q 420 815 462 815 q 358 798 384 815 q 316 753 332 781 q 293 693 300 726 q 286 629 286 661 q 286 620 286 625 q 288 611 286 615 l 277 610 q 274 640 275 625 q 272 671 272 655 q 283 752 272 713 q 317 823 294 792 q 373 872 339 853 q 454 890 408 890 q 567 863 518 890 q 653 789 616 835 q 713 685 689 744 q 752 565 737 627 q 773 444 767 504 q 779 336 779 385 z "},"P":{"ha":800,"x_min":20,"x_max":780,"o":"m 341 -220 q 320 -239 341 -239 q 294 -234 307 -239 q 272 -222 282 -229 q 235 -189 251 -211 q 208 -137 219 -166 q 189 -74 197 -108 q 176 -4 181 -39 q 169 66 172 31 q 165 130 166 100 q 126 147 146 138 q 90 169 106 157 q 64 194 74 180 q 54 224 54 208 q 59 246 54 236 q 79 256 65 256 q 100 251 90 256 q 121 237 111 245 q 142 219 131 229 q 165 197 153 208 q 170 344 165 267 q 186 499 174 422 q 219 651 199 577 q 272 787 240 725 l 284 783 q 251 548 261 666 q 240 313 240 431 q 242 227 240 269 q 250 142 245 184 q 295 130 270 134 q 351 125 320 125 q 447 140 402 125 q 528 183 491 156 q 593 248 565 211 q 642 329 622 286 q 671 418 661 372 q 682 511 682 465 q 671 605 682 557 q 641 698 661 653 q 592 783 621 743 q 526 851 564 822 q 444 898 489 881 q 347 916 399 916 q 258 900 304 916 q 176 856 213 884 q 115 789 139 828 q 91 703 91 749 q 95 670 91 684 q 105 643 100 655 q 114 620 110 631 q 119 599 119 610 q 105 566 119 579 q 73 553 92 553 q 45 562 56 553 q 30 586 35 572 q 22 616 24 600 q 20 644 20 632 q 48 752 20 704 q 122 839 77 801 q 179 882 151 863 q 239 913 208 901 q 303 932 269 926 q 374 939 336 939 q 537 908 463 939 q 666 824 612 878 q 750 696 720 770 q 780 533 780 622 q 748 362 780 441 q 658 223 715 282 q 522 130 601 163 q 351 96 444 96 q 302 98 327 96 q 254 105 278 101 q 336 -197 277 -48 q 339 -209 338 -203 q 341 -220 341 -214 z "},"Q":{"ha":817,"x_min":37,"x_max":928,"o":"m 779 336 q 773 243 779 293 q 754 142 767 193 q 723 40 742 91 q 677 -55 703 -10 q 617 -138 651 -100 q 543 -201 584 -176 q 669 -263 602 -240 q 804 -286 736 -286 q 921 -243 869 -286 l 928 -256 q 833 -321 885 -295 q 724 -347 782 -347 q 576 -316 640 -347 q 466 -235 512 -286 q 391 -244 429 -244 q 271 -219 323 -244 q 179 -151 218 -193 q 113 -53 140 -109 q 69 63 85 3 q 45 184 52 123 q 37 300 37 245 q 43 419 37 357 q 61 541 48 480 q 96 660 75 602 q 150 768 118 718 q 226 860 182 819 q 328 928 270 901 l 333 918 q 261 842 292 885 q 208 748 231 798 q 170 644 185 699 q 145 534 154 589 q 132 424 136 479 q 127 319 127 370 q 134 218 127 273 q 155 105 140 162 q 193 -6 170 48 q 251 -102 216 -60 q 331 -170 285 -144 q 437 -198 377 -196 q 381 -88 401 -148 q 357 33 361 -28 l 365 37 q 419 -82 378 -26 q 517 -182 460 -138 q 579 -135 552 -166 q 627 -65 607 -104 q 662 18 648 -26 q 686 107 677 63 q 699 193 694 152 q 703 265 703 233 q 700 333 703 294 q 689 416 696 372 q 671 507 682 460 q 644 598 661 553 q 607 682 628 642 q 557 751 585 721 q 496 798 530 781 q 420 815 462 815 q 358 798 384 815 q 316 753 332 781 q 293 693 300 726 q 286 629 286 661 q 286 620 286 625 q 288 611 286 615 l 277 610 q 274 640 275 625 q 272 671 272 655 q 283 752 272 713 q 317 823 294 792 q 373 872 339 853 q 454 890 408 890 q 567 863 518 890 q 653 789 616 835 q 713 685 689 744 q 752 565 737 627 q 773 444 767 504 q 779 336 779 385 z "},"R":{"ha":828,"x_min":20,"x_max":1065,"o":"m 341 768 q 339 756 341 762 q 336 746 338 751 q 311 693 324 719 q 291 637 298 667 q 253 432 266 536 q 237 223 241 328 q 316 192 281 214 q 384 140 351 170 q 501 208 448 168 q 591 302 553 249 q 648 419 628 355 q 669 557 669 484 q 657 640 669 597 q 624 722 645 682 q 573 798 602 762 q 507 859 543 833 q 430 900 471 885 q 345 916 389 916 q 258 900 303 916 q 176 856 213 884 q 115 789 138 828 q 91 703 91 749 q 95 670 91 684 q 105 643 100 655 q 114 620 110 631 q 119 599 119 610 q 105 566 119 579 q 73 553 92 553 q 45 562 56 553 q 30 586 35 572 q 22 616 24 600 q 20 644 20 632 q 49 752 20 704 q 122 839 77 800 q 179 882 151 863 q 239 913 208 900 q 303 932 270 926 q 374 939 336 939 q 479 925 429 939 q 574 886 530 911 q 655 826 618 861 q 719 747 692 791 q 760 653 745 704 q 774 547 774 603 q 745 396 774 465 q 665 272 715 327 q 549 178 615 218 q 409 116 482 138 q 424 102 416 109 q 438 87 431 95 q 519 3 479 47 q 602 -86 559 -42 q 690 -171 645 -130 q 787 -242 736 -211 q 895 -291 838 -273 q 1018 -309 952 -309 q 1040 -308 1029 -309 q 1062 -304 1050 -307 l 1065 -317 q 1002 -340 1036 -333 q 935 -347 969 -347 q 804 -332 863 -347 q 694 -291 745 -317 q 602 -228 644 -264 q 519 -146 559 -191 q 443 -53 480 -102 q 365 50 405 -3 q 348 74 356 62 q 331 97 339 85 q 282 91 307 93 q 235 87 258 88 q 239 -76 235 5 q 248 -235 243 -157 l 235 -239 q 193 -81 208 -167 q 171 91 178 4 q 136 98 153 94 q 105 112 119 103 q 83 133 92 120 q 75 163 75 145 q 83 191 75 179 q 104 211 91 203 q 133 223 117 218 q 164 229 149 227 q 163 266 163 248 q 163 302 163 285 q 164 372 163 330 q 167 460 164 413 q 177 555 170 507 q 196 646 184 604 q 226 722 208 689 q 272 771 245 755 q 294 782 282 777 q 320 787 307 787 q 341 768 341 787 m 98 160 q 104 143 98 151 q 121 130 111 136 q 143 120 131 124 q 170 113 156 116 q 167 159 168 136 q 165 204 166 182 q 141 203 153 204 q 120 197 130 201 q 104 183 111 192 q 98 160 98 175 m 235 107 q 276 110 256 107 q 316 117 296 113 q 280 160 299 140 q 235 191 260 179 q 235 149 235 170 q 235 107 235 128 z "},"S":{"ha":762,"x_min":41,"x_max":783,"o":"m 783 745 q 755 641 783 689 q 684 557 728 593 q 587 502 640 522 q 481 484 533 482 l 470 484 l 470 496 q 554 529 515 505 q 624 586 594 552 q 670 662 653 620 q 688 750 688 704 q 680 808 688 781 q 657 854 673 835 q 617 886 642 874 q 560 897 593 897 q 464 883 513 897 q 370 843 415 869 q 284 782 324 817 q 215 705 245 747 q 169 615 186 663 q 152 518 152 568 q 167 427 152 465 q 209 360 182 389 q 269 311 235 331 q 343 274 304 290 q 424 243 382 257 q 504 212 465 229 q 578 176 543 196 q 638 129 612 156 q 680 63 665 101 q 695 -25 695 26 q 672 -124 695 -81 q 612 -197 650 -168 q 527 -242 575 -227 q 428 -257 479 -257 q 326 -238 373 -257 q 242 -188 279 -220 q 177 -116 205 -157 q 132 -31 149 -75 l 142 -25 q 189 -96 163 -61 q 249 -158 216 -131 q 322 -203 282 -186 q 410 -220 363 -220 q 482 -209 449 -220 q 540 -178 515 -198 q 578 -127 564 -157 q 592 -60 592 -98 q 568 32 592 -4 q 506 93 545 68 q 418 136 467 118 q 316 171 368 153 q 215 212 264 189 q 127 269 165 235 q 64 355 88 304 q 41 481 41 406 q 62 609 41 549 q 120 719 83 669 q 207 809 157 769 q 315 876 257 848 q 436 919 373 904 q 563 933 499 933 q 649 922 608 933 q 719 889 689 911 q 765 830 748 866 q 783 745 783 794 z "},"T":{"ha":630,"x_min":-75,"x_max":766,"o":"m 388 970 q 383 946 385 960 q 378 913 380 931 q 480 903 427 909 q 585 885 534 896 q 682 861 635 875 q 766 829 728 847 l 760 817 q 611 830 686 826 q 463 833 537 833 q 415 832 439 833 q 367 829 391 831 q 356 718 361 779 q 346 589 351 656 q 339 449 342 521 q 334 304 336 376 q 334 162 333 232 q 339 30 335 93 q 351 -86 343 -33 q 370 -179 358 -140 q 373 -192 371 -185 q 376 -204 376 -198 q 370 -221 376 -215 q 353 -228 365 -228 q 324 -220 338 -228 q 298 -204 309 -212 q 267 -161 277 -191 q 251 -96 256 -131 q 245 -28 246 -62 q 245 26 245 5 q 247 140 245 78 q 254 272 250 203 q 265 413 258 340 q 281 558 272 486 q 303 698 291 629 q 330 827 315 766 q 230 818 279 823 q 133 804 180 812 q 42 786 85 795 q -37 764 -1 776 q -55 760 -45 760 q -75 779 -75 760 q -67 807 -75 793 q -52 832 -60 821 q -18 861 -41 848 q 34 883 5 873 q 97 900 64 893 q 161 910 130 906 q 219 917 192 915 q 264 918 247 918 q 307 917 285 918 q 353 915 330 916 q 376 975 364 949 l 388 970 z "},"U":{"ha":834,"x_min":61,"x_max":814,"o":"m 790 825 q 807 821 800 825 q 814 807 814 817 q 809 782 814 795 q 798 755 804 768 q 784 728 791 741 q 772 704 777 715 q 713 493 732 602 q 694 273 694 385 q 701 142 694 209 q 721 8 707 75 q 758 -121 735 -58 q 814 -241 781 -184 l 800 -245 q 689 -91 734 -176 q 620 86 644 -7 q 576 -32 602 26 q 515 -137 551 -90 q 430 -212 479 -183 q 317 -240 382 -240 q 229 -220 267 -240 q 163 -166 191 -200 q 115 -90 134 -133 q 83 -1 96 -47 q 66 91 71 45 q 61 175 61 137 q 76 370 61 272 q 120 563 91 469 q 194 746 150 658 q 297 913 238 835 l 311 905 q 266 808 286 861 q 229 697 245 755 q 200 580 212 640 q 180 460 188 520 q 168 344 172 401 q 164 236 164 287 q 166 163 164 205 q 174 77 168 121 q 192 -12 180 32 q 225 -89 204 -55 q 277 -144 246 -123 q 353 -165 309 -165 q 431 -150 396 -165 q 492 -109 465 -135 q 537 -47 518 -82 q 570 27 557 -12 q 590 108 583 66 q 602 189 598 149 q 597 268 597 228 q 603 387 597 323 q 621 514 609 450 q 651 638 633 578 q 694 750 669 699 q 712 779 703 765 q 732 803 721 792 q 758 819 743 813 q 790 825 772 825 z "},"V":{"ha":767,"x_min":20,"x_max":909,"o":"m 132 929 q 114 896 120 916 q 104 853 107 876 q 99 808 100 831 q 98 770 98 786 q 115 590 98 678 q 161 418 132 502 q 232 254 191 334 q 323 98 273 174 q 353 51 337 77 q 385 -3 370 25 q 401 46 393 22 q 416 90 409 71 q 459 210 436 145 q 508 342 481 274 q 563 480 534 410 q 623 614 591 549 q 688 737 654 680 q 758 840 722 795 q 782 868 768 853 q 814 895 797 882 q 849 916 831 907 q 886 924 867 924 q 901 920 893 924 q 909 908 909 917 q 907 898 909 903 q 901 889 904 893 q 631 428 751 666 q 411 -59 510 190 q 432 -119 424 -90 q 439 -178 439 -149 q 437 -203 439 -189 q 429 -230 435 -218 q 412 -251 422 -243 q 387 -260 402 -260 q 366 -253 374 -260 q 353 -236 357 -246 q 348 -215 349 -227 q 347 -193 347 -203 q 352 -138 347 -168 q 364 -76 357 -108 q 338 -38 352 -58 q 310 0 324 -19 q 284 35 296 18 q 262 66 271 52 q 173 200 216 132 q 96 342 130 269 q 41 492 62 415 q 20 652 20 569 q 44 802 20 730 q 119 935 68 874 l 132 929 m 398 -135 q 394 -126 396 -130 q 389 -116 391 -121 q 388 -118 388 -117 q 387 -121 388 -119 q 381 -142 385 -131 q 375 -166 378 -154 q 371 -190 372 -178 q 369 -212 369 -202 q 372 -231 369 -221 q 386 -240 374 -240 q 410 -230 401 -240 q 418 -204 418 -219 q 411 -169 418 -186 q 398 -135 404 -151 z "},"W":{"ha":1196,"x_min":51,"x_max":1145,"o":"m 347 921 q 262 798 300 864 q 197 656 224 732 q 156 495 170 581 q 142 311 142 409 q 145 215 142 265 q 157 116 149 164 q 180 23 165 67 q 218 -54 195 -20 q 273 -106 241 -87 q 350 -125 306 -125 q 422 -99 391 -125 q 477 -28 454 -72 q 440 65 456 16 q 413 163 424 114 q 398 260 403 212 q 393 351 393 309 q 394 401 393 371 q 399 464 395 431 q 411 530 403 496 q 432 589 418 563 q 466 632 446 615 q 515 648 486 648 q 561 632 541 648 q 593 590 580 616 q 616 533 607 565 q 630 469 625 500 q 636 410 635 437 q 638 364 638 382 q 633 280 638 326 q 617 186 628 235 q 591 89 607 138 q 555 -6 576 39 q 599 -65 575 -38 q 651 -111 623 -92 q 711 -141 679 -130 q 779 -151 743 -151 q 876 -131 833 -151 q 950 -75 919 -110 q 1003 8 981 -39 q 1037 109 1024 56 q 1055 220 1050 163 q 1061 332 1061 277 q 1046 489 1061 410 q 1003 641 1031 567 q 933 781 975 714 q 837 902 892 847 q 714 998 782 957 q 568 1061 647 1038 l 581 1078 q 753 1012 675 1057 q 893 905 831 967 q 1003 766 956 842 q 1082 604 1050 689 q 1129 429 1114 519 q 1145 250 1145 339 q 1137 137 1145 195 q 1110 22 1128 78 q 1063 -84 1092 -34 q 994 -171 1034 -134 q 899 -231 953 -209 q 777 -253 845 -253 q 694 -241 733 -253 q 623 -207 656 -229 q 561 -154 589 -184 q 510 -87 533 -123 q 468 -140 490 -116 q 420 -182 446 -165 q 365 -209 394 -199 q 304 -218 336 -218 q 212 -196 252 -218 q 144 -136 172 -173 q 98 -53 116 -99 q 70 41 80 -6 q 55 133 59 89 q 51 210 51 178 q 122 604 51 422 q 334 931 194 785 l 347 921 m 444 414 q 448 332 444 375 q 461 243 452 288 q 484 152 471 197 q 517 65 498 107 q 536 139 528 101 q 550 213 545 177 q 558 282 555 250 q 560 340 560 315 q 556 421 560 380 q 545 496 553 463 q 523 552 536 530 q 491 574 510 574 q 472 564 480 574 q 459 538 465 553 q 451 504 454 523 q 446 467 448 485 q 444 435 444 449 q 444 414 444 420 z "},"X":{"ha":704,"x_min":-14,"x_max":853,"o":"m 841 930 q 849 928 845 930 q 853 920 853 926 q 850 908 853 914 q 842 896 847 902 q 833 884 838 890 q 825 875 828 879 q 752 793 789 833 q 680 711 715 754 q 511 496 591 606 q 353 273 431 387 q 557 -6 446 125 q 796 -248 669 -138 l 788 -260 q 654 -168 720 -218 q 527 -60 589 -117 q 407 61 465 -3 q 298 191 349 124 q 151 -31 223 79 q 2 -252 78 -142 l -14 -240 q 125 -4 56 -121 q 267 231 195 113 q 130 443 190 335 q 84 530 107 483 q 42 627 60 577 q 11 727 23 677 q -1 825 -1 778 q 2 854 -1 836 q 11 888 5 871 q 27 917 18 905 q 52 929 37 929 q 65 925 60 929 q 74 913 71 920 q 80 900 78 907 q 83 888 82 892 q 182 599 121 742 q 324 320 243 456 q 453 514 387 419 q 589 703 518 610 q 616 738 600 718 q 651 780 632 758 q 691 824 670 802 q 733 866 712 846 q 775 900 755 885 q 813 922 795 915 q 826 928 819 926 q 841 930 833 930 z "},"Y":{"ha":668,"x_min":0,"x_max":736,"o":"m 736 856 q 727 801 736 829 q 708 750 719 773 q 643 624 680 684 q 566 504 607 563 q 537 468 555 489 q 498 424 519 448 q 455 374 477 400 q 414 323 433 349 q 381 274 395 298 q 363 232 368 251 q 358 197 358 215 q 358 163 358 178 q 359 116 358 146 q 362 49 360 86 q 367 -28 363 12 q 375 -104 370 -68 q 386 -168 379 -140 q 400 -210 392 -196 q 403 -215 401 -212 q 404 -221 404 -218 q 401 -229 404 -226 q 394 -233 398 -231 q 386 -234 390 -234 q 379 -235 382 -235 q 350 -232 364 -235 q 323 -225 336 -229 q 292 -205 303 -218 q 274 -174 280 -191 q 267 -137 268 -157 q 265 -100 265 -118 q 268 -24 265 -65 q 275 60 271 18 q 286 144 279 102 q 298 221 292 185 q 278 253 293 233 q 246 293 264 272 q 211 332 228 313 q 184 363 194 351 q 119 448 152 402 q 60 543 86 493 q 17 646 33 593 q 0 753 0 699 q 13 829 0 793 q 56 890 26 865 q 71 904 62 896 q 91 919 81 911 q 113 931 102 926 q 132 936 123 936 q 146 921 146 936 q 146 916 146 919 q 144 911 146 913 q 133 846 137 878 q 129 781 129 814 q 146 637 129 703 q 193 509 164 570 q 260 388 222 447 q 336 267 297 328 q 391 347 361 304 q 449 435 420 390 q 506 529 478 481 q 554 625 533 576 q 588 722 575 673 q 600 818 600 770 q 598 852 600 836 q 590 884 595 868 l 590 889 q 598 905 590 899 q 618 915 607 911 q 641 920 629 918 q 660 921 653 921 q 691 918 677 921 q 715 907 705 915 q 730 887 725 900 q 736 856 736 875 z "},"Z":{"ha":737,"x_min":7,"x_max":744,"o":"m 718 -86 q 623 -137 678 -114 q 506 -178 568 -161 q 379 -204 444 -195 q 257 -214 315 -214 q 207 -212 235 -214 q 150 -203 178 -210 q 94 -187 121 -197 q 46 -160 66 -176 q 32 -173 39 -167 q 18 -184 25 -178 l 9 -170 q 19 -156 15 -163 q 29 -144 24 -150 q 13 -115 18 -130 q 7 -79 7 -99 q 11 -64 7 -71 q 24 -58 14 -58 q 31 -59 27 -58 q 37 -61 34 -60 q 59 -70 48 -65 q 80 -77 69 -74 q 215 109 151 16 q 338 298 279 202 q 416 424 378 363 q 488 548 454 486 q 551 677 522 611 q 603 815 581 743 l 603 816 q 500 818 552 818 q 395 816 449 818 q 286 807 341 814 q 177 789 231 801 q 71 759 123 778 q 64 756 68 758 q 57 755 61 755 q 42 764 45 755 q 39 782 39 772 q 44 814 39 798 q 57 844 50 830 q 81 872 64 860 q 118 892 97 884 q 163 906 139 901 q 211 915 187 911 q 256 919 235 918 q 292 920 277 920 q 366 916 326 920 q 448 906 406 913 q 533 891 490 900 q 616 870 576 882 q 616 871 616 871 q 616 872 616 871 q 619 883 617 876 q 623 895 621 889 q 630 904 625 900 q 640 908 634 908 q 655 903 648 908 q 669 888 663 897 q 681 868 675 880 q 690 845 686 857 q 744 821 719 834 l 740 806 q 720 808 730 807 q 699 809 709 808 q 700 804 699 806 q 700 800 700 802 q 685 722 700 765 q 649 634 670 678 q 604 549 628 589 q 564 479 581 509 q 473 337 524 412 q 365 188 422 262 q 245 42 307 113 q 121 -90 183 -29 q 233 -106 176 -103 q 351 -110 290 -110 q 533 -101 441 -110 q 711 -72 624 -92 l 718 -86 z "},"a":{"ha":498,"x_min":37,"x_max":566,"o":"m 354 355 q 349 342 354 348 q 336 336 343 336 q 323 340 330 336 q 308 349 316 344 q 288 357 299 353 q 262 361 277 361 q 203 340 229 361 q 159 289 177 319 q 132 224 141 258 q 122 161 122 189 q 125 123 122 142 q 137 89 129 104 q 161 65 146 74 q 199 56 176 56 q 245 65 223 56 q 288 89 268 74 q 295 135 288 111 q 311 182 301 159 q 335 227 321 205 q 362 264 348 248 l 371 258 q 360 211 363 235 q 357 163 357 186 q 361 117 357 138 q 375 79 365 95 q 403 54 385 63 q 448 45 420 45 q 511 60 482 45 q 561 100 539 76 l 566 97 q 534 52 554 73 q 491 13 515 30 q 439 -15 467 -5 q 386 -25 412 -25 q 325 -4 349 -25 q 292 50 301 18 q 229 2 264 22 q 155 -17 194 -17 q 105 -6 127 -17 q 68 22 83 4 q 45 63 53 39 q 37 114 37 87 q 47 177 37 144 q 74 240 57 209 q 115 299 92 271 q 167 348 139 327 q 227 381 195 369 q 290 393 258 393 q 309 392 298 393 q 330 386 319 390 q 347 374 340 382 q 354 355 354 367 z "},"b":{"ha":477,"x_min":27,"x_max":490,"o":"m 490 840 q 476 748 490 793 q 440 659 463 702 q 386 577 417 616 q 317 505 354 538 q 241 445 281 472 q 161 401 201 418 l 156 411 q 252 478 206 435 q 333 577 298 522 q 388 692 368 631 q 409 810 409 752 q 407 833 409 821 q 400 856 406 846 q 387 872 395 866 q 363 879 378 879 q 290 852 323 879 q 228 780 256 825 q 180 676 201 734 q 144 556 159 618 q 123 434 130 494 q 116 323 116 374 q 119 265 116 297 q 130 200 122 233 q 150 137 138 168 q 182 82 163 106 q 228 44 201 58 q 290 29 254 29 q 328 38 312 29 q 354 62 344 47 q 368 96 363 77 q 373 134 373 115 q 365 199 373 165 q 339 260 356 233 q 295 307 321 288 q 233 325 269 325 q 212 323 222 325 q 191 318 201 321 l 187 325 q 242 357 212 344 q 304 370 271 370 q 366 355 338 370 q 411 317 393 340 q 440 262 430 293 q 450 200 450 231 q 434 113 450 153 q 389 42 418 72 q 321 -5 361 12 q 234 -22 281 -22 q 162 -8 193 -22 q 109 31 132 7 q 70 88 85 56 q 45 156 54 120 q 31 227 35 191 q 27 296 27 263 q 38 426 27 355 q 69 567 48 496 q 121 704 90 638 q 194 821 153 770 q 288 903 236 872 q 404 933 340 933 q 469 908 448 933 q 490 840 490 882 z "},"c":{"ha":395,"x_min":24,"x_max":463,"o":"m 463 97 q 417 45 445 68 q 355 6 389 22 q 285 -18 321 -9 q 216 -26 249 -26 q 140 -14 175 -26 q 79 21 105 -2 q 38 78 53 45 q 24 153 24 111 q 41 245 24 200 q 89 326 58 291 q 162 383 120 361 q 254 404 205 404 q 287 401 271 404 q 317 390 303 397 q 339 369 330 382 q 347 336 347 356 q 337 302 347 317 q 311 278 327 288 q 278 263 296 269 q 243 254 260 257 l 243 264 q 264 271 253 267 q 285 283 275 276 q 301 301 294 291 q 307 323 307 311 q 303 339 307 333 q 292 350 298 346 q 277 356 286 354 q 261 358 269 358 q 199 343 227 358 q 153 302 172 328 q 124 246 134 277 q 114 183 114 215 q 125 118 114 146 q 157 68 136 89 q 206 37 177 48 q 271 26 235 26 q 320 32 294 26 q 371 46 347 37 q 418 69 396 56 q 457 100 441 83 l 463 97 z "},"d":{"ha":594,"x_min":27,"x_max":662,"o":"m 662 97 q 635 57 651 75 q 598 26 618 39 q 555 7 578 14 q 507 0 532 0 q 417 26 454 0 q 355 93 380 52 q 314 53 336 73 q 268 17 292 33 q 216 -7 243 2 q 163 -17 190 -17 q 106 -4 132 -17 q 64 30 81 9 q 37 79 46 52 q 27 136 27 106 q 47 227 27 181 q 100 309 67 272 q 176 369 133 346 q 264 392 218 392 q 288 389 278 392 l 288 418 q 290 470 288 437 q 295 542 291 503 q 306 626 299 582 q 322 712 312 669 q 347 794 333 755 q 380 863 361 833 q 424 910 399 892 q 479 928 448 928 q 537 907 515 928 q 572 855 559 886 q 590 789 585 824 q 594 728 594 755 q 587 646 594 692 q 568 548 581 600 q 539 441 556 496 q 503 337 522 387 q 460 244 483 287 q 414 171 437 201 q 436 122 423 144 q 465 83 448 100 q 504 58 482 67 q 553 49 526 49 q 658 100 617 49 l 662 97 m 384 475 q 384 418 384 450 q 386 350 384 386 q 392 276 387 314 q 405 203 396 239 q 457 324 433 258 q 498 458 481 389 q 525 595 515 527 q 534 725 534 664 q 533 762 534 738 q 526 811 532 787 q 507 853 519 835 q 474 871 495 871 q 445 856 458 871 q 422 815 432 840 q 407 757 413 789 q 396 689 400 724 q 389 619 391 654 q 386 555 387 585 q 384 504 385 526 q 384 475 384 483 m 213 57 q 284 72 252 57 q 345 111 317 87 q 322 165 332 136 q 307 223 313 194 q 297 283 300 253 q 291 340 293 313 q 271 355 283 349 q 241 361 258 361 q 184 343 209 361 q 142 300 159 326 q 117 243 125 274 q 108 184 108 212 q 114 135 108 159 q 132 95 119 112 q 165 67 145 77 q 213 57 185 57 z "},"e":{"ha":399,"x_min":24,"x_max":467,"o":"m 467 97 q 424 49 449 71 q 370 10 399 26 q 308 -16 340 -6 q 243 -25 276 -25 q 157 -13 197 -25 q 87 23 117 -1 q 41 84 58 47 q 24 171 24 121 q 42 262 24 220 q 91 336 60 304 q 165 386 123 368 q 257 404 208 404 q 300 398 280 404 q 335 379 320 391 q 358 348 350 366 q 367 306 367 330 q 355 256 367 277 q 325 218 344 234 q 282 191 306 201 q 232 173 258 180 q 180 163 205 166 q 134 160 155 160 l 117 160 q 166 66 126 98 q 277 33 206 33 q 375 51 327 33 q 461 100 422 68 l 467 97 m 115 180 l 132 180 q 182 188 157 180 q 229 211 208 196 q 263 249 250 227 q 277 300 277 271 q 265 346 277 328 q 224 364 253 364 q 173 346 194 364 q 140 302 153 328 q 121 247 127 276 q 115 196 115 218 l 115 180 z "},"f":{"ha":355,"x_min":-14,"x_max":532,"o":"m 399 393 q 366 372 387 382 q 319 352 345 361 q 262 333 292 342 q 202 317 232 324 q 201 138 203 228 q 193 -40 200 49 q 171 -217 186 -130 q 130 -389 157 -304 l 113 -389 l 113 300 q 82 297 96 298 q 57 296 68 296 q 31 297 43 296 q 8 305 18 299 q -7 321 -1 311 q -14 349 -14 331 q 0 381 -14 370 q 33 393 14 393 q 73 392 53 393 q 113 388 93 390 l 113 390 q 116 496 113 438 q 127 612 118 554 q 154 726 136 671 q 202 823 172 781 q 279 891 233 865 q 391 917 326 917 q 452 905 426 917 q 496 871 479 892 q 523 821 514 850 q 532 760 532 792 q 519 690 532 724 q 485 627 506 656 q 436 572 464 597 q 380 530 409 547 l 373 546 q 407 587 393 564 q 431 637 422 610 q 445 691 441 663 q 450 745 450 718 q 444 792 450 768 q 427 837 439 817 q 397 869 416 857 q 351 882 378 882 q 286 861 312 882 q 243 806 260 840 q 218 731 227 773 q 205 647 209 689 q 201 568 201 606 q 201 504 201 530 q 201 443 201 473 q 201 382 201 412 q 298 386 248 382 q 393 403 348 389 l 399 393 z "},"g":{"ha":426,"x_min":-41,"x_max":395,"o":"m 395 -208 q 382 -320 395 -263 q 342 -426 370 -378 q 270 -507 314 -474 q 165 -549 227 -541 q 153 -551 159 -550 q 141 -551 148 -551 q 71 -536 104 -551 q 13 -496 37 -522 q -26 -437 -12 -471 q -41 -367 -41 -404 q -24 -289 -41 -326 q 20 -220 -7 -252 q 81 -164 47 -189 q 151 -126 115 -140 l 155 -135 q 54 -232 90 -170 q 18 -368 18 -294 q 26 -428 18 -399 q 52 -478 35 -456 q 94 -513 68 -500 q 153 -526 119 -526 q 231 -502 199 -526 q 280 -441 262 -477 q 307 -361 299 -404 q 315 -281 315 -318 q 311 -217 315 -248 q 302 -155 307 -186 q 294 -93 298 -124 q 290 -29 290 -62 q 291 18 290 -6 q 298 68 293 43 q 229 8 268 33 q 145 -17 190 -17 q 95 -6 117 -17 q 58 22 73 4 q 35 63 43 39 q 27 114 27 87 q 37 177 27 144 q 64 241 47 210 q 105 299 81 272 q 157 348 129 327 q 216 380 185 368 q 280 392 248 392 q 313 388 296 392 q 343 374 330 383 q 366 352 357 366 q 374 319 374 338 q 368 295 374 306 q 353 276 362 284 q 332 260 343 267 q 309 249 320 254 l 307 257 q 314 272 312 263 q 316 289 316 281 q 312 314 316 301 q 301 337 309 326 q 283 354 294 347 q 259 361 273 361 q 197 342 224 361 q 150 295 169 323 q 120 233 130 267 q 109 170 109 199 q 113 130 109 150 q 125 93 117 109 q 150 66 134 77 q 189 56 165 56 q 256 75 225 56 q 312 121 288 94 q 337 172 321 148 q 374 214 352 196 l 386 205 q 366 149 370 180 q 361 86 361 117 q 366 14 361 50 q 378 -58 372 -22 q 390 -132 385 -95 q 395 -208 395 -170 z "},"h":{"ha":559,"x_min":46,"x_max":621,"o":"m 621 100 q 592 51 609 75 q 555 8 576 27 q 511 -24 535 -12 q 458 -36 486 -36 q 406 -20 428 -36 q 368 22 383 -4 q 342 82 352 48 q 325 152 332 116 q 314 224 318 188 q 305 290 309 260 q 266 229 283 261 q 232 163 248 197 q 200 94 216 129 q 167 24 184 58 q 159 8 163 16 q 149 -8 155 -1 q 136 -20 144 -15 q 119 -24 129 -24 q 103 -21 109 -24 q 92 -13 96 -18 q 85 -1 87 -7 q 81 10 83 5 q 67 83 73 39 q 56 178 60 127 q 48 280 51 228 q 46 376 46 332 q 54 506 46 439 q 80 636 62 572 q 124 756 97 700 q 187 856 151 813 q 271 924 224 899 q 376 949 318 949 q 437 926 415 949 q 460 861 460 903 q 438 740 460 798 q 381 629 416 682 q 306 529 347 576 q 225 442 264 482 l 216 449 q 253 496 233 468 q 291 557 272 524 q 326 626 309 590 q 356 698 343 663 q 376 766 369 733 q 384 826 384 799 q 381 853 384 840 q 372 876 378 866 q 354 891 365 886 q 329 897 344 897 q 273 874 299 897 q 225 812 247 851 q 187 722 203 773 q 158 614 170 670 q 140 500 146 557 q 134 390 134 442 q 134 319 134 355 q 136 243 134 283 q 142 160 138 204 q 155 64 146 116 q 218 216 184 142 q 290 352 251 290 q 301 370 295 361 q 313 386 307 378 q 328 397 320 393 q 346 402 336 402 q 364 396 357 402 q 375 380 371 389 q 381 359 379 370 q 384 340 382 349 q 390 289 387 320 q 398 222 393 258 q 410 151 403 186 q 428 86 417 115 q 455 39 439 57 q 492 20 471 20 q 528 28 510 20 q 562 47 545 35 q 592 73 578 58 q 615 102 606 88 l 621 100 z "},"i":{"ha":315,"x_min":27,"x_max":382,"o":"m 193 547 q 186 520 193 534 q 171 496 180 507 q 148 479 161 486 q 121 472 135 472 q 93 484 104 472 q 83 513 83 495 q 89 539 83 526 q 105 563 95 553 q 127 579 115 573 q 153 586 140 586 q 182 575 171 586 q 193 547 193 564 m 382 97 q 346 50 367 71 q 299 13 324 28 q 244 -12 273 -3 q 185 -21 216 -21 q 118 -8 147 -21 q 68 27 88 5 q 38 81 48 50 q 27 149 27 112 q 39 223 27 188 q 71 289 50 258 q 118 346 91 320 q 177 392 146 372 l 185 386 q 131 298 152 347 q 111 196 111 249 q 118 137 111 165 q 140 87 125 109 q 179 53 155 66 q 237 40 203 40 q 313 57 277 40 q 378 100 349 74 l 382 97 z "},"j":{"ha":227,"x_min":-214,"x_max":220,"o":"m 203 547 q 197 520 203 534 q 181 496 191 507 q 158 479 171 486 q 132 472 146 472 q 105 484 115 472 q 95 513 95 495 q 101 539 95 526 q 117 563 107 553 q 139 579 127 573 q 165 586 152 586 q 193 575 183 586 q 203 547 203 564 m 220 -227 q 206 -334 220 -279 q 164 -433 192 -388 q 93 -509 136 -478 q -8 -549 50 -541 q -20 -551 -14 -550 q -32 -551 -25 -551 q -102 -536 -69 -551 q -160 -496 -136 -522 q -199 -437 -185 -471 q -214 -367 -214 -404 q -197 -289 -214 -326 q -153 -220 -180 -252 q -92 -164 -126 -189 q -22 -126 -58 -140 l -18 -135 q -119 -232 -83 -170 q -155 -368 -155 -294 q -147 -428 -155 -399 q -121 -478 -138 -456 q -79 -513 -104 -500 q -20 -526 -54 -526 q 56 -501 25 -526 q 105 -438 87 -476 q 131 -356 123 -400 q 139 -273 139 -311 q 129 -172 139 -222 q 108 -72 119 -122 q 86 29 96 -22 q 77 132 77 79 q 81 205 77 168 q 99 276 86 242 q 133 338 111 310 q 189 385 155 367 l 195 382 q 168 344 178 365 q 150 301 157 323 q 141 255 144 278 q 139 208 139 231 q 152 93 139 147 q 179 -12 164 39 q 207 -116 195 -64 q 220 -227 220 -168 z "},"k":{"ha":507,"x_min":41,"x_max":575,"o":"m 575 104 q 544 53 562 77 q 503 9 526 28 q 452 -21 480 -9 q 387 -32 423 -32 q 280 -2 322 -32 q 210 81 239 28 q 194 76 202 78 q 179 71 186 73 q 176 50 178 59 q 174 32 175 40 q 170 13 172 23 q 163 -6 168 3 q 151 -21 159 -15 q 128 -26 142 -26 q 100 -14 108 -26 q 87 14 92 -1 q 68 92 77 46 q 54 188 60 138 q 44 285 47 237 q 41 370 41 333 q 43 465 41 415 q 53 566 46 515 q 72 666 60 616 q 102 762 83 716 q 145 846 120 807 q 205 913 171 885 q 241 936 221 926 q 281 945 261 945 q 299 942 289 945 q 310 928 310 938 q 304 915 310 922 q 164 631 208 781 q 121 313 121 481 q 127 179 121 243 q 144 45 134 115 q 152 121 147 81 q 166 201 157 161 q 190 276 176 240 q 225 340 204 313 q 274 385 246 368 q 340 401 302 401 q 407 378 380 401 q 433 314 433 355 q 426 269 433 291 q 406 226 418 246 q 377 189 393 206 q 345 158 361 171 q 291 121 320 139 q 315 82 302 100 q 345 49 329 63 q 381 27 361 35 q 426 19 401 19 q 468 26 448 19 q 507 45 489 33 q 542 73 526 57 q 570 106 557 89 l 575 104 m 307 316 q 252 295 273 316 q 216 241 230 273 q 195 170 202 209 q 182 97 187 132 q 244 129 215 110 q 296 170 274 147 q 330 217 317 192 q 343 271 343 243 q 334 302 343 288 q 307 316 325 316 z "},"l":{"ha":358,"x_min":27,"x_max":401,"o":"m 401 75 q 340 4 379 30 q 250 -22 300 -22 q 176 3 209 -22 q 119 68 144 28 q 77 160 94 109 q 48 264 60 212 q 32 367 37 317 q 27 452 27 416 q 32 551 27 497 q 47 659 37 604 q 76 765 58 713 q 118 856 93 817 q 175 920 142 896 q 250 944 208 944 q 308 923 286 944 q 343 871 330 902 q 360 806 356 840 q 365 744 365 771 q 348 600 365 671 q 300 466 330 529 q 229 352 270 404 q 142 267 189 301 q 164 178 151 221 q 197 101 178 135 q 240 47 216 68 q 297 26 265 26 q 352 39 329 26 q 395 77 375 52 l 401 75 m 121 493 q 121 456 121 478 q 123 409 121 435 q 128 353 125 382 q 137 292 132 323 q 214 382 182 332 q 267 489 246 431 q 296 609 287 546 q 305 741 305 673 q 305 764 305 750 q 302 795 304 779 q 297 827 300 811 q 287 857 293 844 q 270 879 280 870 q 247 887 260 887 q 202 862 221 887 q 169 797 182 836 q 145 710 155 758 q 131 619 136 663 q 123 541 125 575 q 121 493 121 506 z "},"m":{"ha":776,"x_min":44,"x_max":837,"o":"m 837 97 q 808 50 825 73 q 770 9 791 27 q 723 -19 749 -8 q 668 -29 698 -29 q 600 -1 626 -29 q 556 74 573 28 q 530 177 540 119 q 514 294 521 235 q 485 236 498 267 q 460 173 472 206 q 435 104 448 140 q 409 32 423 69 q 401 14 406 24 q 391 -5 397 4 q 376 -20 385 -14 q 355 -26 367 -26 q 339 -22 346 -26 q 327 -13 332 -18 q 318 0 322 -7 q 312 14 315 7 q 290 76 298 44 q 276 142 282 108 q 267 214 271 176 q 258 294 262 252 q 233 231 244 261 q 211 171 222 201 q 190 108 201 140 q 168 39 180 76 q 162 20 165 30 q 155 2 159 10 q 143 -12 151 -6 q 125 -17 136 -17 q 100 -6 108 -17 q 86 20 92 5 q 71 77 78 41 q 57 156 63 113 q 47 244 51 199 q 44 329 44 290 q 64 385 44 367 q 118 403 85 403 q 124 403 120 403 q 132 402 128 403 q 139 399 136 401 q 142 393 142 397 q 134 303 136 346 q 132 220 132 260 q 137 141 133 180 q 146 61 140 102 q 169 135 158 100 q 193 205 180 170 q 219 275 205 239 q 249 350 233 311 q 268 378 258 370 q 293 387 277 387 q 324 372 313 387 q 338 338 335 357 q 348 267 344 303 q 357 194 352 231 q 368 122 361 157 q 386 53 375 86 q 413 126 399 88 q 441 203 427 165 q 471 279 455 242 q 505 350 487 317 q 525 376 514 366 q 553 387 536 387 q 570 382 563 387 q 583 371 578 378 q 592 355 589 363 q 597 338 595 347 q 603 287 600 318 q 611 220 606 256 q 624 150 616 185 q 643 85 631 114 q 671 38 654 56 q 710 20 687 20 q 747 27 729 20 q 780 45 764 34 q 809 71 795 56 q 833 100 822 85 l 837 97 z "},"n":{"ha":553,"x_min":47,"x_max":621,"o":"m 621 97 q 593 50 608 73 q 560 11 578 28 q 519 -16 542 -6 q 466 -26 496 -26 q 408 -10 432 -26 q 366 34 383 7 q 338 97 349 62 q 321 169 328 132 q 311 241 314 205 q 304 305 307 277 q 273 266 292 295 q 236 199 255 237 q 200 115 217 160 q 172 25 182 69 q 165 5 170 16 q 154 -13 161 -5 q 139 -27 148 -22 q 119 -33 130 -33 q 94 -21 102 -33 q 83 7 86 -9 q 55 172 63 93 q 47 329 47 250 q 54 362 47 348 q 71 385 60 376 q 97 398 82 394 q 128 403 112 403 q 135 403 130 403 q 143 402 139 403 q 150 399 147 401 q 152 393 153 397 q 135 213 134 304 q 144 36 136 121 q 166 113 152 70 q 200 200 181 156 q 242 283 220 243 q 289 350 265 323 q 312 372 300 363 q 342 381 324 381 q 359 377 352 381 q 370 367 366 373 q 377 353 374 361 q 380 338 379 345 q 387 287 384 318 q 396 220 391 256 q 408 150 401 185 q 427 85 416 114 q 455 38 439 56 q 494 20 471 20 q 529 27 512 20 q 562 45 547 34 q 591 71 578 56 q 616 100 605 85 l 621 97 z "},"o":{"ha":449,"x_min":24,"x_max":425,"o":"m 425 200 q 410 112 425 153 q 366 41 394 71 q 297 -5 337 12 q 210 -22 258 -22 q 133 -6 167 -22 q 74 37 98 9 q 37 100 50 64 q 24 178 24 136 q 34 243 24 212 q 61 301 43 275 q 103 351 79 328 q 156 392 127 374 l 164 386 q 119 313 136 353 q 103 228 103 273 q 113 162 103 195 q 142 100 123 128 q 189 55 161 73 q 254 37 218 37 q 298 47 277 37 q 333 73 318 56 q 358 110 349 89 q 367 153 367 130 q 360 195 367 174 q 342 234 354 216 q 315 266 331 252 q 279 290 298 281 q 259 298 269 296 q 237 304 249 301 q 227 307 233 305 q 217 311 222 309 q 209 317 212 313 q 205 328 205 321 q 214 350 205 340 q 235 368 223 360 q 261 380 248 376 q 285 385 275 385 q 346 367 319 385 q 390 322 372 349 q 416 262 408 295 q 425 200 425 230 z "},"p":{"ha":493,"x_min":54,"x_max":469,"o":"m 469 240 q 455 161 469 202 q 414 86 440 120 q 353 30 389 52 q 275 8 317 8 q 245 13 260 8 q 217 28 230 18 q 197 52 205 38 q 189 82 189 65 q 196 96 189 90 q 211 102 203 102 q 228 92 221 102 q 244 70 235 81 q 264 47 252 58 q 296 37 276 37 q 339 54 320 37 q 371 94 358 71 q 391 145 384 118 q 397 192 397 172 q 391 243 397 218 q 370 287 384 268 q 335 318 356 307 q 285 330 313 330 q 229 308 252 330 q 192 251 206 286 q 169 172 177 216 q 158 86 161 129 q 153 8 154 44 q 153 -49 153 -28 q 147 -226 153 -147 q 132 -369 142 -305 q 110 -482 123 -433 q 82 -570 97 -531 l 65 -570 l 65 -245 q 60 50 65 -97 q 54 346 54 197 q 61 372 54 361 q 78 389 67 382 q 102 399 88 396 q 130 401 115 401 q 143 400 134 401 q 153 392 153 398 q 152 298 153 345 q 150 205 151 252 q 174 273 159 238 q 211 336 189 308 q 262 383 233 365 q 332 401 292 401 q 392 388 366 401 q 434 352 417 374 q 460 300 452 330 q 469 240 469 271 z "},"q":{"ha":439,"x_min":41,"x_max":546,"o":"m 546 -490 q 524 -522 536 -507 q 495 -549 511 -537 q 461 -568 479 -561 q 422 -575 443 -575 q 358 -563 386 -575 q 311 -529 331 -550 q 277 -480 290 -508 q 256 -422 264 -453 q 244 -359 248 -391 q 241 -298 241 -328 q 244 -217 241 -260 q 255 -127 248 -173 q 273 -35 262 -81 q 299 54 283 12 q 235 3 271 24 q 159 -17 199 -17 q 108 -6 130 -17 q 71 22 86 4 q 48 63 56 39 q 41 114 41 87 q 50 177 41 144 q 77 241 60 210 q 118 299 94 272 q 170 348 142 327 q 229 380 197 368 q 292 392 260 392 q 326 388 309 392 q 356 374 342 383 q 378 352 370 366 q 387 319 387 338 q 380 295 387 306 q 365 276 374 284 q 345 260 356 267 q 323 249 333 254 l 319 257 q 327 272 325 263 q 330 289 330 281 q 326 314 330 301 q 315 337 322 326 q 297 354 307 347 q 273 361 286 361 q 210 342 238 361 q 163 294 182 323 q 133 232 144 266 q 123 170 123 199 q 126 130 123 150 q 139 93 130 109 q 163 66 148 77 q 202 56 178 56 q 273 77 241 56 q 330 127 306 98 q 357 173 342 151 q 388 214 371 195 l 399 205 q 364 117 377 165 q 343 18 351 69 q 334 -84 336 -33 q 331 -180 331 -135 q 331 -234 331 -201 q 334 -305 331 -267 q 343 -380 336 -342 q 365 -449 351 -418 q 401 -499 378 -479 q 457 -518 423 -518 q 499 -508 480 -518 q 531 -476 518 -497 l 546 -490 z "},"r":{"ha":488,"x_min":12,"x_max":556,"o":"m 556 97 q 525 48 544 70 q 485 11 507 26 q 440 -13 463 -4 q 396 -21 417 -21 q 330 -7 357 -21 q 286 29 302 6 q 261 83 269 52 q 254 150 254 115 q 258 206 254 177 q 269 262 262 235 q 272 272 271 267 q 273 282 273 278 q 269 288 273 286 q 245 295 258 292 q 219 304 232 299 q 196 315 207 309 q 176 330 184 321 q 163 248 176 290 q 129 168 150 206 q 79 96 107 130 q 18 39 50 63 l 12 45 q 47 97 31 67 q 75 159 64 127 q 93 225 87 192 q 100 288 100 258 q 97 316 100 302 q 91 341 94 329 q 85 365 88 353 q 83 387 83 376 q 95 417 83 406 q 126 428 107 428 q 142 422 136 428 q 151 408 147 416 q 161 391 155 400 q 176 376 166 382 q 209 366 189 369 q 250 359 229 362 q 294 354 272 357 q 333 345 315 351 q 361 327 350 338 q 372 297 372 316 q 370 278 372 288 q 365 261 368 269 q 351 203 357 233 q 345 144 345 174 q 349 99 345 119 q 363 63 353 78 q 390 40 373 48 q 433 32 407 32 q 500 51 471 32 q 550 100 528 69 l 556 97 z "},"s":{"ha":448,"x_min":12,"x_max":414,"o":"m 414 146 q 401 79 414 111 q 365 25 388 48 q 311 -12 342 2 q 244 -25 280 -25 q 197 -18 220 -25 q 155 4 174 -10 q 121 37 136 18 q 101 81 107 57 l 117 85 q 158 49 134 63 q 211 35 181 35 q 257 45 236 35 q 294 74 279 56 q 318 115 309 92 q 326 163 326 138 q 318 211 326 192 q 297 244 310 231 q 267 267 283 257 q 234 287 251 277 q 202 310 218 297 q 176 343 187 323 q 163 259 176 303 q 128 174 150 215 q 77 96 106 132 q 17 36 49 60 l 12 45 q 50 103 33 68 q 76 176 66 138 q 92 253 87 214 q 97 323 97 292 q 94 357 97 340 q 90 389 90 373 q 101 418 90 408 q 130 428 113 428 q 152 422 144 428 q 167 406 160 416 q 180 384 174 396 q 198 358 187 371 q 224 332 208 345 q 265 310 240 319 q 321 285 294 299 q 369 252 348 271 q 401 207 389 233 q 414 146 414 181 z "},"t":{"ha":412,"x_min":-88,"x_max":595,"o":"m 483 97 q 448 50 468 72 q 404 12 428 28 q 352 -13 380 -4 q 294 -22 324 -22 q 217 -7 250 -22 q 159 33 183 7 q 118 92 134 58 q 92 163 102 126 q 79 239 83 200 q 75 313 75 277 q 77 379 75 345 q 85 450 80 414 q 44 449 64 449 q 5 449 24 449 q -24 450 -8 449 q -55 455 -41 450 q -79 469 -69 460 q -88 497 -88 479 q -84 513 -88 507 q -74 523 -81 519 q -59 527 -68 526 q -42 528 -51 528 q 6 524 -32 528 q 98 517 44 521 q 141 674 115 597 q 202 815 168 751 l 212 815 q 173 666 190 741 q 149 513 157 591 q 251 508 198 510 q 353 505 303 505 q 473 507 427 505 q 546 510 519 508 q 593 515 577 513 l 595 504 q 503 486 555 494 q 391 471 450 477 q 269 460 332 465 q 144 452 206 455 q 142 425 142 439 q 142 397 142 411 q 145 326 142 365 q 157 247 149 286 q 179 169 165 207 q 215 103 193 132 q 270 56 238 74 q 345 39 302 39 q 417 56 385 39 q 479 100 450 74 l 483 97 z "},"u":{"ha":503,"x_min":31,"x_max":578,"o":"m 578 97 q 547 52 566 73 q 503 13 527 30 q 451 -15 478 -5 q 397 -25 424 -25 q 337 -3 361 -25 q 301 50 313 19 q 243 6 275 24 q 172 -11 211 -11 q 111 2 138 -11 q 66 36 84 14 q 40 86 49 58 q 31 147 31 115 q 41 219 31 184 q 69 285 51 254 q 113 344 87 317 q 167 392 138 371 l 175 386 q 130 296 146 345 q 113 196 113 247 q 117 150 113 174 q 133 104 122 125 q 162 70 144 83 q 207 56 180 56 q 251 63 230 56 q 292 85 272 71 q 290 101 290 93 q 289 117 289 109 q 298 187 289 149 q 323 263 308 225 q 359 335 339 300 q 400 393 379 369 l 408 387 q 382 279 393 335 q 372 170 372 224 q 375 122 372 145 q 388 82 378 100 q 416 53 398 64 q 463 43 433 43 q 524 59 495 43 q 574 100 552 76 l 578 97 z "},"v":{"ha":463,"x_min":-14,"x_max":449,"o":"m 449 401 q 440 322 449 367 q 416 230 432 277 q 379 137 401 182 q 332 55 358 91 q 276 -3 306 19 q 214 -25 246 -25 q 178 -7 195 -25 q 148 37 161 12 q 125 87 134 62 q 110 127 115 113 q 85 209 96 168 q 64 292 74 250 q 62 302 64 294 q 59 318 61 310 q 53 333 56 326 q 47 339 50 339 q 34 337 41 339 q 18 332 26 335 q 4 326 11 329 q -8 319 -3 322 l -14 326 q 9 345 -5 334 q 39 365 23 356 q 71 381 54 374 q 99 387 87 387 q 126 373 115 387 q 146 336 138 359 q 162 281 155 313 q 177 214 169 249 q 182 192 178 208 q 193 154 186 176 q 206 109 199 133 q 221 66 213 85 q 236 34 229 47 q 250 21 243 21 q 286 35 269 21 q 317 72 302 49 q 343 124 332 95 q 363 182 355 153 q 375 240 371 212 q 380 289 380 268 q 372 367 380 328 q 346 436 363 406 q 302 484 329 467 q 239 495 275 500 l 237 501 q 279 515 258 510 q 323 519 301 519 q 415 490 381 519 q 449 401 449 461 z "},"w":{"ha":711,"x_min":0,"x_max":689,"o":"m 689 401 q 682 318 689 364 q 660 224 674 271 q 627 132 646 176 q 584 52 608 87 q 532 -4 559 17 q 475 -25 505 -25 q 440 -4 457 -25 q 409 50 424 16 q 380 123 393 83 q 357 204 368 164 q 334 126 347 167 q 304 52 322 85 q 263 -3 287 18 q 207 -25 239 -25 q 169 -5 186 -25 q 137 44 151 14 q 112 112 123 75 q 93 183 101 149 q 80 247 85 218 q 72 289 75 275 q 70 299 71 291 q 66 316 68 307 q 61 332 64 325 q 56 339 58 339 q 29 332 44 339 q 4 319 14 325 l 0 326 q 23 348 9 336 q 53 368 37 359 q 86 384 69 378 q 117 390 102 390 q 139 379 129 390 q 155 353 149 369 q 167 316 162 336 q 175 277 172 296 q 180 242 178 258 q 183 218 182 227 q 186 196 184 213 q 193 158 189 180 q 202 112 197 136 q 214 67 208 87 q 226 34 220 47 q 239 21 233 21 q 274 45 258 21 q 303 105 290 69 q 327 182 317 141 q 343 256 337 222 q 332 305 336 283 q 323 339 327 326 q 322 349 322 342 q 329 366 322 358 q 346 380 336 374 q 367 390 356 387 q 386 393 378 393 q 408 381 399 393 q 422 351 417 368 q 431 317 428 334 q 436 290 434 300 q 440 264 437 286 q 450 212 444 242 q 464 149 456 182 q 478 87 471 115 q 494 40 486 58 q 507 21 501 21 q 541 34 526 21 q 569 67 557 46 q 591 114 582 87 q 607 170 600 141 q 616 228 613 199 q 619 282 619 257 q 616 328 619 303 q 608 377 614 353 q 592 424 602 401 q 568 464 582 447 q 537 489 555 480 q 497 495 519 498 l 496 501 q 533 515 513 510 q 574 519 553 519 q 660 488 631 519 q 689 401 689 456 z "},"x":{"ha":502,"x_min":20,"x_max":563,"o":"m 423 347 q 406 309 423 329 q 364 271 389 290 q 312 235 339 252 q 264 207 284 218 q 294 149 279 178 q 328 97 309 120 q 374 58 348 73 q 436 43 399 43 q 502 56 471 43 q 559 93 533 69 l 563 90 q 532 45 551 66 q 489 8 513 24 q 439 -16 466 -7 q 383 -25 412 -25 q 314 -11 344 -25 q 262 27 285 3 q 221 83 239 52 q 187 151 203 115 q 153 106 168 130 q 127 58 138 83 q 112 9 117 34 q 106 -36 106 -15 q 111 -82 106 -62 q 121 -116 115 -102 q 132 -136 127 -129 q 140 -144 138 -142 l 135 -150 q 94 -135 114 -147 q 59 -106 75 -123 q 34 -67 43 -88 q 24 -24 24 -45 q 37 32 24 4 q 72 85 50 59 q 120 134 93 111 q 175 176 147 157 q 146 238 160 208 q 120 290 133 267 q 94 326 106 312 q 69 339 81 339 q 58 337 65 339 q 45 331 52 334 q 33 324 39 328 q 24 319 27 321 l 20 326 q 42 348 28 336 q 71 369 56 359 q 103 384 87 378 q 134 390 119 390 q 172 373 154 390 q 204 330 189 355 q 232 276 219 304 q 254 226 244 248 q 286 249 271 236 q 314 277 302 262 q 334 310 326 292 q 341 349 341 328 q 339 365 341 357 q 337 382 337 374 q 345 394 337 391 q 359 397 352 397 q 381 394 370 397 q 402 384 393 391 q 417 369 411 378 q 423 347 423 359 z "},"y":{"ha":463,"x_min":27,"x_max":460,"o":"m 460 -205 q 453 -283 460 -244 q 431 -358 446 -321 q 395 -426 416 -394 q 345 -480 373 -457 q 283 -517 317 -503 q 209 -530 249 -530 q 138 -515 172 -530 q 80 -475 105 -500 q 41 -417 56 -450 q 27 -346 27 -383 q 44 -268 27 -305 q 87 -199 60 -231 q 149 -144 115 -168 q 219 -107 183 -121 l 223 -115 q 121 -212 157 -151 q 85 -349 85 -273 q 94 -407 85 -379 q 119 -457 102 -435 q 162 -492 136 -479 q 220 -505 187 -505 q 297 -480 267 -505 q 346 -417 328 -455 q 372 -336 364 -380 q 380 -253 380 -292 q 373 -172 380 -212 q 358 -92 367 -132 q 339 -12 349 -52 q 323 69 330 28 q 293 37 309 52 q 258 11 277 22 q 218 -7 239 -1 q 174 -14 197 -14 q 114 -1 140 -14 q 70 33 87 12 q 43 83 52 55 q 34 144 34 112 q 44 216 34 181 q 73 283 54 252 q 116 341 91 314 q 170 389 141 368 l 178 385 q 133 294 149 342 q 116 195 116 245 q 121 148 116 173 q 136 102 125 123 q 164 67 146 81 q 209 53 182 53 q 269 67 241 53 q 319 102 296 81 q 317 153 317 127 q 322 224 317 187 q 339 296 327 262 q 374 358 352 330 q 430 404 395 387 l 435 401 q 408 364 419 385 q 391 321 397 343 q 382 275 385 298 q 380 229 380 252 q 392 113 380 167 q 420 8 405 60 q 448 -95 435 -43 q 460 -205 460 -147 z "},"z":{"ha":439,"x_min":12,"x_max":446,"o":"m 446 -167 q 428 -273 446 -224 q 376 -356 410 -321 q 292 -411 342 -391 q 180 -431 243 -431 q 146 -428 168 -431 q 103 -418 125 -425 q 66 -400 82 -411 q 50 -374 50 -389 q 59 -358 50 -363 q 77 -353 67 -353 q 99 -361 88 -353 q 122 -378 109 -369 q 154 -396 136 -388 q 199 -404 172 -404 q 271 -387 241 -404 q 319 -341 300 -369 q 347 -279 338 -313 q 356 -210 356 -244 q 348 -132 356 -165 q 323 -71 340 -98 q 279 -21 306 -43 q 214 24 252 2 q 210 28 212 26 q 207 35 207 31 q 222 55 207 37 q 255 98 237 72 q 288 155 273 123 q 303 216 303 186 q 299 250 303 232 q 286 282 294 267 q 263 307 277 297 q 233 317 250 317 q 196 305 212 317 q 164 274 179 294 q 137 227 149 254 q 114 169 125 200 q 86 107 104 137 q 18 39 68 78 l 12 45 q 57 121 40 81 q 84 202 74 162 q 111 274 94 241 q 151 338 128 307 q 200 390 173 370 q 262 410 227 410 q 313 397 290 410 q 355 365 337 385 q 383 320 373 345 q 393 269 393 295 q 384 217 393 243 q 360 166 375 191 q 328 119 346 141 q 292 81 309 97 q 408 -20 370 45 q 446 -167 446 -84 z "},"":{"ha":670,"x_min":-14,"x_max":738,"o":"m 738 97 q 701 50 722 71 q 654 13 680 28 q 600 -12 629 -3 q 541 -21 571 -21 q 473 -8 503 -21 q 424 27 444 5 q 393 81 404 50 q 382 149 382 112 q 408 273 382 213 q 477 378 433 334 q 420 358 452 368 q 352 339 389 348 q 278 322 316 330 q 202 309 239 315 q 201 132 203 220 q 192 -45 199 43 q 171 -219 185 -133 q 130 -389 156 -305 l 113 -389 l 113 298 q 84 296 98 297 q 57 296 70 296 q 31 297 43 296 q 8 305 18 299 q -7 321 -1 311 q -14 349 -14 331 q 0 381 -14 370 q 33 393 14 393 q 73 392 53 393 q 113 388 93 390 l 113 390 q 118 496 113 438 q 136 612 123 554 q 171 726 149 671 q 228 823 193 781 q 311 891 262 865 q 425 917 359 917 q 486 905 460 917 q 530 871 513 892 q 557 821 548 850 q 566 760 566 792 q 553 690 566 724 q 519 627 540 656 q 470 572 498 597 q 414 530 443 547 l 407 546 q 441 587 427 564 q 465 637 456 610 q 479 691 475 663 q 484 745 484 718 q 478 792 484 768 q 461 837 473 817 q 431 869 450 857 q 385 882 412 882 q 317 861 346 882 q 269 806 289 840 q 235 731 248 773 q 214 647 222 689 q 204 568 207 606 q 201 504 201 530 q 201 443 201 473 q 201 382 201 412 q 243 383 218 382 q 300 387 269 385 q 363 392 330 389 q 427 398 397 395 q 482 406 457 402 q 522 415 507 410 l 528 406 l 526 404 q 498 359 510 384 q 480 306 487 334 q 469 251 473 279 q 466 196 466 222 q 473 137 466 165 q 495 87 480 109 q 534 53 511 66 q 592 40 558 40 q 668 57 632 40 q 734 100 705 74 l 738 97 z "},"":{"ha":739,"x_min":-14,"x_max":781,"o":"m 347 392 q 287 355 326 373 q 205 324 249 338 q 205 142 206 230 q 198 -32 205 55 q 175 -206 191 -118 q 130 -389 159 -294 l 113 -389 l 118 302 q 57 296 83 296 q 31 297 43 296 q 8 305 18 299 q -7 321 -1 311 q -14 349 -14 331 q 0 381 -14 370 q 33 393 14 393 q 78 393 57 393 q 119 391 99 392 q 125 502 120 443 q 142 620 130 562 q 173 732 153 679 q 223 827 193 786 q 297 892 254 868 q 399 917 340 917 q 449 909 427 917 q 490 889 471 901 q 538 929 511 915 q 598 944 566 944 q 656 923 634 944 q 692 871 679 902 q 709 806 705 840 q 713 744 713 771 q 696 600 713 671 q 649 466 679 529 q 578 352 618 404 q 490 267 537 301 q 515 178 500 221 q 552 101 530 135 q 604 47 574 68 q 673 26 633 26 q 777 77 736 26 l 781 75 q 754 34 770 52 q 718 4 738 16 q 674 -16 697 -9 q 626 -22 651 -22 q 539 3 576 -22 q 473 68 501 28 q 427 160 446 109 q 396 264 408 212 q 380 367 385 317 q 376 452 376 416 q 380 547 376 495 q 394 651 385 598 q 420 754 404 704 q 459 844 436 804 q 376 882 437 882 q 318 866 343 882 q 276 824 294 850 q 245 762 258 798 q 225 689 233 727 q 214 611 218 650 q 208 535 210 571 q 205 468 205 498 q 205 419 205 438 l 205 387 q 268 391 235 388 q 340 401 300 394 l 347 392 m 470 493 q 470 456 469 478 q 472 409 470 435 q 477 353 473 382 q 486 292 480 323 q 563 382 531 332 q 615 489 595 431 q 645 609 635 546 q 654 741 654 673 q 653 764 654 750 q 651 795 653 779 q 645 827 649 811 q 635 857 642 844 q 619 879 629 870 q 595 887 609 887 q 550 862 570 887 q 517 797 531 836 q 494 710 503 758 q 479 619 485 663 q 472 541 474 575 q 470 493 470 506 z "},"":{"ha":585,"x_min":54,"x_max":557,"o":"m 142 504 q 144 279 142 393 q 140 53 145 166 q 120 -171 135 -60 q 71 -389 104 -282 l 54 -389 l 54 390 q 57 496 54 438 q 68 612 59 554 q 95 726 77 671 q 143 823 113 781 q 220 891 174 865 q 332 917 267 917 q 393 905 367 917 q 437 871 420 892 q 464 821 455 850 q 473 760 473 792 q 458 684 473 715 q 421 627 443 652 q 373 584 399 602 q 325 548 347 565 q 288 513 302 530 q 273 474 273 496 q 294 426 273 446 q 347 388 315 406 q 415 351 378 370 q 484 305 452 332 q 536 241 515 278 q 557 150 557 203 q 541 69 557 102 q 499 15 524 36 q 442 -16 473 -6 q 382 -26 411 -26 q 322 -15 351 -26 q 271 13 294 -4 q 231 51 248 30 q 202 93 213 72 l 216 104 q 250 64 233 81 q 285 35 267 47 q 324 17 303 23 q 370 11 345 11 q 411 19 392 11 q 443 41 429 26 q 465 76 457 56 q 473 123 473 97 q 454 192 473 165 q 406 238 435 218 q 345 272 378 257 q 283 307 312 288 q 236 355 255 327 q 217 426 217 382 q 230 489 217 462 q 262 538 243 515 q 304 582 281 561 q 346 626 326 602 q 378 678 365 650 q 391 745 391 707 q 385 792 391 768 q 368 837 380 817 q 338 869 357 857 q 292 882 319 882 q 227 861 253 882 q 185 806 201 840 q 159 731 168 773 q 147 647 151 689 q 143 568 143 606 q 142 504 142 530 z "},"":{"ha":776,"x_min":37,"x_max":762,"o":"m 718 729 q 713 692 718 713 q 697 651 707 671 q 671 617 686 631 q 635 603 655 603 q 621 610 624 603 q 618 627 618 618 q 623 683 618 655 q 627 741 627 711 q 623 798 627 770 q 605 848 618 826 q 570 883 593 869 q 512 896 547 896 q 418 872 461 896 q 339 808 375 848 q 275 713 304 767 q 224 599 246 659 q 185 475 201 538 q 159 353 170 412 q 144 243 149 294 q 139 155 139 192 q 142 86 139 123 q 153 14 145 50 q 174 -54 161 -22 q 206 -112 186 -87 q 253 -151 226 -136 q 317 -165 281 -165 q 412 -144 371 -165 q 486 -88 454 -123 q 542 -7 518 -53 q 583 87 565 39 q 577 135 579 111 q 575 183 575 159 q 576 223 575 199 q 581 275 578 248 q 591 331 585 302 q 606 384 597 359 q 627 429 614 410 q 655 458 639 448 q 677 470 666 465 q 701 475 688 475 q 716 471 711 475 q 722 457 722 467 q 721 445 722 451 q 716 433 719 439 q 680 300 691 368 q 668 161 668 231 q 671 102 668 137 q 680 29 674 68 q 693 -50 685 -9 q 712 -127 701 -91 q 735 -194 722 -164 q 762 -241 747 -224 l 750 -245 q 650 -110 690 -185 q 591 49 610 -34 q 513 -89 559 -26 q 468 -137 493 -115 q 414 -176 443 -159 q 354 -201 386 -192 q 288 -210 323 -210 q 200 -192 238 -210 q 134 -145 161 -174 q 87 -78 106 -116 q 58 1 68 -40 q 42 83 47 42 q 37 160 37 125 q 52 326 37 239 q 94 499 66 414 q 163 664 122 585 q 257 802 204 742 q 374 897 310 861 q 513 932 439 932 q 596 917 559 932 q 661 876 634 903 q 703 812 688 849 q 718 729 718 774 m 587 972 q 468 1044 520 1004 q 374 1142 416 1084 l 461 1200 q 487 1137 473 1166 q 518 1081 501 1107 q 554 1031 534 1055 q 594 982 573 1006 l 587 972 z "},"":{"ha":498,"x_min":37,"x_max":566,"o":"m 354 355 q 349 342 354 348 q 336 336 343 336 q 323 340 330 336 q 308 349 316 344 q 288 357 299 353 q 262 361 277 361 q 203 340 229 361 q 159 289 177 319 q 132 224 141 258 q 122 161 122 189 q 125 123 122 142 q 137 89 129 104 q 161 65 146 74 q 199 56 176 56 q 245 65 223 56 q 288 89 268 74 q 295 135 288 111 q 311 182 301 159 q 335 227 321 205 q 362 264 348 248 l 371 258 q 360 211 363 235 q 357 163 357 186 q 361 117 357 138 q 375 79 365 95 q 403 54 385 63 q 448 45 420 45 q 511 60 482 45 q 561 100 539 76 l 566 97 q 534 52 554 73 q 491 13 515 30 q 439 -15 467 -5 q 386 -25 412 -25 q 325 -4 349 -25 q 292 50 301 18 q 229 2 264 22 q 155 -17 194 -17 q 105 -6 127 -17 q 68 22 83 4 q 45 63 53 39 q 37 114 37 87 q 47 177 37 144 q 74 240 57 209 q 115 299 92 271 q 167 348 139 327 q 227 381 195 369 q 290 393 258 393 q 309 392 298 393 q 330 386 319 390 q 347 374 340 382 q 354 355 354 367 m 356 439 q 238 511 290 471 q 144 609 186 551 l 231 667 q 256 604 242 633 q 287 548 271 574 q 323 498 304 522 q 363 449 342 473 l 356 439 z "},"":{"ha":776,"x_min":37,"x_max":762,"o":"m 718 729 q 713 692 718 713 q 697 651 707 671 q 671 617 686 631 q 635 603 655 603 q 621 610 624 603 q 618 627 618 618 q 623 683 618 655 q 627 741 627 711 q 623 798 627 770 q 605 848 618 826 q 570 883 593 869 q 512 896 547 896 q 418 872 461 896 q 339 808 375 848 q 275 713 304 767 q 224 599 246 659 q 185 475 201 538 q 159 353 170 412 q 144 243 149 294 q 139 155 139 192 q 142 86 139 123 q 153 14 145 50 q 174 -54 161 -22 q 206 -112 186 -87 q 253 -151 226 -136 q 317 -165 281 -165 q 412 -144 371 -165 q 486 -88 454 -123 q 542 -7 518 -53 q 583 87 565 39 q 577 135 579 111 q 575 183 575 159 q 576 223 575 199 q 581 275 578 248 q 591 331 585 302 q 606 384 597 359 q 627 429 614 410 q 655 458 639 448 q 677 470 666 465 q 701 475 688 475 q 716 471 711 475 q 722 457 722 467 q 721 445 722 451 q 716 433 719 439 q 680 300 691 368 q 668 161 668 231 q 671 102 668 137 q 680 29 674 68 q 693 -50 685 -9 q 712 -127 701 -91 q 735 -194 722 -164 q 762 -241 747 -224 l 750 -245 q 650 -110 690 -185 q 591 49 610 -34 q 513 -89 559 -26 q 468 -137 493 -115 q 414 -176 443 -159 q 354 -201 386 -192 q 288 -210 323 -210 q 200 -192 238 -210 q 134 -145 161 -174 q 87 -78 106 -116 q 58 1 68 -40 q 42 83 47 42 q 37 160 37 125 q 52 326 37 239 q 94 499 66 414 q 163 664 122 585 q 257 802 204 742 q 374 897 310 861 q 513 932 439 932 q 596 917 559 932 q 661 876 634 903 q 703 812 688 849 q 718 729 718 774 m 431 982 q 471 1031 452 1006 q 507 1081 490 1055 q 538 1137 524 1107 q 564 1200 553 1166 l 651 1142 q 557 1044 609 1084 q 439 972 505 1004 l 431 982 z "},"":{"ha":498,"x_min":37,"x_max":566,"o":"m 354 355 q 349 342 354 348 q 336 336 343 336 q 323 340 330 336 q 308 349 316 344 q 288 357 299 353 q 262 361 277 361 q 203 340 229 361 q 159 289 177 319 q 132 224 141 258 q 122 161 122 189 q 125 123 122 142 q 137 89 129 104 q 161 65 146 74 q 199 56 176 56 q 245 65 223 56 q 288 89 268 74 q 295 135 288 111 q 311 182 301 159 q 335 227 321 205 q 362 264 348 248 l 371 258 q 360 211 363 235 q 357 163 357 186 q 361 117 357 138 q 375 79 365 95 q 403 54 385 63 q 448 45 420 45 q 511 60 482 45 q 561 100 539 76 l 566 97 q 534 52 554 73 q 491 13 515 30 q 439 -15 467 -5 q 386 -25 412 -25 q 325 -4 349 -25 q 292 50 301 18 q 229 2 264 22 q 155 -17 194 -17 q 105 -6 127 -17 q 68 22 83 4 q 45 63 53 39 q 37 114 37 87 q 47 177 37 144 q 74 240 57 209 q 115 299 92 271 q 167 348 139 327 q 227 381 195 369 q 290 393 258 393 q 309 392 298 393 q 330 386 319 390 q 347 374 340 382 q 354 355 354 367 m 201 449 q 241 498 222 473 q 277 548 260 522 q 308 604 294 574 q 334 667 322 633 l 420 609 q 327 511 378 551 q 208 439 275 471 l 201 449 z "},"":{"ha":776,"x_min":37,"x_max":762,"o":"m 718 729 q 713 692 718 713 q 697 651 707 671 q 671 617 686 631 q 635 603 655 603 q 621 610 624 603 q 618 627 618 618 q 623 683 618 655 q 627 741 627 711 q 623 798 627 770 q 605 848 618 826 q 570 883 593 869 q 512 896 547 896 q 418 872 461 896 q 339 808 375 848 q 275 713 304 767 q 224 599 246 659 q 185 475 201 538 q 159 353 170 412 q 144 243 149 294 q 139 155 139 192 q 142 86 139 123 q 153 14 145 50 q 174 -54 161 -22 q 206 -112 186 -87 q 253 -151 226 -136 q 317 -165 281 -165 q 412 -144 371 -165 q 486 -88 454 -123 q 542 -7 518 -53 q 583 87 565 39 q 577 135 579 111 q 575 183 575 159 q 576 223 575 199 q 581 275 578 248 q 591 331 585 302 q 606 384 597 359 q 627 429 614 410 q 655 458 639 448 q 677 470 666 465 q 701 475 688 475 q 716 471 711 475 q 722 457 722 467 q 721 445 722 451 q 716 433 719 439 q 680 300 691 368 q 668 161 668 231 q 671 102 668 137 q 680 29 674 68 q 693 -50 685 -9 q 712 -127 701 -91 q 735 -194 722 -164 q 762 -241 747 -224 l 750 -245 q 650 -110 690 -185 q 591 49 610 -34 q 513 -89 559 -26 q 468 -137 493 -115 q 414 -176 443 -159 q 354 -201 386 -192 q 288 -210 323 -210 q 200 -192 238 -210 q 134 -145 161 -174 q 87 -78 106 -116 q 58 1 68 -40 q 42 83 47 42 q 37 160 37 125 q 52 326 37 239 q 94 499 66 414 q 163 664 122 585 q 257 802 204 742 q 374 897 310 861 q 513 932 439 932 q 596 917 559 932 q 661 876 634 903 q 703 812 688 849 q 718 729 718 774 m 349 982 q 389 1030 370 1006 q 425 1078 407 1053 q 459 1131 442 1103 q 496 1194 477 1159 l 536 1194 q 573 1131 555 1159 q 608 1078 590 1103 q 644 1030 625 1053 q 683 982 662 1006 l 675 972 q 632 997 652 985 q 594 1022 613 1009 q 557 1050 576 1036 q 516 1084 538 1065 q 475 1050 494 1065 q 438 1022 456 1036 q 399 997 419 1008 q 357 972 380 985 l 349 982 z "},"":{"ha":498,"x_min":37,"x_max":566,"o":"m 354 355 q 349 342 354 348 q 336 336 343 336 q 323 340 330 336 q 308 349 316 344 q 288 357 299 353 q 262 361 277 361 q 203 340 229 361 q 159 289 177 319 q 132 224 141 258 q 122 161 122 189 q 125 123 122 142 q 137 89 129 104 q 161 65 146 74 q 199 56 176 56 q 245 65 223 56 q 288 89 268 74 q 295 135 288 111 q 311 182 301 159 q 335 227 321 205 q 362 264 348 248 l 371 258 q 360 211 363 235 q 357 163 357 186 q 361 117 357 138 q 375 79 365 95 q 403 54 385 63 q 448 45 420 45 q 511 60 482 45 q 561 100 539 76 l 566 97 q 534 52 554 73 q 491 13 515 30 q 439 -15 467 -5 q 386 -25 412 -25 q 325 -4 349 -25 q 292 50 301 18 q 229 2 264 22 q 155 -17 194 -17 q 105 -6 127 -17 q 68 22 83 4 q 45 63 53 39 q 37 114 37 87 q 47 177 37 144 q 74 240 57 209 q 115 299 92 271 q 167 348 139 327 q 227 381 195 369 q 290 393 258 393 q 309 392 298 393 q 330 386 319 390 q 347 374 340 382 q 354 355 354 367 m 119 449 q 158 497 140 473 q 194 545 176 520 q 229 598 212 570 q 265 661 246 626 l 306 661 q 342 598 325 626 q 377 545 359 570 q 413 497 395 520 q 452 449 431 473 l 445 439 q 402 464 421 452 q 364 489 382 476 q 326 517 345 503 q 286 551 307 532 q 245 517 264 532 q 207 489 226 503 q 169 464 189 475 q 126 439 149 452 l 119 449 z "},"":{"ha":776,"x_min":37,"x_max":762,"o":"m 718 729 q 713 692 718 713 q 697 651 707 671 q 671 617 686 631 q 635 603 655 603 q 621 610 624 603 q 618 627 618 618 q 623 683 618 655 q 627 741 627 711 q 623 798 627 770 q 605 848 618 826 q 570 883 593 869 q 512 896 547 896 q 418 872 461 896 q 339 808 375 848 q 275 713 304 767 q 224 599 246 659 q 185 475 201 538 q 159 353 170 412 q 144 243 149 294 q 139 155 139 192 q 142 86 139 123 q 153 14 145 50 q 174 -54 161 -22 q 206 -112 186 -87 q 253 -151 226 -136 q 317 -165 281 -165 q 412 -144 371 -165 q 486 -88 454 -123 q 542 -7 518 -53 q 583 87 565 39 q 577 135 579 111 q 575 183 575 159 q 576 223 575 199 q 581 275 578 248 q 591 331 585 302 q 606 384 597 359 q 627 429 614 410 q 655 458 639 448 q 677 470 666 465 q 701 475 688 475 q 716 471 711 475 q 722 457 722 467 q 721 445 722 451 q 716 433 719 439 q 680 300 691 368 q 668 161 668 231 q 671 102 668 137 q 680 29 674 68 q 693 -50 685 -9 q 712 -127 701 -91 q 735 -194 722 -164 q 762 -241 747 -224 l 750 -245 q 650 -110 690 -185 q 591 49 610 -34 q 513 -89 559 -26 q 468 -137 493 -115 q 414 -176 443 -159 q 354 -201 386 -192 q 288 -210 323 -210 q 200 -192 238 -210 q 134 -145 161 -174 q 87 -78 106 -116 q 58 1 68 -40 q 42 83 47 42 q 37 160 37 125 q 52 326 37 239 q 94 499 66 414 q 163 664 122 585 q 257 802 204 742 q 374 897 310 861 q 513 932 439 932 q 596 917 559 932 q 661 876 634 903 q 703 812 688 849 q 718 729 718 774 m 372 1019 q 385 1076 374 1050 q 395 1098 389 1087 q 410 1116 401 1108 q 430 1129 418 1124 q 456 1135 441 1135 q 490 1127 473 1135 q 522 1111 506 1120 q 554 1095 538 1103 q 587 1088 570 1088 q 613 1094 604 1088 q 629 1107 623 1099 q 637 1126 635 1115 l 660 1126 q 646 1069 656 1094 q 619 1030 636 1048 q 572 1013 602 1013 q 539 1021 556 1013 q 505 1037 522 1028 q 473 1053 488 1045 q 446 1060 458 1060 q 420 1053 430 1060 q 404 1039 410 1046 q 395 1019 397 1030 l 372 1019 z "},"":{"ha":498,"x_min":37,"x_max":566,"o":"m 354 355 q 349 342 354 348 q 336 336 343 336 q 323 340 330 336 q 308 349 316 344 q 288 357 299 353 q 262 361 277 361 q 203 340 229 361 q 159 289 177 319 q 132 224 141 258 q 122 161 122 189 q 125 123 122 142 q 137 89 129 104 q 161 65 146 74 q 199 56 176 56 q 245 65 223 56 q 288 89 268 74 q 295 135 288 111 q 311 182 301 159 q 335 227 321 205 q 362 264 348 248 l 371 258 q 360 211 363 235 q 357 163 357 186 q 361 117 357 138 q 375 79 365 95 q 403 54 385 63 q 448 45 420 45 q 511 60 482 45 q 561 100 539 76 l 566 97 q 534 52 554 73 q 491 13 515 30 q 439 -15 467 -5 q 386 -25 412 -25 q 325 -4 349 -25 q 292 50 301 18 q 229 2 264 22 q 155 -17 194 -17 q 105 -6 127 -17 q 68 22 83 4 q 45 63 53 39 q 37 114 37 87 q 47 177 37 144 q 74 240 57 209 q 115 299 92 271 q 167 348 139 327 q 227 381 195 369 q 290 393 258 393 q 309 392 298 393 q 330 386 319 390 q 347 374 340 382 q 354 355 354 367 m 142 486 q 154 543 144 517 q 164 565 158 554 q 179 583 170 575 q 199 596 188 591 q 226 602 211 602 q 259 594 243 602 q 291 578 275 587 q 323 562 307 570 q 356 555 340 555 q 383 561 373 555 q 398 574 393 566 q 406 593 404 582 l 429 593 q 415 536 426 561 q 388 497 406 515 q 342 480 371 480 q 308 488 326 480 q 274 504 291 495 q 243 519 258 512 q 216 527 228 527 q 189 520 199 527 q 174 506 179 513 q 165 486 167 497 l 142 486 z "},"":{"ha":776,"x_min":37,"x_max":762,"o":"m 718 729 q 713 692 718 713 q 697 651 707 671 q 671 617 686 631 q 635 603 655 603 q 621 610 624 603 q 618 627 618 618 q 623 683 618 655 q 627 741 627 711 q 623 798 627 770 q 605 848 618 826 q 570 883 593 869 q 512 896 547 896 q 418 872 461 896 q 339 808 375 848 q 275 713 304 767 q 224 599 246 659 q 185 475 201 538 q 159 353 170 412 q 144 243 149 294 q 139 155 139 192 q 142 86 139 123 q 153 14 145 50 q 174 -54 161 -22 q 206 -112 186 -87 q 253 -151 226 -136 q 317 -165 281 -165 q 412 -144 371 -165 q 486 -88 454 -123 q 542 -7 518 -53 q 583 87 565 39 q 577 135 579 111 q 575 183 575 159 q 576 223 575 199 q 581 275 578 248 q 591 331 585 302 q 606 384 597 359 q 627 429 614 410 q 655 458 639 448 q 677 470 666 465 q 701 475 688 475 q 716 471 711 475 q 722 457 722 467 q 721 445 722 451 q 716 433 719 439 q 680 300 691 368 q 668 161 668 231 q 671 102 668 137 q 680 29 674 68 q 693 -50 685 -9 q 712 -127 701 -91 q 735 -194 722 -164 q 762 -241 747 -224 l 750 -245 q 650 -110 690 -185 q 591 49 610 -34 q 513 -89 559 -26 q 468 -137 493 -115 q 414 -176 443 -159 q 354 -201 386 -192 q 288 -210 323 -210 q 200 -192 238 -210 q 134 -145 161 -174 q 87 -78 106 -116 q 58 1 68 -40 q 42 83 47 42 q 37 160 37 125 q 52 326 37 239 q 94 499 66 414 q 163 664 122 585 q 257 802 204 742 q 374 897 310 861 q 513 932 439 932 q 596 917 559 932 q 661 876 634 903 q 703 812 688 849 q 718 729 718 774 m 486 1077 q 470 1036 486 1052 q 429 1020 453 1020 q 390 1036 407 1020 q 374 1077 374 1052 q 378 1098 374 1088 q 390 1116 382 1108 q 408 1128 398 1124 q 429 1133 418 1133 q 452 1128 441 1133 q 470 1116 462 1124 q 482 1098 477 1108 q 486 1077 486 1088 m 659 1077 q 642 1036 659 1052 q 602 1020 625 1020 q 563 1036 579 1020 q 546 1077 546 1052 q 550 1098 546 1088 q 563 1116 555 1108 q 580 1128 570 1124 q 602 1133 590 1133 q 624 1128 614 1133 q 642 1116 634 1124 q 654 1098 650 1108 q 659 1077 659 1088 z "},"":{"ha":498,"x_min":37,"x_max":566,"o":"m 354 355 q 349 342 354 348 q 336 336 343 336 q 323 340 330 336 q 308 349 316 344 q 288 357 299 353 q 262 361 277 361 q 203 340 229 361 q 159 289 177 319 q 132 224 141 258 q 122 161 122 189 q 125 123 122 142 q 137 89 129 104 q 161 65 146 74 q 199 56 176 56 q 245 65 223 56 q 288 89 268 74 q 295 135 288 111 q 311 182 301 159 q 335 227 321 205 q 362 264 348 248 l 371 258 q 360 211 363 235 q 357 163 357 186 q 361 117 357 138 q 375 79 365 95 q 403 54 385 63 q 448 45 420 45 q 511 60 482 45 q 561 100 539 76 l 566 97 q 534 52 554 73 q 491 13 515 30 q 439 -15 467 -5 q 386 -25 412 -25 q 325 -4 349 -25 q 292 50 301 18 q 229 2 264 22 q 155 -17 194 -17 q 105 -6 127 -17 q 68 22 83 4 q 45 63 53 39 q 37 114 37 87 q 47 177 37 144 q 74 240 57 209 q 115 299 92 271 q 167 348 139 327 q 227 381 195 369 q 290 393 258 393 q 309 392 298 393 q 330 386 319 390 q 347 374 340 382 q 354 355 354 367 m 256 544 q 239 503 256 519 q 199 487 222 487 q 160 503 176 487 q 143 544 143 519 q 148 565 143 555 q 160 583 152 575 q 177 595 168 591 q 199 600 187 600 q 221 595 211 600 q 239 583 231 591 q 251 565 247 575 q 256 544 256 555 m 428 544 q 411 503 428 519 q 371 487 395 487 q 332 503 349 487 q 315 544 315 519 q 320 565 315 555 q 332 583 324 575 q 350 595 340 591 q 371 600 359 600 q 393 595 383 600 q 411 583 404 591 q 424 565 419 575 q 428 544 428 555 z "},"":{"ha":776,"x_min":37,"x_max":762,"o":"m 718 729 q 713 692 718 713 q 697 651 707 671 q 671 617 686 631 q 635 603 655 603 q 621 610 624 603 q 618 627 618 618 q 623 683 618 655 q 627 741 627 711 q 623 798 627 770 q 605 848 618 826 q 570 883 593 869 q 512 896 547 896 q 418 872 461 896 q 339 808 375 848 q 275 713 304 767 q 224 599 246 659 q 185 475 201 538 q 159 353 170 412 q 144 243 149 294 q 139 155 139 192 q 142 86 139 123 q 153 14 145 50 q 174 -54 161 -22 q 206 -112 186 -87 q 253 -151 226 -136 q 317 -165 281 -165 q 412 -144 371 -165 q 486 -88 454 -123 q 542 -7 518 -53 q 583 87 565 39 q 577 135 579 111 q 575 183 575 159 q 576 223 575 199 q 581 275 578 248 q 591 331 585 302 q 606 384 597 359 q 627 429 614 410 q 655 458 639 448 q 677 470 666 465 q 701 475 688 475 q 716 471 711 475 q 722 457 722 467 q 721 445 722 451 q 716 433 719 439 q 680 300 691 368 q 668 161 668 231 q 671 102 668 137 q 680 29 674 68 q 693 -50 685 -9 q 712 -127 701 -91 q 735 -194 722 -164 q 762 -241 747 -224 l 750 -245 q 650 -110 690 -185 q 591 49 610 -34 q 513 -89 559 -26 q 468 -137 493 -115 q 414 -176 443 -159 q 354 -201 386 -192 q 288 -210 323 -210 q 200 -192 238 -210 q 134 -145 161 -174 q 87 -78 106 -116 q 58 1 68 -40 q 42 83 47 42 q 37 160 37 125 q 52 326 37 239 q 94 499 66 414 q 163 664 122 585 q 257 802 204 742 q 374 897 310 861 q 513 932 439 932 q 596 917 559 932 q 661 876 634 903 q 703 812 688 849 q 718 729 718 774 m 412 1074 q 420 1115 412 1096 q 443 1148 429 1134 q 476 1171 457 1162 q 517 1179 495 1179 q 557 1171 538 1179 q 591 1148 576 1162 q 613 1115 605 1134 q 621 1074 621 1096 q 613 1034 621 1053 q 591 1000 605 1015 q 557 978 576 986 q 517 970 538 970 q 476 978 495 970 q 443 1000 457 986 q 420 1034 429 1015 q 412 1074 412 1053 m 467 1074 q 482 1039 467 1054 q 517 1025 496 1025 q 552 1039 537 1025 q 566 1074 566 1054 q 552 1109 566 1095 q 517 1124 537 1124 q 482 1109 496 1124 q 467 1074 467 1095 z "},"":{"ha":498,"x_min":37,"x_max":566,"o":"m 354 355 q 349 342 354 348 q 336 336 343 336 q 323 340 330 336 q 308 349 316 344 q 288 357 299 353 q 262 361 277 361 q 203 340 229 361 q 159 289 177 319 q 132 224 141 258 q 122 161 122 189 q 125 123 122 142 q 137 89 129 104 q 161 65 146 74 q 199 56 176 56 q 245 65 223 56 q 288 89 268 74 q 295 135 288 111 q 311 182 301 159 q 335 227 321 205 q 362 264 348 248 l 371 258 q 360 211 363 235 q 357 163 357 186 q 361 117 357 138 q 375 79 365 95 q 403 54 385 63 q 448 45 420 45 q 511 60 482 45 q 561 100 539 76 l 566 97 q 534 52 554 73 q 491 13 515 30 q 439 -15 467 -5 q 386 -25 412 -25 q 325 -4 349 -25 q 292 50 301 18 q 229 2 264 22 q 155 -17 194 -17 q 105 -6 127 -17 q 68 22 83 4 q 45 63 53 39 q 37 114 37 87 q 47 177 37 144 q 74 240 57 209 q 115 299 92 271 q 167 348 139 327 q 227 381 195 369 q 290 393 258 393 q 309 392 298 393 q 330 386 319 390 q 347 374 340 382 q 354 355 354 367 m 181 544 q 189 585 181 566 q 212 618 197 604 q 245 640 226 632 q 286 648 264 648 q 326 640 307 648 q 359 618 345 632 q 382 585 374 604 q 390 544 390 566 q 382 503 390 522 q 359 470 374 484 q 326 448 345 456 q 286 439 307 439 q 245 448 264 439 q 212 470 226 456 q 189 503 197 484 q 181 544 181 522 m 236 544 q 251 509 236 524 q 286 494 265 494 q 320 509 306 494 q 335 544 335 524 q 320 579 335 564 q 286 593 306 593 q 251 579 265 593 q 236 544 236 564 z "},"":{"ha":1341,"x_min":22,"x_max":1375,"o":"m 669 -245 q 595 -127 623 -188 q 553 -1 568 -66 q 513 -78 536 -41 q 457 -145 489 -116 q 383 -192 425 -174 q 288 -210 341 -210 q 199 -194 238 -210 q 130 -152 159 -178 q 80 -91 100 -125 q 46 -18 59 -56 q 28 59 34 20 q 22 134 22 98 q 41 306 22 215 q 95 485 60 396 q 179 654 130 574 q 288 797 229 735 q 417 895 348 859 q 561 932 486 932 q 642 918 605 932 q 705 879 678 904 q 748 818 732 854 q 766 740 764 783 q 848 819 802 783 q 945 881 894 854 q 1050 921 996 907 q 1159 936 1105 936 q 1242 927 1202 936 q 1311 897 1281 918 q 1357 842 1340 876 q 1375 760 1375 808 q 1359 672 1375 711 q 1316 604 1343 634 q 1252 553 1289 574 q 1175 516 1216 531 q 1092 493 1135 501 q 1008 481 1048 484 l 1008 493 q 1100 534 1053 509 q 1187 595 1148 560 q 1252 674 1226 630 q 1277 772 1277 719 q 1245 865 1277 831 q 1154 900 1213 900 q 1061 885 1107 900 q 972 845 1015 871 q 894 783 930 819 q 831 706 858 748 q 790 619 805 665 q 774 526 774 573 q 795 433 774 475 q 850 357 817 390 q 928 301 884 323 q 1016 267 971 278 l 1016 254 q 970 231 995 245 q 921 196 945 216 q 873 152 896 176 q 833 100 850 127 q 805 44 815 73 q 794 -16 794 14 q 833 -136 794 -95 q 951 -176 872 -176 q 1035 -164 995 -176 q 1111 -131 1076 -153 q 1175 -77 1145 -109 q 1225 -8 1204 -46 l 1234 -12 q 1181 -105 1216 -61 q 1101 -182 1147 -149 q 1002 -235 1056 -216 q 891 -254 948 -254 q 810 -241 847 -254 q 745 -203 772 -229 q 703 -141 718 -178 q 687 -56 687 -104 q 745 115 687 41 q 916 237 802 189 q 828 250 869 237 q 756 287 788 263 q 702 344 724 311 q 670 420 680 378 q 650 362 659 390 q 634 300 641 334 q 624 225 627 267 q 621 127 621 183 q 623 42 621 90 q 633 -58 626 -7 q 651 -157 640 -109 q 681 -241 663 -205 l 669 -245 m 662 492 q 667 548 662 520 q 683 603 673 575 q 668 610 671 603 q 665 627 665 618 q 670 683 665 655 q 675 741 675 711 q 670 798 675 770 q 653 848 665 826 q 617 883 640 869 q 559 896 595 896 q 464 872 509 896 q 379 808 418 848 q 307 713 340 767 q 248 599 274 659 q 201 475 221 538 q 166 353 180 412 q 146 243 153 294 q 139 155 139 192 q 142 86 139 123 q 153 14 145 50 q 174 -54 161 -22 q 206 -112 186 -87 q 253 -151 226 -136 q 317 -165 281 -165 q 395 -148 361 -165 q 458 -100 430 -130 q 507 -31 486 -71 q 543 53 528 9 q 536 117 538 85 q 534 183 534 149 q 536 223 534 199 q 541 275 537 248 q 550 331 544 302 q 565 384 556 359 q 586 429 574 410 q 614 458 598 448 q 637 470 625 465 q 663 475 648 475 q 662 483 662 479 q 662 492 662 487 z "},"":{"ha":680,"x_min":37,"x_max":755,"o":"m 755 97 q 712 49 737 71 q 658 10 688 26 q 596 -16 629 -6 q 532 -25 564 -25 q 464 -18 496 -25 q 405 4 432 -11 q 358 40 378 18 q 326 91 338 62 q 292 50 311 70 q 251 16 273 31 q 205 -8 229 1 q 155 -17 181 -17 q 105 -6 127 -17 q 68 22 83 4 q 45 63 53 39 q 37 114 37 87 q 47 177 37 144 q 74 240 57 209 q 115 299 92 271 q 167 348 139 327 q 227 381 195 369 q 290 393 258 393 q 309 392 298 393 q 330 386 319 390 q 347 374 340 382 q 354 355 354 367 q 349 342 354 348 q 336 336 343 336 q 323 340 330 336 q 308 349 316 344 q 288 357 299 353 q 262 361 277 361 q 203 340 229 361 q 159 289 177 319 q 132 224 141 258 q 122 161 122 189 q 125 123 122 142 q 137 89 129 104 q 161 65 146 74 q 199 56 176 56 q 264 74 234 56 q 318 117 294 92 q 312 171 312 142 q 330 262 312 220 q 379 336 348 304 q 454 386 411 368 q 545 404 496 404 q 588 398 568 404 q 623 379 608 391 q 647 348 638 366 q 655 306 655 330 q 644 256 655 277 q 613 218 632 234 q 570 191 594 201 q 520 173 546 180 q 468 163 494 166 q 422 160 443 160 l 406 160 q 454 66 414 98 q 565 33 494 33 q 663 51 615 33 q 749 100 711 68 l 755 97 m 420 180 q 471 188 445 180 q 517 211 496 196 q 551 249 538 227 q 565 300 565 271 q 553 346 565 328 q 512 364 541 364 q 461 346 482 364 q 428 300 441 328 q 409 240 415 273 q 404 180 404 208 l 420 180 z "},"":{"ha":1341,"x_min":22,"x_max":1375,"o":"m 669 -245 q 595 -127 623 -188 q 553 -1 568 -66 q 513 -78 536 -41 q 457 -145 489 -116 q 383 -192 425 -174 q 288 -210 341 -210 q 199 -194 238 -210 q 130 -152 159 -178 q 80 -91 100 -125 q 46 -18 59 -56 q 28 59 34 20 q 22 134 22 98 q 41 306 22 215 q 95 485 60 396 q 179 654 130 574 q 288 797 229 735 q 417 895 348 859 q 561 932 486 932 q 642 918 605 932 q 705 879 678 904 q 748 818 732 854 q 766 740 764 783 q 848 819 802 783 q 945 881 894 854 q 1050 921 996 907 q 1159 936 1105 936 q 1242 927 1202 936 q 1311 897 1281 918 q 1357 842 1340 876 q 1375 760 1375 808 q 1359 672 1375 711 q 1316 604 1343 634 q 1252 553 1289 574 q 1175 516 1216 531 q 1092 493 1135 501 q 1008 481 1048 484 l 1008 493 q 1100 534 1053 509 q 1187 595 1148 560 q 1252 674 1226 630 q 1277 772 1277 719 q 1245 865 1277 831 q 1154 900 1213 900 q 1061 885 1107 900 q 972 845 1015 871 q 894 783 930 819 q 831 706 858 748 q 790 619 805 665 q 774 526 774 573 q 795 433 774 475 q 850 357 817 390 q 928 301 884 323 q 1016 267 971 278 l 1016 254 q 970 231 995 245 q 921 196 945 216 q 873 152 896 176 q 833 100 850 127 q 805 44 815 73 q 794 -16 794 14 q 833 -136 794 -95 q 951 -176 872 -176 q 1035 -164 995 -176 q 1111 -131 1076 -153 q 1175 -77 1145 -109 q 1225 -8 1204 -46 l 1234 -12 q 1181 -105 1216 -61 q 1101 -182 1147 -149 q 1002 -235 1056 -216 q 891 -254 948 -254 q 810 -241 847 -254 q 745 -203 772 -229 q 703 -141 718 -178 q 687 -56 687 -104 q 745 115 687 41 q 916 237 802 189 q 828 250 869 237 q 756 287 788 263 q 702 344 724 311 q 670 420 680 378 q 650 362 659 390 q 634 300 641 334 q 624 225 627 267 q 621 127 621 183 q 623 42 621 90 q 633 -58 626 -7 q 651 -157 640 -109 q 681 -241 663 -205 l 669 -245 m 662 492 q 667 548 662 520 q 683 603 673 575 q 668 610 671 603 q 665 627 665 618 q 670 683 665 655 q 675 741 675 711 q 670 798 675 770 q 653 848 665 826 q 617 883 640 869 q 559 896 595 896 q 464 872 509 896 q 379 808 418 848 q 307 713 340 767 q 248 599 274 659 q 201 475 221 538 q 166 353 180 412 q 146 243 153 294 q 139 155 139 192 q 142 86 139 123 q 153 14 145 50 q 174 -54 161 -22 q 206 -112 186 -87 q 253 -151 226 -136 q 317 -165 281 -165 q 395 -148 361 -165 q 458 -100 430 -130 q 507 -31 486 -71 q 543 53 528 9 q 536 117 538 85 q 534 183 534 149 q 536 223 534 199 q 541 275 537 248 q 550 331 544 302 q 565 384 556 359 q 586 429 574 410 q 614 458 598 448 q 637 470 625 465 q 663 475 648 475 q 662 483 662 479 q 662 492 662 487 m 769 982 q 809 1031 790 1006 q 845 1081 828 1055 q 876 1137 862 1107 q 902 1200 890 1166 l 989 1142 q 895 1044 947 1084 q 777 972 843 1004 l 769 982 z "},"":{"ha":680,"x_min":37,"x_max":755,"o":"m 755 97 q 712 49 737 71 q 658 10 688 26 q 596 -16 629 -6 q 532 -25 564 -25 q 464 -18 496 -25 q 405 4 432 -11 q 358 40 378 18 q 326 91 338 62 q 292 50 311 70 q 251 16 273 31 q 205 -8 229 1 q 155 -17 181 -17 q 105 -6 127 -17 q 68 22 83 4 q 45 63 53 39 q 37 114 37 87 q 47 177 37 144 q 74 240 57 209 q 115 299 92 271 q 167 348 139 327 q 227 381 195 369 q 290 393 258 393 q 309 392 298 393 q 330 386 319 390 q 347 374 340 382 q 354 355 354 367 q 349 342 354 348 q 336 336 343 336 q 323 340 330 336 q 308 349 316 344 q 288 357 299 353 q 262 361 277 361 q 203 340 229 361 q 159 289 177 319 q 132 224 141 258 q 122 161 122 189 q 125 123 122 142 q 137 89 129 104 q 161 65 146 74 q 199 56 176 56 q 264 74 234 56 q 318 117 294 92 q 312 171 312 142 q 330 262 312 220 q 379 336 348 304 q 454 386 411 368 q 545 404 496 404 q 588 398 568 404 q 623 379 608 391 q 647 348 638 366 q 655 306 655 330 q 644 256 655 277 q 613 218 632 234 q 570 191 594 201 q 520 173 546 180 q 468 163 494 166 q 422 160 443 160 l 406 160 q 454 66 414 98 q 565 33 494 33 q 663 51 615 33 q 749 100 711 68 l 755 97 m 420 180 q 471 188 445 180 q 517 211 496 196 q 551 249 538 227 q 565 300 565 271 q 553 346 565 328 q 512 364 541 364 q 461 346 482 364 q 428 300 441 328 q 409 240 415 273 q 404 180 404 208 l 420 180 m 355 455 q 395 504 376 479 q 431 554 414 528 q 462 610 448 581 q 488 673 476 639 l 574 615 q 480 517 532 557 q 362 446 429 477 l 355 455 z "},"":{"ha":776,"x_min":37,"x_max":762,"o":"m 718 729 q 713 692 718 713 q 697 651 707 671 q 671 617 686 631 q 635 603 655 603 q 621 610 624 603 q 618 627 618 618 q 623 683 618 655 q 627 741 627 711 q 623 798 627 770 q 605 848 618 826 q 570 883 593 869 q 512 896 547 896 q 418 872 461 896 q 339 808 375 848 q 275 713 304 767 q 224 599 246 659 q 185 475 201 538 q 159 353 170 412 q 144 243 149 294 q 139 155 139 192 q 142 86 139 123 q 153 14 145 50 q 174 -54 161 -22 q 206 -112 186 -87 q 253 -151 226 -136 q 317 -165 281 -165 q 412 -144 371 -165 q 486 -88 454 -123 q 542 -7 518 -53 q 583 87 565 39 q 577 135 579 111 q 575 183 575 159 q 576 223 575 199 q 581 275 578 248 q 591 331 585 302 q 606 384 597 359 q 627 429 614 410 q 655 458 639 448 q 677 470 666 465 q 701 475 688 475 q 716 471 711 475 q 722 457 722 467 q 721 445 722 451 q 716 433 719 439 q 680 300 691 368 q 668 161 668 231 q 671 102 668 137 q 680 29 674 68 q 693 -50 685 -9 q 712 -127 701 -91 q 735 -194 722 -164 q 762 -241 747 -224 l 750 -245 q 650 -110 690 -185 q 591 49 610 -34 q 513 -89 559 -26 q 468 -137 493 -115 q 414 -176 443 -159 q 354 -201 386 -192 q 288 -210 323 -210 q 200 -192 238 -210 q 134 -145 161 -174 q 87 -78 106 -116 q 58 1 68 -40 q 42 83 47 42 q 37 160 37 125 q 52 326 37 239 q 94 499 66 414 q 163 664 122 585 q 257 802 204 742 q 374 897 310 861 q 513 932 439 932 q 596 917 559 932 q 661 876 634 903 q 703 812 688 849 q 718 729 718 774 m 391 1103 l 642 1103 l 642 1031 l 391 1031 l 391 1103 z "},"":{"ha":498,"x_min":37,"x_max":566,"o":"m 354 355 q 349 342 354 348 q 336 336 343 336 q 323 340 330 336 q 308 349 316 344 q 288 357 299 353 q 262 361 277 361 q 203 340 229 361 q 159 289 177 319 q 132 224 141 258 q 122 161 122 189 q 125 123 122 142 q 137 89 129 104 q 161 65 146 74 q 199 56 176 56 q 245 65 223 56 q 288 89 268 74 q 295 135 288 111 q 311 182 301 159 q 335 227 321 205 q 362 264 348 248 l 371 258 q 360 211 363 235 q 357 163 357 186 q 361 117 357 138 q 375 79 365 95 q 403 54 385 63 q 448 45 420 45 q 511 60 482 45 q 561 100 539 76 l 566 97 q 534 52 554 73 q 491 13 515 30 q 439 -15 467 -5 q 386 -25 412 -25 q 325 -4 349 -25 q 292 50 301 18 q 229 2 264 22 q 155 -17 194 -17 q 105 -6 127 -17 q 68 22 83 4 q 45 63 53 39 q 37 114 37 87 q 47 177 37 144 q 74 240 57 209 q 115 299 92 271 q 167 348 139 327 q 227 381 195 369 q 290 393 258 393 q 309 392 298 393 q 330 386 319 390 q 347 374 340 382 q 354 355 354 367 m 160 570 l 411 570 l 411 498 l 160 498 l 160 570 z "},"":{"ha":776,"x_min":37,"x_max":762,"o":"m 718 729 q 713 692 718 713 q 697 651 707 671 q 671 617 686 631 q 635 603 655 603 q 621 610 624 603 q 618 627 618 618 q 623 683 618 655 q 627 741 627 711 q 623 798 627 770 q 605 848 618 826 q 570 883 593 869 q 512 896 547 896 q 418 872 461 896 q 339 808 375 848 q 275 713 304 767 q 224 599 246 659 q 185 475 201 538 q 159 353 170 412 q 144 243 149 294 q 139 155 139 192 q 142 86 139 123 q 153 14 145 50 q 174 -54 161 -22 q 206 -112 186 -87 q 253 -151 226 -136 q 317 -165 281 -165 q 412 -144 371 -165 q 486 -88 454 -123 q 542 -7 518 -53 q 583 87 565 39 q 577 135 579 111 q 575 183 575 159 q 576 223 575 199 q 581 275 578 248 q 591 331 585 302 q 606 384 597 359 q 627 429 614 410 q 655 458 639 448 q 677 470 666 465 q 701 475 688 475 q 716 471 711 475 q 722 457 722 467 q 721 445 722 451 q 716 433 719 439 q 680 300 691 368 q 668 161 668 231 q 671 102 668 137 q 680 29 674 68 q 693 -50 685 -9 q 712 -127 701 -91 q 735 -194 722 -164 q 762 -241 747 -224 l 750 -245 q 650 -110 690 -185 q 591 49 610 -34 q 513 -89 559 -26 q 468 -137 493 -115 q 414 -176 443 -159 q 354 -201 386 -192 q 288 -210 323 -210 q 200 -192 238 -210 q 134 -145 161 -174 q 87 -78 106 -116 q 58 1 68 -40 q 42 83 47 42 q 37 160 37 125 q 52 326 37 239 q 94 499 66 414 q 163 664 122 585 q 257 802 204 742 q 374 897 310 861 q 513 932 439 932 q 596 917 559 932 q 661 876 634 903 q 703 812 688 849 q 718 729 718 774 m 516 986 q 438 1003 469 986 q 390 1045 408 1020 q 365 1099 372 1070 q 357 1149 357 1127 l 375 1149 q 385 1127 378 1141 q 408 1098 392 1112 q 449 1073 423 1084 q 516 1062 475 1062 q 582 1072 557 1062 q 622 1096 606 1082 q 645 1124 637 1109 q 659 1149 653 1139 l 675 1149 q 666 1099 673 1128 q 642 1046 659 1071 q 594 1003 624 1021 q 516 986 564 986 z "},"":{"ha":498,"x_min":37,"x_max":566,"o":"m 354 355 q 349 342 354 348 q 336 336 343 336 q 323 340 330 336 q 308 349 316 344 q 288 357 299 353 q 262 361 277 361 q 203 340 229 361 q 159 289 177 319 q 132 224 141 258 q 122 161 122 189 q 125 123 122 142 q 137 89 129 104 q 161 65 146 74 q 199 56 176 56 q 245 65 223 56 q 288 89 268 74 q 295 135 288 111 q 311 182 301 159 q 335 227 321 205 q 362 264 348 248 l 371 258 q 360 211 363 235 q 357 163 357 186 q 361 117 357 138 q 375 79 365 95 q 403 54 385 63 q 448 45 420 45 q 511 60 482 45 q 561 100 539 76 l 566 97 q 534 52 554 73 q 491 13 515 30 q 439 -15 467 -5 q 386 -25 412 -25 q 325 -4 349 -25 q 292 50 301 18 q 229 2 264 22 q 155 -17 194 -17 q 105 -6 127 -17 q 68 22 83 4 q 45 63 53 39 q 37 114 37 87 q 47 177 37 144 q 74 240 57 209 q 115 299 92 271 q 167 348 139 327 q 227 381 195 369 q 290 393 258 393 q 309 392 298 393 q 330 386 319 390 q 347 374 340 382 q 354 355 354 367 m 286 453 q 208 470 238 453 q 159 512 177 487 q 134 566 141 537 q 126 616 127 594 l 144 616 q 154 594 147 608 q 177 565 161 579 q 219 540 193 551 q 286 529 245 529 q 351 539 326 529 q 391 563 376 549 q 414 591 406 576 q 429 616 422 606 l 444 616 q 436 566 443 595 q 411 513 429 538 q 363 470 393 488 q 286 453 333 453 z "},"":{"ha":776,"x_min":37,"x_max":804,"o":"m 741 -212 q 704 -240 718 -224 q 682 -270 690 -255 q 672 -299 674 -286 q 669 -320 669 -312 q 673 -341 669 -331 q 683 -359 676 -351 q 700 -373 690 -368 q 725 -378 711 -378 q 755 -371 739 -378 q 794 -345 772 -364 l 804 -352 q 786 -378 797 -366 q 762 -401 776 -391 q 732 -418 749 -412 q 698 -425 716 -425 q 666 -420 682 -425 q 637 -405 650 -415 q 615 -380 624 -395 q 607 -345 607 -366 q 616 -304 607 -323 q 641 -267 625 -284 q 675 -235 656 -250 q 715 -208 694 -220 q 638 -86 670 -152 q 591 49 607 -21 q 513 -89 559 -26 q 468 -137 493 -115 q 414 -176 443 -159 q 354 -201 386 -192 q 288 -210 323 -210 q 200 -192 238 -210 q 134 -145 161 -174 q 87 -78 106 -116 q 58 1 68 -40 q 42 83 47 42 q 37 160 37 125 q 52 326 37 239 q 94 499 66 414 q 163 664 122 585 q 257 802 204 742 q 374 897 310 861 q 513 932 439 932 q 596 917 559 932 q 661 876 634 903 q 703 812 688 849 q 718 729 718 774 q 713 692 718 713 q 697 651 707 671 q 671 617 686 631 q 635 603 655 603 q 621 610 624 603 q 618 627 618 618 q 623 683 618 655 q 627 741 627 711 q 623 798 627 770 q 605 848 618 826 q 570 883 593 869 q 512 896 547 896 q 418 872 461 896 q 339 808 375 848 q 275 713 304 767 q 224 599 246 659 q 185 475 201 538 q 159 353 170 412 q 144 243 149 294 q 139 155 139 192 q 142 86 139 123 q 153 14 145 50 q 174 -54 161 -22 q 206 -112 186 -87 q 253 -151 226 -136 q 317 -165 281 -165 q 412 -144 371 -165 q 486 -88 454 -123 q 542 -7 518 -53 q 583 87 565 39 q 577 135 579 111 q 575 183 575 159 q 576 223 575 199 q 581 275 578 248 q 591 331 585 302 q 606 384 597 359 q 627 429 614 410 q 655 458 639 448 q 677 470 666 465 q 701 475 688 475 q 716 471 711 475 q 722 457 722 467 q 721 445 722 451 q 716 433 719 439 q 680 300 691 368 q 668 161 668 231 q 673 79 668 129 q 687 -23 677 30 q 709 -127 696 -77 q 741 -212 723 -178 z "},"":{"ha":498,"x_min":37,"x_max":566,"o":"m 354 355 q 349 342 354 348 q 336 336 343 336 q 323 340 330 336 q 308 349 316 344 q 288 357 299 353 q 262 361 277 361 q 203 340 229 361 q 159 289 177 319 q 132 224 141 258 q 122 161 122 189 q 125 123 122 142 q 137 89 129 104 q 161 65 146 74 q 199 56 176 56 q 245 65 223 56 q 288 89 268 74 q 295 135 288 111 q 311 182 301 159 q 335 227 321 205 q 362 264 348 248 l 371 258 q 360 211 363 235 q 357 163 357 186 q 361 117 357 138 q 375 79 365 95 q 403 54 385 63 q 448 45 420 45 q 511 60 482 45 q 561 100 539 76 l 566 97 q 514 33 547 60 q 443 -17 481 7 q 411 -43 424 -28 q 391 -71 399 -57 q 381 -98 384 -85 q 378 -119 378 -111 q 381 -140 378 -130 q 391 -159 385 -151 q 409 -172 398 -167 q 433 -177 419 -177 q 464 -170 447 -177 q 503 -144 481 -163 l 512 -151 q 495 -178 505 -165 q 471 -201 484 -191 q 441 -217 457 -211 q 406 -224 425 -224 q 375 -219 391 -224 q 346 -204 359 -214 q 324 -180 332 -195 q 315 -144 315 -165 q 341 -77 315 -108 q 408 -22 367 -46 q 397 -24 406 -23 q 386 -25 388 -25 q 325 -4 349 -25 q 292 50 301 18 q 229 2 264 22 q 155 -17 194 -17 q 105 -6 127 -17 q 68 22 83 4 q 45 63 53 39 q 37 114 37 87 q 47 177 37 144 q 74 240 57 209 q 115 299 92 271 q 167 348 139 327 q 227 381 195 369 q 290 393 258 393 q 309 392 298 393 q 330 386 319 390 q 347 374 340 382 q 354 355 354 367 z "},"":{"ha":766,"x_min":34,"x_max":780,"o":"m 315 -165 q 189 -118 242 -154 q 101 -29 136 -82 q 50 90 66 24 q 34 229 34 156 q 50 385 34 303 q 96 545 65 466 q 171 694 126 623 q 273 819 215 765 q 400 904 330 873 q 552 936 471 936 q 645 921 603 936 q 717 879 687 907 q 764 811 747 851 q 780 718 780 770 q 762 627 780 669 q 712 548 743 584 q 641 484 682 513 q 555 436 600 456 q 464 407 511 417 q 376 396 418 396 l 372 396 l 372 410 q 490 447 433 417 q 592 524 547 477 q 663 628 636 570 q 690 750 690 686 q 681 813 690 785 q 653 861 671 841 q 608 892 635 881 q 545 903 581 903 q 414 872 473 903 q 310 790 355 841 q 232 672 264 739 q 177 534 199 606 q 146 390 156 462 q 136 256 136 317 q 151 123 136 187 q 199 9 165 59 q 287 -70 233 -40 q 420 -99 342 -99 q 491 -85 457 -99 q 555 -50 525 -72 q 609 1 585 -27 q 650 60 633 30 l 658 56 q 617 -26 644 14 q 554 -98 591 -66 q 473 -150 518 -130 q 378 -170 429 -170 q 338 -168 357 -170 l 330 -204 q 355 -202 342 -202 q 388 -207 372 -202 q 415 -221 404 -212 q 433 -244 427 -231 q 440 -276 440 -258 q 431 -313 440 -297 q 407 -339 422 -328 q 375 -354 393 -349 q 338 -359 357 -359 q 300 -354 318 -359 q 266 -339 281 -348 q 237 -320 250 -331 q 217 -300 225 -310 l 226 -290 q 271 -313 250 -307 q 316 -319 291 -319 q 358 -309 342 -319 q 374 -277 374 -298 q 360 -250 374 -259 q 326 -241 345 -241 q 309 -243 317 -241 q 297 -245 301 -244 l 315 -165 z "},"":{"ha":395,"x_min":24,"x_max":463,"o":"m 182 -24 q 119 -5 148 -20 q 68 32 90 9 q 36 85 47 54 q 24 153 24 115 q 41 245 24 200 q 89 326 58 291 q 162 383 120 361 q 254 404 205 404 q 287 401 271 404 q 317 390 303 397 q 339 369 330 382 q 347 336 347 356 q 337 302 347 317 q 311 278 327 288 q 278 263 296 269 q 243 254 260 257 l 243 264 q 264 271 253 267 q 285 283 275 276 q 301 301 294 291 q 307 323 307 311 q 303 339 307 333 q 292 350 298 346 q 277 356 286 354 q 261 358 269 358 q 199 343 227 358 q 153 302 172 328 q 124 246 134 277 q 114 183 114 215 q 125 118 114 146 q 157 68 136 89 q 206 37 177 48 q 271 26 235 26 q 320 32 294 26 q 371 46 347 37 q 418 69 396 56 q 457 100 441 83 l 463 97 q 417 45 445 68 q 355 6 389 22 q 285 -18 321 -9 q 216 -26 249 -26 l 205 -26 l 198 -58 q 223 -56 210 -56 q 256 -60 241 -56 q 283 -75 272 -65 q 302 -98 295 -84 q 309 -130 309 -112 q 299 -166 309 -151 q 276 -192 290 -182 q 243 -208 261 -203 q 207 -213 225 -213 q 168 -207 186 -213 q 134 -193 150 -201 q 106 -174 118 -184 q 85 -153 94 -163 l 94 -143 q 139 -167 119 -161 q 184 -173 159 -173 q 227 -162 211 -173 q 243 -131 243 -152 q 228 -104 243 -113 q 195 -95 214 -95 q 178 -96 186 -95 q 165 -99 170 -98 l 182 -24 z "},"":{"ha":766,"x_min":34,"x_max":780,"o":"m 780 718 q 762 627 780 669 q 712 548 743 584 q 641 484 682 513 q 555 436 600 456 q 464 407 511 417 q 376 396 418 396 l 372 396 l 372 410 q 490 447 433 417 q 592 524 547 477 q 663 628 636 570 q 690 750 690 686 q 681 813 690 785 q 653 861 671 841 q 608 892 635 881 q 545 903 581 903 q 414 872 473 903 q 310 790 355 841 q 232 672 264 739 q 177 534 199 606 q 146 390 156 462 q 136 256 136 317 q 142 156 136 206 q 163 58 149 105 q 199 -30 177 12 q 253 -101 222 -71 q 326 -149 285 -132 q 420 -167 368 -167 q 491 -153 457 -167 q 555 -117 525 -140 q 609 -66 585 -95 q 650 -8 633 -38 l 658 -12 q 618 -95 646 -54 q 552 -167 591 -136 q 469 -218 514 -199 q 378 -237 424 -237 q 269 -219 318 -237 q 182 -167 220 -200 q 116 -90 144 -134 q 70 6 88 -45 q 43 115 52 58 q 34 229 34 172 q 50 385 34 303 q 96 545 65 466 q 171 694 126 623 q 273 819 215 765 q 400 904 330 873 q 552 936 471 936 q 645 921 603 936 q 717 879 687 907 q 764 811 747 851 q 780 718 780 770 m 473 986 q 513 1035 494 1010 q 549 1085 532 1059 q 580 1141 566 1112 q 606 1204 594 1170 l 692 1146 q 598 1048 650 1088 q 480 977 547 1008 l 473 986 z "},"":{"ha":395,"x_min":24,"x_max":463,"o":"m 463 97 q 417 45 445 68 q 355 6 389 22 q 285 -18 321 -9 q 216 -26 249 -26 q 140 -14 175 -26 q 79 21 105 -2 q 38 78 53 45 q 24 153 24 111 q 41 245 24 200 q 89 326 58 291 q 162 383 120 361 q 254 404 205 404 q 287 401 271 404 q 317 390 303 397 q 339 369 330 382 q 347 336 347 356 q 337 302 347 317 q 311 278 327 288 q 278 263 296 269 q 243 254 260 257 l 243 264 q 264 271 253 267 q 285 283 275 276 q 301 301 294 291 q 307 323 307 311 q 303 339 307 333 q 292 350 298 346 q 277 356 286 354 q 261 358 269 358 q 199 343 227 358 q 153 302 172 328 q 124 246 134 277 q 114 183 114 215 q 125 118 114 146 q 157 68 136 89 q 206 37 177 48 q 271 26 235 26 q 320 32 294 26 q 371 46 347 37 q 418 69 396 56 q 457 100 441 83 l 463 97 m 170 461 q 210 510 191 486 q 246 561 229 534 q 277 616 263 587 q 303 680 292 645 l 390 621 q 296 523 348 564 q 178 452 244 483 l 170 461 z "},"":{"ha":766,"x_min":34,"x_max":780,"o":"m 780 718 q 762 627 780 669 q 712 548 743 584 q 641 484 682 513 q 555 436 600 456 q 464 407 511 417 q 376 396 418 396 l 372 396 l 372 410 q 490 447 433 417 q 592 524 547 477 q 663 628 636 570 q 690 750 690 686 q 681 813 690 785 q 653 861 671 841 q 608 892 635 881 q 545 903 581 903 q 414 872 473 903 q 310 790 355 841 q 232 672 264 739 q 177 534 199 606 q 146 390 156 462 q 136 256 136 317 q 142 156 136 206 q 163 58 149 105 q 199 -30 177 12 q 253 -101 222 -71 q 326 -149 285 -132 q 420 -167 368 -167 q 491 -153 457 -167 q 555 -117 525 -140 q 609 -66 585 -95 q 650 -8 633 -38 l 658 -12 q 618 -95 646 -54 q 552 -167 591 -136 q 469 -218 514 -199 q 378 -237 424 -237 q 269 -219 318 -237 q 182 -167 220 -200 q 116 -90 144 -134 q 70 6 88 -45 q 43 115 52 58 q 34 229 34 172 q 50 385 34 303 q 96 545 65 466 q 171 694 126 623 q 273 819 215 765 q 400 904 330 873 q 552 936 471 936 q 645 921 603 936 q 717 879 687 907 q 764 811 747 851 q 780 718 780 770 m 391 986 q 430 1034 412 1010 q 466 1082 448 1057 q 501 1135 484 1107 q 537 1198 518 1163 l 578 1198 q 614 1135 597 1163 q 649 1082 631 1107 q 685 1034 667 1057 q 724 986 703 1010 l 717 977 q 674 1001 693 989 q 636 1026 654 1013 q 598 1055 617 1040 q 557 1088 579 1069 q 517 1055 536 1069 q 479 1026 498 1040 q 441 1001 460 1013 q 398 977 421 989 l 391 986 z "},"":{"ha":395,"x_min":24,"x_max":463,"o":"m 463 97 q 417 45 445 68 q 355 6 389 22 q 285 -18 321 -9 q 216 -26 249 -26 q 140 -14 175 -26 q 79 21 105 -2 q 38 78 53 45 q 24 153 24 111 q 41 245 24 200 q 89 326 58 291 q 162 383 120 361 q 254 404 205 404 q 287 401 271 404 q 317 390 303 397 q 339 369 330 382 q 347 336 347 356 q 337 302 347 317 q 311 278 327 288 q 278 263 296 269 q 243 254 260 257 l 243 264 q 264 271 253 267 q 285 283 275 276 q 301 301 294 291 q 307 323 307 311 q 303 339 307 333 q 292 350 298 346 q 277 356 286 354 q 261 358 269 358 q 199 343 227 358 q 153 302 172 328 q 124 246 134 277 q 114 183 114 215 q 125 118 114 146 q 157 68 136 89 q 206 37 177 48 q 271 26 235 26 q 320 32 294 26 q 371 46 347 37 q 418 69 396 56 q 457 100 441 83 l 463 97 m 88 461 q 127 509 109 486 q 163 557 146 532 q 198 610 181 582 q 235 673 216 638 l 275 673 q 312 610 294 638 q 347 557 329 582 q 382 509 364 532 q 422 461 401 486 l 414 452 q 371 476 391 464 q 333 502 352 488 q 296 530 315 515 q 255 563 277 545 q 214 530 233 545 q 177 501 195 515 q 138 476 158 488 q 96 452 119 464 l 88 461 z "},"":{"ha":766,"x_min":34,"x_max":780,"o":"m 780 718 q 762 627 780 669 q 712 548 743 584 q 641 484 682 513 q 555 436 600 456 q 464 407 511 417 q 376 396 418 396 l 372 396 l 372 410 q 490 447 433 417 q 592 524 547 477 q 663 628 636 570 q 690 750 690 686 q 681 813 690 785 q 653 861 671 841 q 608 892 635 881 q 545 903 581 903 q 414 872 473 903 q 310 790 355 841 q 232 672 264 739 q 177 534 199 606 q 146 390 156 462 q 136 256 136 317 q 142 156 136 206 q 163 58 149 105 q 199 -30 177 12 q 253 -101 222 -71 q 326 -149 285 -132 q 420 -167 368 -167 q 491 -153 457 -167 q 555 -117 525 -140 q 609 -66 585 -95 q 650 -8 633 -38 l 658 -12 q 618 -95 646 -54 q 552 -167 591 -136 q 469 -218 514 -199 q 378 -237 424 -237 q 269 -219 318 -237 q 182 -167 220 -200 q 116 -90 144 -134 q 70 6 88 -45 q 43 115 52 58 q 34 229 34 172 q 50 385 34 303 q 96 545 65 466 q 171 694 126 623 q 273 819 215 765 q 400 904 330 873 q 552 936 471 936 q 645 921 603 936 q 717 879 687 907 q 764 811 747 851 q 780 718 780 770 m 614 1081 q 598 1040 614 1056 q 557 1024 581 1024 q 518 1040 535 1024 q 502 1081 502 1056 q 506 1102 502 1092 q 518 1120 511 1112 q 536 1132 526 1128 q 557 1137 546 1137 q 580 1132 570 1137 q 598 1120 590 1128 q 610 1102 606 1112 q 614 1081 614 1092 z "},"":{"ha":395,"x_min":24,"x_max":463,"o":"m 463 97 q 417 45 445 68 q 355 6 389 22 q 285 -18 321 -9 q 216 -26 249 -26 q 140 -14 175 -26 q 79 21 105 -2 q 38 78 53 45 q 24 153 24 111 q 41 245 24 200 q 89 326 58 291 q 162 383 120 361 q 254 404 205 404 q 287 401 271 404 q 317 390 303 397 q 339 369 330 382 q 347 336 347 356 q 337 302 347 317 q 311 278 327 288 q 278 263 296 269 q 243 254 260 257 l 243 264 q 264 271 253 267 q 285 283 275 276 q 301 301 294 291 q 307 323 307 311 q 303 339 307 333 q 292 350 298 346 q 277 356 286 354 q 261 358 269 358 q 199 343 227 358 q 153 302 172 328 q 124 246 134 277 q 114 183 114 215 q 125 118 114 146 q 157 68 136 89 q 206 37 177 48 q 271 26 235 26 q 320 32 294 26 q 371 46 347 37 q 418 69 396 56 q 457 100 441 83 l 463 97 m 312 556 q 295 515 312 531 q 255 499 279 499 q 216 515 233 499 q 199 556 199 531 q 204 577 199 567 q 216 595 208 587 q 234 607 224 603 q 255 612 243 612 q 277 607 267 612 q 295 595 288 603 q 308 577 303 587 q 312 556 312 567 z "},"":{"ha":766,"x_min":34,"x_max":780,"o":"m 780 718 q 762 627 780 669 q 712 548 743 584 q 641 484 682 513 q 555 436 600 456 q 464 407 511 417 q 376 396 418 396 l 372 396 l 372 410 q 490 447 433 417 q 592 524 547 477 q 663 628 636 570 q 690 750 690 686 q 681 813 690 785 q 653 861 671 841 q 608 892 635 881 q 545 903 581 903 q 414 872 473 903 q 310 790 355 841 q 232 672 264 739 q 177 534 199 606 q 146 390 156 462 q 136 256 136 317 q 142 156 136 206 q 163 58 149 105 q 199 -30 177 12 q 253 -101 222 -71 q 326 -149 285 -132 q 420 -167 368 -167 q 491 -153 457 -167 q 555 -117 525 -140 q 609 -66 585 -95 q 650 -8 633 -38 l 658 -12 q 618 -95 646 -54 q 552 -167 591 -136 q 469 -218 514 -199 q 378 -237 424 -237 q 269 -219 318 -237 q 182 -167 220 -200 q 116 -90 144 -134 q 70 6 88 -45 q 43 115 52 58 q 34 229 34 172 q 50 385 34 303 q 96 545 65 466 q 171 694 126 623 q 273 819 215 765 q 400 904 330 873 q 552 936 471 936 q 645 921 603 936 q 717 879 687 907 q 764 811 747 851 q 780 718 780 770 m 398 1198 q 441 1174 421 1185 q 479 1148 460 1162 q 517 1120 498 1135 q 557 1086 536 1105 q 598 1120 579 1105 q 636 1148 617 1135 q 674 1173 654 1161 q 717 1198 693 1185 l 724 1188 q 685 1140 703 1164 q 649 1092 667 1117 q 614 1039 631 1067 q 578 977 597 1011 l 537 977 q 501 1039 518 1011 q 466 1092 484 1067 q 430 1140 448 1117 q 391 1188 412 1164 l 398 1198 z "},"":{"ha":395,"x_min":24,"x_max":463,"o":"m 463 97 q 417 45 445 68 q 355 6 389 22 q 285 -18 321 -9 q 216 -26 249 -26 q 140 -14 175 -26 q 79 21 105 -2 q 38 78 53 45 q 24 153 24 111 q 41 245 24 200 q 89 326 58 291 q 162 383 120 361 q 254 404 205 404 q 287 401 271 404 q 317 390 303 397 q 339 369 330 382 q 347 336 347 356 q 337 302 347 317 q 311 278 327 288 q 278 263 296 269 q 243 254 260 257 l 243 264 q 264 271 253 267 q 285 283 275 276 q 301 301 294 291 q 307 323 307 311 q 303 339 307 333 q 292 350 298 346 q 277 356 286 354 q 261 358 269 358 q 199 343 227 358 q 153 302 172 328 q 124 246 134 277 q 114 183 114 215 q 125 118 114 146 q 157 68 136 89 q 206 37 177 48 q 271 26 235 26 q 320 32 294 26 q 371 46 347 37 q 418 69 396 56 q 457 100 441 83 l 463 97 m 96 673 q 138 649 119 661 q 177 623 158 637 q 214 595 195 610 q 255 562 233 580 q 296 595 277 580 q 333 623 315 610 q 371 648 352 636 q 414 673 391 661 l 422 663 q 382 615 401 639 q 347 567 364 592 q 312 514 329 542 q 275 452 294 486 l 235 452 q 198 514 216 486 q 163 567 181 542 q 127 615 146 592 q 88 663 109 639 l 96 673 z "},"":{"ha":839,"x_min":20,"x_max":798,"o":"m 798 313 q 784 175 798 244 q 742 44 770 106 q 673 -73 714 -19 q 580 -166 633 -127 q 463 -229 528 -206 q 323 -252 398 -252 q 202 -234 256 -252 q 112 -180 149 -216 q 56 -94 75 -145 q 36 25 36 -42 q 38 73 36 49 q 45 119 40 96 l 56 121 l 56 111 q 74 -9 56 50 q 127 -114 92 -68 q 216 -187 163 -159 q 338 -215 269 -215 q 460 -188 407 -215 q 553 -117 513 -161 q 619 -14 592 -72 q 662 107 646 44 q 685 232 678 170 q 692 347 692 294 q 683 463 692 400 q 653 589 673 526 q 602 711 633 652 q 529 815 571 770 q 433 888 487 861 q 313 916 379 916 q 262 907 288 916 q 210 884 235 899 q 161 850 184 869 q 121 807 138 830 q 94 758 104 783 q 84 707 84 732 q 89 673 84 688 q 99 645 94 658 q 110 622 105 633 q 115 599 115 610 q 101 566 115 579 q 69 553 88 553 q 44 559 54 553 q 30 577 35 566 q 22 600 24 587 q 20 625 20 613 q 28 684 20 654 q 50 740 37 713 q 81 792 64 768 q 117 839 99 817 q 218 919 162 890 q 344 949 275 949 q 495 921 429 949 q 613 845 562 893 q 699 734 663 798 q 756 600 734 671 q 788 456 778 530 q 798 313 798 382 m 338 768 q 337 756 338 762 q 333 745 335 750 q 307 686 321 714 q 284 627 292 658 q 240 411 254 510 q 223 222 227 312 q 224 46 220 132 q 234 -129 229 -39 l 223 -134 q 194 -21 205 -79 q 175 98 182 38 q 165 219 168 159 q 162 336 162 279 q 163 401 162 363 q 168 482 164 439 q 178 570 171 526 q 196 654 184 615 q 225 724 208 694 q 268 770 243 755 q 292 782 279 776 q 317 787 304 787 q 338 768 338 787 m 194 1211 q 237 1187 217 1199 q 275 1162 256 1175 q 313 1133 294 1148 q 353 1100 332 1118 q 394 1133 375 1118 q 432 1161 413 1148 q 470 1187 450 1175 q 513 1211 489 1199 l 520 1202 q 481 1154 499 1177 q 445 1105 463 1131 q 410 1053 427 1080 q 374 990 393 1025 l 333 990 q 297 1053 314 1025 q 262 1105 279 1080 q 226 1154 244 1131 q 186 1202 208 1177 l 194 1211 z "},"":{"ha":699,"x_min":27,"x_max":741,"o":"m 662 97 q 635 57 651 75 q 598 26 618 39 q 555 7 578 14 q 507 0 532 0 q 417 26 454 0 q 355 93 380 52 q 314 53 336 73 q 268 17 292 33 q 216 -7 243 2 q 163 -17 190 -17 q 106 -4 132 -17 q 64 30 81 9 q 37 79 46 52 q 27 136 27 106 q 47 227 27 181 q 100 309 67 272 q 176 369 133 346 q 264 392 218 392 q 288 389 278 392 l 288 418 q 290 470 288 437 q 295 542 291 503 q 306 626 299 582 q 322 712 312 669 q 347 794 333 755 q 380 863 361 833 q 424 910 399 892 q 479 928 448 928 q 537 907 515 928 q 572 855 559 886 q 590 789 585 824 q 594 728 594 755 q 587 646 594 692 q 568 548 581 600 q 539 441 556 496 q 503 337 522 387 q 460 244 483 287 q 414 171 437 201 q 436 122 423 144 q 465 83 448 100 q 504 58 482 67 q 553 49 526 49 q 658 100 617 49 l 662 97 m 384 475 q 384 418 384 450 q 386 350 384 386 q 392 276 387 314 q 405 203 396 239 q 457 324 433 258 q 498 458 481 389 q 525 595 515 527 q 534 725 534 664 q 533 762 534 738 q 526 811 532 787 q 507 853 519 835 q 474 871 495 871 q 445 856 458 871 q 422 815 432 840 q 407 757 413 789 q 396 689 400 724 q 389 619 391 654 q 386 555 387 585 q 384 504 385 526 q 384 475 384 483 m 213 57 q 284 72 252 57 q 345 111 317 87 q 322 165 332 136 q 307 223 313 194 q 297 283 300 253 q 291 340 293 313 q 271 355 283 349 q 241 361 258 361 q 184 343 209 361 q 142 300 159 326 q 117 243 125 274 q 108 184 108 212 q 114 135 108 159 q 132 95 119 112 q 165 67 145 77 q 213 57 185 57 m 662 711 q 669 731 666 721 q 672 752 672 742 q 669 769 673 762 q 657 782 666 777 q 627 806 640 791 q 614 842 614 821 q 619 866 614 854 q 632 886 624 878 q 652 899 641 895 q 677 904 664 904 q 720 886 703 904 q 739 842 738 867 q 732 791 741 814 q 710 750 723 768 q 686 721 698 732 q 669 707 673 710 q 665 709 667 707 q 662 711 662 711 z "},"":{"ha":839,"x_min":0,"x_max":798,"o":"m 798 313 q 784 175 798 244 q 742 44 770 106 q 673 -73 714 -19 q 580 -166 633 -127 q 463 -229 528 -206 q 323 -252 398 -252 q 202 -234 256 -252 q 112 -180 149 -216 q 56 -94 75 -145 q 36 25 36 -42 q 38 73 36 49 q 45 119 40 96 l 56 121 l 56 111 q 74 -9 56 50 q 127 -114 92 -68 q 216 -187 163 -159 q 338 -215 269 -215 q 460 -188 407 -215 q 553 -117 513 -161 q 619 -14 592 -72 q 662 107 646 44 q 685 232 678 170 q 692 347 692 294 q 683 463 692 400 q 653 589 673 526 q 602 711 633 652 q 529 815 571 770 q 433 888 487 861 q 313 916 379 916 q 262 907 288 916 q 210 884 235 899 q 161 850 184 869 q 121 807 138 830 q 94 758 104 783 q 84 707 84 732 q 89 673 84 688 q 99 645 94 658 q 110 622 105 633 q 115 599 115 610 q 101 566 115 579 q 69 553 88 553 q 44 559 54 553 q 30 577 35 566 q 22 600 24 587 q 20 625 20 613 q 28 684 20 654 q 50 740 37 713 q 81 792 64 768 q 117 839 99 817 q 218 919 162 890 q 344 949 275 949 q 495 921 429 949 q 613 845 562 893 q 699 734 663 798 q 756 600 734 671 q 788 456 778 530 q 798 313 798 382 m 477 328 q 449 330 464 330 q 420 330 433 330 q 328 328 377 330 q 229 319 279 325 q 223 203 224 260 q 223 92 222 147 q 228 -17 224 37 q 234 -129 231 -72 l 223 -134 q 195 -27 206 -83 q 176 85 183 28 q 166 199 169 142 q 162 311 163 256 q 103 302 132 307 q 50 292 75 298 q 43 292 46 292 q 38 292 41 292 q 10 302 20 292 q 0 324 0 313 q 18 353 0 343 q 61 367 36 363 q 113 371 86 371 q 157 372 140 372 l 162 372 q 164 439 163 401 q 171 516 166 477 q 182 595 175 556 q 201 669 189 635 q 229 730 213 703 q 268 770 245 756 q 292 782 279 776 q 317 787 304 787 q 338 768 338 787 q 337 756 338 762 q 333 745 335 750 q 307 686 321 714 q 284 627 292 658 q 254 492 266 555 q 235 370 242 429 q 301 367 267 369 q 369 361 336 365 q 432 353 402 358 q 481 341 461 348 l 477 328 z "},"":{"ha":456,"x_min":7,"x_max":427,"o":"m 427 767 q 368 740 406 760 q 288 695 330 721 q 342 600 317 651 q 386 495 367 549 q 415 385 404 441 q 425 277 425 330 q 410 151 425 206 q 366 57 394 96 q 297 -2 337 18 q 210 -22 258 -22 q 133 -9 167 -22 q 74 27 98 4 q 37 83 50 51 q 24 153 24 115 q 39 237 24 197 q 82 308 54 277 q 154 361 111 340 q 252 392 197 383 l 255 380 q 183 342 212 367 q 139 289 155 318 q 116 231 123 260 q 110 180 110 202 q 119 117 110 144 q 145 72 129 90 q 182 43 161 53 q 227 34 203 34 q 284 48 261 34 q 321 89 307 62 q 341 154 335 116 q 347 239 347 192 q 341 327 347 275 q 323 438 335 379 q 292 558 311 497 q 248 670 273 618 q 185 627 215 648 q 134 586 155 605 q 115 579 125 579 q 92 591 101 579 q 83 616 83 604 q 93 643 83 631 q 116 664 102 654 q 145 681 130 673 q 171 694 160 688 q 194 704 180 699 q 223 717 208 710 q 160 790 195 762 q 82 818 125 818 q 43 804 58 818 q 28 766 28 790 q 30 749 28 758 l 17 735 q 9 759 12 746 q 7 786 7 772 q 10 818 7 802 q 21 845 14 833 q 39 865 28 857 q 66 872 50 872 q 113 862 88 872 q 162 833 137 852 q 212 789 187 815 q 261 732 237 763 q 307 749 283 741 q 353 764 331 758 q 394 775 375 770 q 427 779 414 779 l 427 767 z "},"":{"ha":839,"x_min":0,"x_max":798,"o":"m 798 313 q 784 175 798 244 q 742 44 770 106 q 673 -73 714 -19 q 580 -166 633 -127 q 463 -229 528 -206 q 323 -252 398 -252 q 202 -234 256 -252 q 112 -180 149 -216 q 56 -94 75 -145 q 36 25 36 -42 q 38 73 36 49 q 45 119 40 96 l 56 121 l 56 111 q 74 -9 56 50 q 127 -114 92 -68 q 216 -187 163 -159 q 338 -215 269 -215 q 460 -188 407 -215 q 553 -117 513 -161 q 619 -14 592 -72 q 662 107 646 44 q 685 232 678 170 q 692 347 692 294 q 683 463 692 400 q 653 589 673 526 q 602 711 633 652 q 529 815 571 770 q 433 888 487 861 q 313 916 379 916 q 262 907 288 916 q 210 884 235 899 q 161 850 184 869 q 121 807 138 830 q 94 758 104 783 q 84 707 84 732 q 89 673 84 688 q 99 645 94 658 q 110 622 105 633 q 115 599 115 610 q 101 566 115 579 q 69 553 88 553 q 44 559 54 553 q 30 577 35 566 q 22 600 24 587 q 20 625 20 613 q 28 684 20 654 q 50 740 37 713 q 81 792 64 768 q 117 839 99 817 q 218 919 162 890 q 344 949 275 949 q 495 921 429 949 q 613 845 562 893 q 699 734 663 798 q 756 600 734 671 q 788 456 778 530 q 798 313 798 382 m 477 328 q 449 330 464 330 q 420 330 433 330 q 328 328 377 330 q 229 319 279 325 q 223 203 224 260 q 223 92 222 147 q 228 -17 224 37 q 234 -129 231 -72 l 223 -134 q 195 -27 206 -83 q 176 85 183 28 q 166 199 169 142 q 162 311 163 256 q 103 302 132 307 q 50 292 75 298 q 43 292 46 292 q 38 292 41 292 q 10 302 20 292 q 0 324 0 313 q 18 353 0 343 q 61 367 36 363 q 113 371 86 371 q 157 372 140 372 l 162 372 q 164 439 163 401 q 171 516 166 477 q 182 595 175 556 q 201 669 189 635 q 229 730 213 703 q 268 770 245 756 q 292 782 279 776 q 317 787 304 787 q 338 768 338 787 q 337 756 338 762 q 333 745 335 750 q 307 686 321 714 q 284 627 292 658 q 254 492 266 555 q 235 370 242 429 q 301 367 267 369 q 369 361 336 365 q 432 353 402 358 q 481 341 461 348 l 477 328 z "},"":{"ha":594,"x_min":27,"x_max":667,"o":"m 662 97 q 635 57 651 75 q 598 26 618 39 q 555 7 578 14 q 507 0 532 0 q 417 26 454 0 q 355 93 380 52 q 314 53 336 73 q 268 17 292 33 q 216 -7 243 2 q 163 -17 190 -17 q 106 -4 132 -17 q 64 30 81 9 q 37 79 46 52 q 27 136 27 106 q 47 227 27 181 q 100 309 67 272 q 176 369 133 346 q 264 392 218 392 q 288 389 278 392 l 288 418 q 291 496 288 446 q 302 606 294 547 q 268 601 285 604 q 235 594 251 597 q 229 593 232 593 q 224 593 227 593 q 196 604 205 593 q 186 626 186 614 q 198 651 186 642 q 230 665 211 660 q 272 672 249 670 q 314 673 294 673 q 338 767 323 722 q 372 849 352 813 q 418 906 392 884 q 479 928 445 928 q 537 907 515 928 q 572 855 559 886 q 590 789 585 824 q 594 728 594 755 q 593 695 594 712 q 589 659 591 678 q 632 652 612 656 q 667 643 652 648 l 663 630 q 634 632 650 631 q 606 632 619 632 l 585 632 q 569 552 579 594 q 547 467 559 510 q 519 381 534 423 q 487 300 504 338 q 452 228 470 261 q 414 171 433 195 q 436 122 423 144 q 465 83 448 100 q 504 58 482 67 q 553 49 526 49 q 658 100 617 49 l 662 97 m 213 57 q 284 72 252 57 q 345 111 317 87 q 322 165 332 136 q 307 223 313 194 q 297 283 300 253 q 291 340 293 313 q 271 355 283 349 q 241 361 258 361 q 184 343 209 361 q 142 300 159 326 q 117 243 125 274 q 108 184 108 212 q 114 135 108 159 q 132 95 119 112 q 165 67 145 77 q 213 57 185 57 m 529 630 q 460 625 495 628 q 389 618 425 622 q 386 569 387 592 q 385 527 385 546 q 384 494 385 508 q 384 475 384 481 q 384 418 384 450 q 386 350 384 386 q 392 276 387 314 q 405 203 396 239 q 448 300 428 248 q 484 407 468 352 q 511 519 500 463 q 529 630 523 576 m 394 673 q 461 670 425 671 q 532 665 496 669 q 534 725 534 696 q 533 762 534 738 q 526 811 532 787 q 507 853 519 835 q 474 871 495 871 q 443 854 456 871 q 420 809 430 837 q 405 746 411 781 q 394 673 398 710 z "},"":{"ha":706,"x_min":27,"x_max":740,"o":"m 740 760 q 724 672 740 711 q 681 604 708 634 q 617 553 654 574 q 541 516 581 531 q 457 493 500 501 q 373 481 414 484 l 373 493 q 466 534 418 509 q 552 595 513 560 q 617 674 591 630 q 642 772 642 719 q 610 865 642 831 q 519 900 578 900 q 426 885 472 900 q 338 845 380 871 q 259 783 296 819 q 197 706 223 748 q 155 619 170 665 q 140 526 140 573 q 161 433 140 475 q 216 357 182 390 q 293 301 250 323 q 381 267 336 278 l 381 254 q 335 231 359 245 q 286 196 311 216 q 238 152 261 176 q 198 100 216 127 q 170 44 180 73 q 159 -16 159 14 q 198 -136 159 -95 q 316 -176 237 -176 q 400 -164 360 -176 q 476 -131 441 -153 q 540 -77 511 -109 q 591 -8 569 -46 l 600 -12 q 547 -105 581 -61 q 467 -182 512 -149 q 367 -235 421 -216 q 256 -254 313 -254 q 175 -241 212 -254 q 111 -203 138 -229 q 68 -141 83 -178 q 52 -56 52 -104 q 110 115 52 41 q 281 237 168 189 q 178 256 224 237 q 97 308 131 274 q 45 388 64 341 q 27 492 27 435 q 47 602 27 547 q 103 705 68 656 q 187 797 139 755 q 290 870 235 839 q 405 918 345 901 q 524 936 465 936 q 607 927 568 936 q 676 897 646 918 q 723 842 705 876 q 740 760 740 808 m 585 977 q 466 1048 518 1008 q 372 1146 414 1088 l 459 1204 q 485 1141 471 1170 q 516 1085 499 1112 q 552 1035 532 1059 q 592 986 571 1010 l 585 977 z "},"":{"ha":399,"x_min":24,"x_max":467,"o":"m 467 97 q 424 49 449 71 q 370 10 399 26 q 308 -16 340 -6 q 243 -25 276 -25 q 157 -13 197 -25 q 87 23 117 -1 q 41 84 58 47 q 24 171 24 121 q 42 262 24 220 q 91 336 60 304 q 165 386 123 368 q 257 404 208 404 q 300 398 280 404 q 335 379 320 391 q 358 348 350 366 q 367 306 367 330 q 355 256 367 277 q 325 218 344 234 q 282 191 306 201 q 232 173 258 180 q 180 163 205 166 q 134 160 155 160 l 117 160 q 166 66 126 98 q 277 33 206 33 q 375 51 327 33 q 461 100 422 68 l 467 97 m 115 180 l 132 180 q 182 188 157 180 q 229 211 208 196 q 263 249 250 227 q 277 300 277 271 q 265 346 277 328 q 224 364 253 364 q 173 346 194 364 q 140 302 153 328 q 121 247 127 276 q 115 196 115 218 l 115 180 m 324 452 q 206 523 258 483 q 112 621 154 564 l 199 680 q 224 616 210 645 q 255 561 239 587 q 291 510 272 534 q 332 461 311 486 l 324 452 z "},"":{"ha":706,"x_min":27,"x_max":740,"o":"m 740 760 q 724 672 740 711 q 681 604 708 634 q 617 553 654 574 q 541 516 581 531 q 457 493 500 501 q 373 481 414 484 l 373 493 q 466 534 418 509 q 552 595 513 560 q 617 674 591 630 q 642 772 642 719 q 610 865 642 831 q 519 900 578 900 q 426 885 472 900 q 338 845 380 871 q 259 783 296 819 q 197 706 223 748 q 155 619 170 665 q 140 526 140 573 q 161 433 140 475 q 216 357 182 390 q 293 301 250 323 q 381 267 336 278 l 381 254 q 335 231 359 245 q 286 196 311 216 q 238 152 261 176 q 198 100 216 127 q 170 44 180 73 q 159 -16 159 14 q 198 -136 159 -95 q 316 -176 237 -176 q 400 -164 360 -176 q 476 -131 441 -153 q 540 -77 511 -109 q 591 -8 569 -46 l 600 -12 q 547 -105 581 -61 q 467 -182 512 -149 q 367 -235 421 -216 q 256 -254 313 -254 q 175 -241 212 -254 q 111 -203 138 -229 q 68 -141 83 -178 q 52 -56 52 -104 q 110 115 52 41 q 281 237 168 189 q 178 256 224 237 q 97 308 131 274 q 45 388 64 341 q 27 492 27 435 q 47 602 27 547 q 103 705 68 656 q 187 797 139 755 q 290 870 235 839 q 405 918 345 901 q 524 936 465 936 q 607 927 568 936 q 676 897 646 918 q 723 842 705 876 q 740 760 740 808 m 429 986 q 469 1035 450 1010 q 505 1085 488 1059 q 536 1141 522 1112 q 562 1204 551 1170 l 649 1146 q 555 1048 607 1088 q 437 977 503 1008 l 429 986 z "},"":{"ha":399,"x_min":24,"x_max":467,"o":"m 467 97 q 424 49 449 71 q 370 10 399 26 q 308 -16 340 -6 q 243 -25 276 -25 q 157 -13 197 -25 q 87 23 117 -1 q 41 84 58 47 q 24 171 24 121 q 42 262 24 220 q 91 336 60 304 q 165 386 123 368 q 257 404 208 404 q 300 398 280 404 q 335 379 320 391 q 358 348 350 366 q 367 306 367 330 q 355 256 367 277 q 325 218 344 234 q 282 191 306 201 q 232 173 258 180 q 180 163 205 166 q 134 160 155 160 l 117 160 q 166 66 126 98 q 277 33 206 33 q 375 51 327 33 q 461 100 422 68 l 467 97 m 115 180 l 132 180 q 182 188 157 180 q 229 211 208 196 q 263 249 250 227 q 277 300 277 271 q 265 346 277 328 q 224 364 253 364 q 173 346 194 364 q 140 302 153 328 q 121 247 127 276 q 115 196 115 218 l 115 180 m 169 461 q 209 510 190 486 q 245 561 228 534 q 276 616 262 587 q 302 680 290 645 l 389 621 q 295 523 347 564 q 176 452 243 483 l 169 461 z "},"":{"ha":706,"x_min":27,"x_max":740,"o":"m 740 760 q 724 672 740 711 q 681 604 708 634 q 617 553 654 574 q 541 516 581 531 q 457 493 500 501 q 373 481 414 484 l 373 493 q 466 534 418 509 q 552 595 513 560 q 617 674 591 630 q 642 772 642 719 q 610 865 642 831 q 519 900 578 900 q 426 885 472 900 q 338 845 380 871 q 259 783 296 819 q 197 706 223 748 q 155 619 170 665 q 140 526 140 573 q 161 433 140 475 q 216 357 182 390 q 293 301 250 323 q 381 267 336 278 l 381 254 q 335 231 359 245 q 286 196 311 216 q 238 152 261 176 q 198 100 216 127 q 170 44 180 73 q 159 -16 159 14 q 198 -136 159 -95 q 316 -176 237 -176 q 400 -164 360 -176 q 476 -131 441 -153 q 540 -77 511 -109 q 591 -8 569 -46 l 600 -12 q 547 -105 581 -61 q 467 -182 512 -149 q 367 -235 421 -216 q 256 -254 313 -254 q 175 -241 212 -254 q 111 -203 138 -229 q 68 -141 83 -178 q 52 -56 52 -104 q 110 115 52 41 q 281 237 168 189 q 178 256 224 237 q 97 308 131 274 q 45 388 64 341 q 27 492 27 435 q 47 602 27 547 q 103 705 68 656 q 187 797 139 755 q 290 870 235 839 q 405 918 345 901 q 524 936 465 936 q 607 927 568 936 q 676 897 646 918 q 723 842 705 876 q 740 760 740 808 m 347 986 q 387 1034 368 1010 q 422 1082 405 1057 q 457 1135 440 1107 q 494 1198 475 1163 l 534 1198 q 571 1135 553 1163 q 606 1082 588 1107 q 642 1034 623 1057 q 681 986 660 1010 l 673 977 q 630 1001 650 989 q 592 1026 611 1013 q 555 1055 574 1040 q 514 1088 536 1069 q 473 1055 492 1069 q 436 1026 454 1040 q 397 1001 417 1013 q 355 977 378 989 l 347 986 z "},"":{"ha":399,"x_min":24,"x_max":467,"o":"m 467 97 q 424 49 449 71 q 370 10 399 26 q 308 -16 340 -6 q 243 -25 276 -25 q 157 -13 197 -25 q 87 23 117 -1 q 41 84 58 47 q 24 171 24 121 q 42 262 24 220 q 91 336 60 304 q 165 386 123 368 q 257 404 208 404 q 300 398 280 404 q 335 379 320 391 q 358 348 350 366 q 367 306 367 330 q 355 256 367 277 q 325 218 344 234 q 282 191 306 201 q 232 173 258 180 q 180 163 205 166 q 134 160 155 160 l 117 160 q 166 66 126 98 q 277 33 206 33 q 375 51 327 33 q 461 100 422 68 l 467 97 m 115 180 l 132 180 q 182 188 157 180 q 229 211 208 196 q 263 249 250 227 q 277 300 277 271 q 265 346 277 328 q 224 364 253 364 q 173 346 194 364 q 140 302 153 328 q 121 247 127 276 q 115 196 115 218 l 115 180 m 87 461 q 126 509 108 486 q 162 557 144 532 q 197 610 180 582 q 233 673 214 638 l 274 673 q 310 610 293 638 q 345 557 328 582 q 381 509 363 532 q 420 461 399 486 l 413 452 q 370 476 389 464 q 332 502 351 488 q 294 530 313 515 q 254 563 275 545 q 213 530 232 545 q 175 501 194 515 q 137 476 157 488 q 94 452 117 464 l 87 461 z "},"":{"ha":706,"x_min":27,"x_max":740,"o":"m 740 760 q 724 672 740 711 q 681 604 708 634 q 617 553 654 574 q 541 516 581 531 q 457 493 500 501 q 373 481 414 484 l 373 493 q 466 534 418 509 q 552 595 513 560 q 617 674 591 630 q 642 772 642 719 q 610 865 642 831 q 519 900 578 900 q 426 885 472 900 q 338 845 380 871 q 259 783 296 819 q 197 706 223 748 q 155 619 170 665 q 140 526 140 573 q 161 433 140 475 q 216 357 182 390 q 293 301 250 323 q 381 267 336 278 l 381 254 q 335 231 359 245 q 286 196 311 216 q 238 152 261 176 q 198 100 216 127 q 170 44 180 73 q 159 -16 159 14 q 198 -136 159 -95 q 316 -176 237 -176 q 400 -164 360 -176 q 476 -131 441 -153 q 540 -77 511 -109 q 591 -8 569 -46 l 600 -12 q 547 -105 581 -61 q 467 -182 512 -149 q 367 -235 421 -216 q 256 -254 313 -254 q 175 -241 212 -254 q 111 -203 138 -229 q 68 -141 83 -178 q 52 -56 52 -104 q 110 115 52 41 q 281 237 168 189 q 178 256 224 237 q 97 308 131 274 q 45 388 64 341 q 27 492 27 435 q 47 602 27 547 q 103 705 68 656 q 187 797 139 755 q 290 870 235 839 q 405 918 345 901 q 524 936 465 936 q 607 927 568 936 q 676 897 646 918 q 723 842 705 876 q 740 760 740 808 m 484 1081 q 468 1040 484 1056 q 427 1024 451 1024 q 388 1040 405 1024 q 372 1081 372 1056 q 376 1102 372 1092 q 388 1120 380 1112 q 406 1132 396 1128 q 427 1137 416 1137 q 450 1132 439 1137 q 468 1120 460 1128 q 480 1102 475 1112 q 484 1081 484 1092 m 656 1081 q 640 1040 656 1056 q 600 1024 623 1024 q 561 1040 577 1024 q 544 1081 544 1056 q 548 1102 544 1092 q 561 1120 553 1112 q 578 1132 568 1128 q 600 1137 588 1137 q 622 1132 612 1137 q 640 1120 632 1128 q 652 1102 648 1112 q 656 1081 656 1092 z "},"":{"ha":399,"x_min":24,"x_max":467,"o":"m 467 97 q 424 49 449 71 q 370 10 399 26 q 308 -16 340 -6 q 243 -25 276 -25 q 157 -13 197 -25 q 87 23 117 -1 q 41 84 58 47 q 24 171 24 121 q 42 262 24 220 q 91 336 60 304 q 165 386 123 368 q 257 404 208 404 q 300 398 280 404 q 335 379 320 391 q 358 348 350 366 q 367 306 367 330 q 355 256 367 277 q 325 218 344 234 q 282 191 306 201 q 232 173 258 180 q 180 163 205 166 q 134 160 155 160 l 117 160 q 166 66 126 98 q 277 33 206 33 q 375 51 327 33 q 461 100 422 68 l 467 97 m 115 180 l 132 180 q 182 188 157 180 q 229 211 208 196 q 263 249 250 227 q 277 300 277 271 q 265 346 277 328 q 224 364 253 364 q 173 346 194 364 q 140 302 153 328 q 121 247 127 276 q 115 196 115 218 l 115 180 m 224 556 q 207 515 224 531 q 167 499 191 499 q 128 515 144 499 q 111 556 111 531 q 116 577 111 567 q 128 595 120 587 q 145 607 136 603 q 167 612 155 612 q 189 607 179 612 q 207 595 199 603 q 219 577 215 587 q 224 556 224 567 m 396 556 q 379 515 396 531 q 339 499 363 499 q 300 515 317 499 q 283 556 283 531 q 288 577 283 567 q 300 595 292 587 q 318 607 308 603 q 339 612 328 612 q 361 607 351 612 q 379 595 372 603 q 392 577 387 587 q 396 556 396 567 z "},"":{"ha":706,"x_min":27,"x_max":740,"o":"m 740 760 q 724 672 740 711 q 681 604 708 634 q 617 553 654 574 q 541 516 581 531 q 457 493 500 501 q 373 481 414 484 l 373 493 q 466 534 418 509 q 552 595 513 560 q 617 674 591 630 q 642 772 642 719 q 610 865 642 831 q 519 900 578 900 q 426 885 472 900 q 338 845 380 871 q 259 783 296 819 q 197 706 223 748 q 155 619 170 665 q 140 526 140 573 q 161 433 140 475 q 216 357 182 390 q 293 301 250 323 q 381 267 336 278 l 381 254 q 335 231 359 245 q 286 196 311 216 q 238 152 261 176 q 198 100 216 127 q 170 44 180 73 q 159 -16 159 14 q 198 -136 159 -95 q 316 -176 237 -176 q 400 -164 360 -176 q 476 -131 441 -153 q 540 -77 511 -109 q 591 -8 569 -46 l 600 -12 q 547 -105 581 -61 q 467 -182 512 -149 q 367 -235 421 -216 q 256 -254 313 -254 q 175 -241 212 -254 q 111 -203 138 -229 q 68 -141 83 -178 q 52 -56 52 -104 q 110 115 52 41 q 281 237 168 189 q 178 256 224 237 q 97 308 131 274 q 45 388 64 341 q 27 492 27 435 q 47 602 27 547 q 103 705 68 656 q 187 797 139 755 q 290 870 235 839 q 405 918 345 901 q 524 936 465 936 q 607 927 568 936 q 676 897 646 918 q 723 842 705 876 q 740 760 740 808 m 389 1107 l 640 1107 l 640 1035 l 389 1035 l 389 1107 z "},"":{"ha":399,"x_min":24,"x_max":467,"o":"m 467 97 q 424 49 449 71 q 370 10 399 26 q 308 -16 340 -6 q 243 -25 276 -25 q 157 -13 197 -25 q 87 23 117 -1 q 41 84 58 47 q 24 171 24 121 q 42 262 24 220 q 91 336 60 304 q 165 386 123 368 q 257 404 208 404 q 300 398 280 404 q 335 379 320 391 q 358 348 350 366 q 367 306 367 330 q 355 256 367 277 q 325 218 344 234 q 282 191 306 201 q 232 173 258 180 q 180 163 205 166 q 134 160 155 160 l 117 160 q 166 66 126 98 q 277 33 206 33 q 375 51 327 33 q 461 100 422 68 l 467 97 m 115 180 l 132 180 q 182 188 157 180 q 229 211 208 196 q 263 249 250 227 q 277 300 277 271 q 265 346 277 328 q 224 364 253 364 q 173 346 194 364 q 140 302 153 328 q 121 247 127 276 q 115 196 115 218 l 115 180 m 128 583 l 379 583 l 379 510 l 128 510 l 128 583 z "},"":{"ha":706,"x_min":27,"x_max":740,"o":"m 740 760 q 724 672 740 711 q 681 604 708 634 q 617 553 654 574 q 541 516 581 531 q 457 493 500 501 q 373 481 414 484 l 373 493 q 466 534 418 509 q 552 595 513 560 q 617 674 591 630 q 642 772 642 719 q 610 865 642 831 q 519 900 578 900 q 426 885 472 900 q 338 845 380 871 q 259 783 296 819 q 197 706 223 748 q 155 619 170 665 q 140 526 140 573 q 161 433 140 475 q 216 357 182 390 q 293 301 250 323 q 381 267 336 278 l 381 254 q 335 231 359 245 q 286 196 311 216 q 238 152 261 176 q 198 100 216 127 q 170 44 180 73 q 159 -16 159 14 q 198 -136 159 -95 q 316 -176 237 -176 q 400 -164 360 -176 q 476 -131 441 -153 q 540 -77 511 -109 q 591 -8 569 -46 l 600 -12 q 547 -105 581 -61 q 467 -182 512 -149 q 367 -235 421 -216 q 256 -254 313 -254 q 175 -241 212 -254 q 111 -203 138 -229 q 68 -141 83 -178 q 52 -56 52 -104 q 110 115 52 41 q 281 237 168 189 q 178 256 224 237 q 97 308 131 274 q 45 388 64 341 q 27 492 27 435 q 47 602 27 547 q 103 705 68 656 q 187 797 139 755 q 290 870 235 839 q 405 918 345 901 q 524 936 465 936 q 607 927 568 936 q 676 897 646 918 q 723 842 705 876 q 740 760 740 808 m 514 990 q 436 1007 467 990 q 388 1049 406 1024 q 362 1103 370 1074 q 355 1154 355 1131 l 373 1154 q 383 1131 376 1145 q 406 1102 390 1116 q 447 1077 421 1088 q 514 1066 473 1066 q 579 1076 555 1066 q 620 1100 604 1086 q 643 1128 635 1114 q 657 1154 651 1143 l 673 1154 q 664 1103 671 1132 q 640 1050 657 1075 q 592 1007 622 1025 q 514 990 562 990 z "},"":{"ha":399,"x_min":24,"x_max":467,"o":"m 467 97 q 424 49 449 71 q 370 10 399 26 q 308 -16 340 -6 q 243 -25 276 -25 q 157 -13 197 -25 q 87 23 117 -1 q 41 84 58 47 q 24 171 24 121 q 42 262 24 220 q 91 336 60 304 q 165 386 123 368 q 257 404 208 404 q 300 398 280 404 q 335 379 320 391 q 358 348 350 366 q 367 306 367 330 q 355 256 367 277 q 325 218 344 234 q 282 191 306 201 q 232 173 258 180 q 180 163 205 166 q 134 160 155 160 l 117 160 q 166 66 126 98 q 277 33 206 33 q 375 51 327 33 q 461 100 422 68 l 467 97 m 115 180 l 132 180 q 182 188 157 180 q 229 211 208 196 q 263 249 250 227 q 277 300 277 271 q 265 346 277 328 q 224 364 253 364 q 173 346 194 364 q 140 302 153 328 q 121 247 127 276 q 115 196 115 218 l 115 180 m 254 465 q 176 482 206 465 q 127 524 145 499 q 102 578 109 549 q 94 629 95 606 l 113 629 q 122 606 115 621 q 145 577 130 591 q 187 552 161 563 q 254 541 213 541 q 319 551 294 541 q 359 575 344 561 q 382 604 374 589 q 397 629 391 618 l 412 629 q 404 578 411 607 q 379 525 397 550 q 331 483 361 500 q 254 465 301 465 z "},"":{"ha":706,"x_min":27,"x_max":740,"o":"m 740 760 q 724 672 740 711 q 681 604 708 634 q 617 553 654 574 q 541 516 581 531 q 457 493 500 501 q 373 481 414 484 l 373 493 q 466 534 418 509 q 552 595 513 560 q 617 674 591 630 q 642 772 642 719 q 610 865 642 831 q 519 900 578 900 q 426 885 472 900 q 338 845 380 871 q 259 783 296 819 q 197 706 223 748 q 155 619 170 665 q 140 526 140 573 q 161 433 140 475 q 216 357 182 390 q 293 301 250 323 q 381 267 336 278 l 381 254 q 335 231 359 245 q 286 196 311 216 q 238 152 261 176 q 198 100 216 127 q 170 44 180 73 q 159 -16 159 14 q 198 -136 159 -95 q 316 -176 237 -176 q 400 -164 360 -176 q 476 -131 441 -153 q 540 -77 511 -109 q 591 -8 569 -46 l 600 -12 q 547 -105 581 -61 q 467 -182 512 -149 q 367 -235 421 -216 q 256 -254 313 -254 q 175 -241 212 -254 q 111 -203 138 -229 q 68 -141 83 -178 q 52 -56 52 -104 q 110 115 52 41 q 281 237 168 189 q 178 256 224 237 q 97 308 131 274 q 45 388 64 341 q 27 492 27 435 q 47 602 27 547 q 103 705 68 656 q 187 797 139 755 q 290 870 235 839 q 405 918 345 901 q 524 936 465 936 q 607 927 568 936 q 676 897 646 918 q 723 842 705 876 q 740 760 740 808 m 571 1081 q 554 1040 571 1056 q 514 1024 538 1024 q 475 1040 492 1024 q 458 1081 458 1056 q 463 1102 458 1092 q 475 1120 467 1112 q 493 1132 483 1128 q 514 1137 503 1137 q 536 1132 526 1137 q 554 1120 547 1128 q 567 1102 562 1112 q 571 1081 571 1092 z "},"":{"ha":399,"x_min":24,"x_max":467,"o":"m 467 97 q 424 49 449 71 q 370 10 399 26 q 308 -16 340 -6 q 243 -25 276 -25 q 157 -13 197 -25 q 87 23 117 -1 q 41 84 58 47 q 24 171 24 121 q 42 262 24 220 q 91 336 60 304 q 165 386 123 368 q 257 404 208 404 q 300 398 280 404 q 335 379 320 391 q 358 348 350 366 q 367 306 367 330 q 355 256 367 277 q 325 218 344 234 q 282 191 306 201 q 232 173 258 180 q 180 163 205 166 q 134 160 155 160 l 117 160 q 166 66 126 98 q 277 33 206 33 q 375 51 327 33 q 461 100 422 68 l 467 97 m 115 180 l 132 180 q 182 188 157 180 q 229 211 208 196 q 263 249 250 227 q 277 300 277 271 q 265 346 277 328 q 224 364 253 364 q 173 346 194 364 q 140 302 153 328 q 121 247 127 276 q 115 196 115 218 l 115 180 m 311 556 q 294 515 311 531 q 254 499 277 499 q 215 515 231 499 q 198 556 198 531 q 202 577 198 567 q 215 595 207 587 q 232 607 222 603 q 254 612 242 612 q 276 607 266 612 q 294 595 286 603 q 306 577 302 587 q 311 556 311 567 z "},"":{"ha":706,"x_min":27,"x_max":740,"o":"m 740 760 q 724 672 740 711 q 681 604 708 634 q 617 553 654 574 q 541 516 581 531 q 457 493 500 501 q 373 481 414 484 l 373 493 q 466 534 418 509 q 552 595 513 560 q 617 674 591 630 q 642 772 642 719 q 610 865 642 831 q 519 900 578 900 q 426 885 472 900 q 338 845 380 871 q 259 783 296 819 q 197 706 223 748 q 155 619 170 665 q 140 526 140 573 q 161 433 140 475 q 216 357 182 390 q 293 301 250 323 q 381 267 336 278 l 381 254 q 335 231 359 245 q 286 196 311 216 q 238 152 261 176 q 198 100 216 127 q 170 44 180 73 q 159 -16 159 14 q 198 -136 159 -95 q 316 -176 237 -176 q 400 -164 360 -176 q 476 -131 441 -153 q 540 -77 511 -109 q 591 -8 569 -46 l 600 -12 q 534 -116 577 -71 q 429 -206 490 -161 q 401 -233 411 -219 q 386 -261 391 -248 q 379 -286 380 -274 q 378 -307 378 -298 q 381 -328 378 -318 q 391 -347 385 -338 q 409 -360 398 -355 q 433 -365 419 -365 q 464 -358 447 -365 q 503 -332 481 -351 l 512 -339 q 495 -366 505 -353 q 471 -389 484 -378 q 441 -405 457 -399 q 406 -412 425 -412 q 375 -407 391 -412 q 346 -392 359 -402 q 324 -368 332 -382 q 315 -332 315 -353 q 336 -276 315 -304 q 386 -226 357 -248 q 318 -249 351 -243 q 256 -254 285 -254 q 175 -241 212 -254 q 111 -203 138 -229 q 68 -141 83 -178 q 52 -56 52 -104 q 110 115 52 41 q 281 237 168 189 q 178 256 224 237 q 97 308 131 274 q 45 388 64 341 q 27 492 27 435 q 47 602 27 547 q 103 705 68 656 q 187 797 139 755 q 290 870 235 839 q 405 918 345 901 q 524 936 465 936 q 607 927 568 936 q 676 897 646 918 q 723 842 705 876 q 740 760 740 808 z "},"":{"ha":399,"x_min":24,"x_max":467,"o":"m 467 97 q 442 68 456 81 q 412 44 428 56 q 380 21 397 32 q 348 -3 363 9 q 323 -27 334 -14 q 306 -56 313 -41 q 295 -83 298 -70 q 292 -105 292 -96 q 295 -126 292 -116 q 305 -144 298 -136 q 322 -158 312 -153 q 347 -163 333 -163 q 378 -156 361 -163 q 416 -130 395 -149 l 426 -137 q 409 -163 419 -151 q 385 -186 398 -176 q 355 -203 371 -197 q 320 -210 338 -210 q 289 -205 304 -210 q 259 -190 273 -200 q 238 -165 246 -180 q 229 -130 229 -151 q 236 -97 229 -114 q 253 -65 242 -81 q 279 -36 264 -50 q 311 -11 294 -22 q 276 -21 296 -18 q 243 -25 257 -25 q 157 -13 197 -25 q 87 23 117 -1 q 41 84 58 47 q 24 171 24 121 q 42 262 24 220 q 91 336 60 304 q 165 386 123 368 q 257 404 208 404 q 300 398 280 404 q 335 379 320 391 q 358 348 350 366 q 367 306 367 330 q 355 256 367 277 q 325 218 344 234 q 282 191 306 201 q 232 173 258 180 q 180 163 205 166 q 134 160 155 160 l 117 160 q 166 66 126 98 q 277 33 206 33 q 375 51 327 33 q 461 100 422 68 l 467 97 m 115 180 l 132 180 q 182 188 157 180 q 229 211 208 196 q 263 249 250 227 q 277 300 277 271 q 265 346 277 328 q 224 364 253 364 q 173 346 194 364 q 140 302 153 328 q 121 247 127 276 q 115 196 115 218 l 115 180 z "},"":{"ha":706,"x_min":27,"x_max":740,"o":"m 740 760 q 724 672 740 711 q 681 604 708 634 q 617 553 654 574 q 541 516 581 531 q 457 493 500 501 q 373 481 414 484 l 373 493 q 466 534 418 509 q 552 595 513 560 q 617 674 591 630 q 642 772 642 719 q 610 865 642 831 q 519 900 578 900 q 426 885 472 900 q 338 845 380 871 q 259 783 296 819 q 197 706 223 748 q 155 619 170 665 q 140 526 140 573 q 161 433 140 475 q 216 357 182 390 q 293 301 250 323 q 381 267 336 278 l 381 254 q 335 231 359 245 q 286 196 311 216 q 238 152 261 176 q 198 100 216 127 q 170 44 180 73 q 159 -16 159 14 q 198 -136 159 -95 q 316 -176 237 -176 q 400 -164 360 -176 q 476 -131 441 -153 q 540 -77 511 -109 q 591 -8 569 -46 l 600 -12 q 547 -105 581 -61 q 467 -182 512 -149 q 367 -235 421 -216 q 256 -254 313 -254 q 175 -241 212 -254 q 111 -203 138 -229 q 68 -141 83 -178 q 52 -56 52 -104 q 110 115 52 41 q 281 237 168 189 q 178 256 224 237 q 97 308 131 274 q 45 388 64 341 q 27 492 27 435 q 47 602 27 547 q 103 705 68 656 q 187 797 139 755 q 290 870 235 839 q 405 918 345 901 q 524 936 465 936 q 607 927 568 936 q 676 897 646 918 q 723 842 705 876 q 740 760 740 808 m 355 1198 q 397 1174 378 1185 q 436 1148 417 1162 q 473 1120 454 1135 q 514 1086 492 1105 q 555 1120 536 1105 q 592 1148 574 1135 q 630 1173 611 1161 q 673 1198 650 1185 l 681 1188 q 642 1140 660 1164 q 606 1092 623 1117 q 571 1039 588 1067 q 534 977 553 1011 l 494 977 q 457 1039 475 1011 q 422 1092 440 1067 q 387 1140 405 1117 q 347 1188 368 1164 l 355 1198 z "},"":{"ha":399,"x_min":24,"x_max":467,"o":"m 467 97 q 424 49 449 71 q 370 10 399 26 q 308 -16 340 -6 q 243 -25 276 -25 q 157 -13 197 -25 q 87 23 117 -1 q 41 84 58 47 q 24 171 24 121 q 42 262 24 220 q 91 336 60 304 q 165 386 123 368 q 257 404 208 404 q 300 398 280 404 q 335 379 320 391 q 358 348 350 366 q 367 306 367 330 q 355 256 367 277 q 325 218 344 234 q 282 191 306 201 q 232 173 258 180 q 180 163 205 166 q 134 160 155 160 l 117 160 q 166 66 126 98 q 277 33 206 33 q 375 51 327 33 q 461 100 422 68 l 467 97 m 115 180 l 132 180 q 182 188 157 180 q 229 211 208 196 q 263 249 250 227 q 277 300 277 271 q 265 346 277 328 q 224 364 253 364 q 173 346 194 364 q 140 302 153 328 q 121 247 127 276 q 115 196 115 218 l 115 180 m 94 673 q 137 649 117 661 q 175 623 157 637 q 213 595 194 610 q 254 562 232 580 q 294 595 275 580 q 332 623 313 610 q 370 648 351 636 q 413 673 389 661 l 420 663 q 381 615 399 639 q 345 567 363 592 q 310 514 328 542 q 274 452 293 486 l 233 452 q 197 514 214 486 q 162 567 180 542 q 126 615 144 592 q 87 663 108 639 l 94 673 z "},"":{"ha":806,"x_min":44,"x_max":833,"o":"m 825 175 q 807 176 816 175 q 788 176 798 176 q 728 174 762 176 q 653 166 693 171 q 669 57 669 111 q 648 -56 669 -3 q 591 -149 628 -109 q 504 -212 555 -189 q 391 -235 452 -235 q 279 -216 329 -235 q 191 -163 229 -197 q 124 -85 152 -130 q 79 10 96 -41 q 53 116 61 61 q 44 224 44 171 q 60 380 44 298 q 106 540 76 461 q 182 691 137 619 q 284 817 227 762 q 413 904 342 871 q 567 936 484 936 q 653 925 613 936 q 723 891 693 914 q 770 833 753 869 q 787 749 787 798 q 774 677 787 711 q 740 613 762 643 q 688 560 718 584 q 625 520 659 536 q 556 494 591 503 q 486 486 520 486 l 475 486 l 475 500 q 559 532 519 509 q 628 589 599 555 q 675 665 658 623 q 692 753 692 707 q 657 862 692 821 q 552 903 623 903 q 420 871 479 903 q 317 789 362 840 q 239 670 272 737 q 186 531 207 603 q 156 388 165 459 q 146 256 146 316 q 152 160 146 210 q 171 64 158 111 q 206 -24 184 18 q 259 -97 228 -66 q 333 -147 291 -129 q 429 -165 374 -165 q 507 -151 470 -165 q 573 -110 545 -136 q 617 -48 601 -84 q 634 31 634 -12 q 623 98 634 65 q 591 157 611 130 q 519 145 555 152 q 452 131 484 138 q 392 114 420 123 q 345 97 365 106 q 332 93 339 93 q 320 101 323 93 q 317 117 317 109 q 322 144 317 129 q 334 173 326 159 q 353 198 342 187 q 377 212 364 209 q 415 220 395 218 q 456 224 435 223 q 496 225 476 225 q 535 225 517 225 q 605 223 564 225 q 690 217 646 222 q 772 205 733 213 q 833 184 810 197 l 825 175 m 389 986 q 428 1034 410 1010 q 464 1082 446 1057 q 499 1135 481 1107 q 535 1198 516 1163 l 576 1198 q 612 1135 595 1163 q 647 1082 629 1107 q 683 1034 665 1057 q 722 986 701 1010 l 715 977 q 672 1001 691 989 q 634 1026 652 1013 q 596 1055 615 1040 q 555 1088 577 1069 q 515 1055 534 1069 q 477 1026 496 1040 q 439 1001 458 1013 q 396 977 419 989 l 389 986 z "},"":{"ha":426,"x_min":-41,"x_max":427,"o":"m 395 -208 q 382 -320 395 -263 q 342 -426 370 -378 q 270 -507 314 -474 q 165 -549 227 -541 q 153 -551 159 -550 q 141 -551 148 -551 q 71 -536 104 -551 q 13 -496 37 -522 q -26 -437 -12 -471 q -41 -367 -41 -404 q -24 -289 -41 -326 q 20 -220 -7 -252 q 81 -164 47 -189 q 151 -126 115 -140 l 155 -135 q 54 -232 90 -170 q 18 -368 18 -294 q 26 -428 18 -399 q 52 -478 35 -456 q 94 -513 68 -500 q 153 -526 119 -526 q 231 -502 199 -526 q 280 -441 262 -477 q 307 -361 299 -404 q 315 -281 315 -318 q 311 -217 315 -248 q 302 -155 307 -186 q 294 -93 298 -124 q 290 -29 290 -62 q 291 18 290 -6 q 298 68 293 43 q 229 8 268 33 q 145 -17 190 -17 q 95 -6 117 -17 q 58 22 73 4 q 35 63 43 39 q 27 114 27 87 q 37 177 27 144 q 64 241 47 210 q 105 299 81 272 q 157 348 129 327 q 216 380 185 368 q 280 392 248 392 q 313 388 296 392 q 343 374 330 383 q 366 352 357 366 q 374 319 374 338 q 368 295 374 306 q 353 276 362 284 q 332 260 343 267 q 309 249 320 254 l 307 257 q 314 272 312 263 q 316 289 316 281 q 312 314 316 301 q 301 337 309 326 q 283 354 294 347 q 259 361 273 361 q 197 342 224 361 q 150 295 169 323 q 120 233 130 267 q 109 170 109 199 q 113 130 109 150 q 125 93 117 109 q 150 66 134 77 q 189 56 165 56 q 256 75 225 56 q 312 121 288 94 q 337 172 321 148 q 374 214 352 196 l 386 205 q 366 149 370 180 q 361 86 361 117 q 366 14 361 50 q 378 -58 372 -22 q 390 -132 385 -95 q 395 -208 395 -170 m 94 449 q 133 497 115 473 q 169 545 151 520 q 204 598 186 570 q 240 661 221 626 l 281 661 q 317 598 300 626 q 352 545 334 570 q 388 497 370 520 q 427 449 406 473 l 420 439 q 377 464 396 452 q 339 489 357 476 q 301 517 320 503 q 260 551 282 532 q 220 517 239 532 q 182 489 201 503 q 144 464 163 475 q 101 439 124 452 l 94 449 z "},"":{"ha":806,"x_min":44,"x_max":833,"o":"m 825 175 q 807 176 816 175 q 788 176 798 176 q 728 174 762 176 q 653 166 693 171 q 669 57 669 111 q 648 -56 669 -3 q 591 -149 628 -109 q 504 -212 555 -189 q 391 -235 452 -235 q 279 -216 329 -235 q 191 -163 229 -197 q 124 -85 152 -130 q 79 10 96 -41 q 53 116 61 61 q 44 224 44 171 q 60 380 44 298 q 106 540 76 461 q 182 691 137 619 q 284 817 227 762 q 413 904 342 871 q 567 936 484 936 q 653 925 613 936 q 723 891 693 914 q 770 833 753 869 q 787 749 787 798 q 774 677 787 711 q 740 613 762 643 q 688 560 718 584 q 625 520 659 536 q 556 494 591 503 q 486 486 520 486 l 475 486 l 475 500 q 559 532 519 509 q 628 589 599 555 q 675 665 658 623 q 692 753 692 707 q 657 862 692 821 q 552 903 623 903 q 420 871 479 903 q 317 789 362 840 q 239 670 272 737 q 186 531 207 603 q 156 388 165 459 q 146 256 146 316 q 152 160 146 210 q 171 64 158 111 q 206 -24 184 18 q 259 -97 228 -66 q 333 -147 291 -129 q 429 -165 374 -165 q 507 -151 470 -165 q 573 -110 545 -136 q 617 -48 601 -84 q 634 31 634 -12 q 623 98 634 65 q 591 157 611 130 q 519 145 555 152 q 452 131 484 138 q 392 114 420 123 q 345 97 365 106 q 332 93 339 93 q 320 101 323 93 q 317 117 317 109 q 322 144 317 129 q 334 173 326 159 q 353 198 342 187 q 377 212 364 209 q 415 220 395 218 q 456 224 435 223 q 496 225 476 225 q 535 225 517 225 q 605 223 564 225 q 690 217 646 222 q 772 205 733 213 q 833 184 810 197 l 825 175 m 555 990 q 477 1007 508 990 q 429 1049 447 1024 q 404 1103 411 1074 q 396 1154 397 1131 l 414 1154 q 424 1131 417 1145 q 447 1102 431 1116 q 489 1077 463 1088 q 555 1066 515 1066 q 621 1076 596 1066 q 661 1100 646 1086 q 684 1128 676 1114 q 699 1154 692 1143 l 714 1154 q 706 1103 713 1132 q 681 1050 699 1075 q 633 1007 663 1025 q 555 990 603 990 z "},"":{"ha":426,"x_min":-41,"x_max":426,"o":"m 395 -208 q 382 -320 395 -263 q 342 -426 370 -378 q 270 -507 314 -474 q 165 -549 227 -541 q 153 -551 159 -550 q 141 -551 148 -551 q 71 -536 104 -551 q 13 -496 37 -522 q -26 -437 -12 -471 q -41 -367 -41 -404 q -24 -289 -41 -326 q 20 -220 -7 -252 q 81 -164 47 -189 q 151 -126 115 -140 l 155 -135 q 54 -232 90 -170 q 18 -368 18 -294 q 26 -428 18 -399 q 52 -478 35 -456 q 94 -513 68 -500 q 153 -526 119 -526 q 231 -502 199 -526 q 280 -441 262 -477 q 307 -361 299 -404 q 315 -281 315 -318 q 311 -217 315 -248 q 302 -155 307 -186 q 294 -93 298 -124 q 290 -29 290 -62 q 291 18 290 -6 q 298 68 293 43 q 229 8 268 33 q 145 -17 190 -17 q 95 -6 117 -17 q 58 22 73 4 q 35 63 43 39 q 27 114 27 87 q 37 177 27 144 q 64 241 47 210 q 105 299 81 272 q 157 348 129 327 q 216 380 185 368 q 280 392 248 392 q 313 388 296 392 q 343 374 330 383 q 366 352 357 366 q 374 319 374 338 q 368 295 374 306 q 353 276 362 284 q 332 260 343 267 q 309 249 320 254 l 307 257 q 314 272 312 263 q 316 289 316 281 q 312 314 316 301 q 301 337 309 326 q 283 354 294 347 q 259 361 273 361 q 197 342 224 361 q 150 295 169 323 q 120 233 130 267 q 109 170 109 199 q 113 130 109 150 q 125 93 117 109 q 150 66 134 77 q 189 56 165 56 q 256 75 225 56 q 312 121 288 94 q 337 172 321 148 q 374 214 352 196 l 386 205 q 366 149 370 180 q 361 86 361 117 q 366 14 361 50 q 378 -58 372 -22 q 390 -132 385 -95 q 395 -208 395 -170 m 267 446 q 189 463 220 446 q 141 505 159 480 q 116 559 123 530 q 108 610 109 587 l 126 610 q 136 587 129 602 q 159 558 143 572 q 200 533 174 544 q 267 522 227 522 q 333 532 308 522 q 373 556 357 542 q 396 585 388 570 q 410 610 404 600 l 426 610 q 417 559 425 588 q 393 506 410 531 q 345 464 375 481 q 267 446 315 446 z "},"":{"ha":806,"x_min":44,"x_max":833,"o":"m 825 175 q 807 176 816 175 q 788 176 798 176 q 728 174 762 176 q 653 166 693 171 q 669 57 669 111 q 648 -56 669 -3 q 591 -149 628 -109 q 504 -212 555 -189 q 391 -235 452 -235 q 279 -216 329 -235 q 191 -163 229 -197 q 124 -85 152 -130 q 79 10 96 -41 q 53 116 61 61 q 44 224 44 171 q 60 380 44 298 q 106 540 76 461 q 182 691 137 619 q 284 817 227 762 q 413 904 342 871 q 567 936 484 936 q 653 925 613 936 q 723 891 693 914 q 770 833 753 869 q 787 749 787 798 q 774 677 787 711 q 740 613 762 643 q 688 560 718 584 q 625 520 659 536 q 556 494 591 503 q 486 486 520 486 l 475 486 l 475 500 q 559 532 519 509 q 628 589 599 555 q 675 665 658 623 q 692 753 692 707 q 657 862 692 821 q 552 903 623 903 q 420 871 479 903 q 317 789 362 840 q 239 670 272 737 q 186 531 207 603 q 156 388 165 459 q 146 256 146 316 q 152 160 146 210 q 171 64 158 111 q 206 -24 184 18 q 259 -97 228 -66 q 333 -147 291 -129 q 429 -165 374 -165 q 507 -151 470 -165 q 573 -110 545 -136 q 617 -48 601 -84 q 634 31 634 -12 q 623 98 634 65 q 591 157 611 130 q 519 145 555 152 q 452 131 484 138 q 392 114 420 123 q 345 97 365 106 q 332 93 339 93 q 320 101 323 93 q 317 117 317 109 q 322 144 317 129 q 334 173 326 159 q 353 198 342 187 q 377 212 364 209 q 415 220 395 218 q 456 224 435 223 q 496 225 476 225 q 535 225 517 225 q 605 223 564 225 q 690 217 646 222 q 772 205 733 213 q 833 184 810 197 l 825 175 m 612 1081 q 596 1040 612 1056 q 555 1024 579 1024 q 516 1040 533 1024 q 500 1081 500 1056 q 504 1102 500 1092 q 516 1120 509 1112 q 534 1132 524 1128 q 555 1137 544 1137 q 578 1132 568 1137 q 596 1120 588 1128 q 608 1102 604 1112 q 612 1081 612 1092 z "},"":{"ha":426,"x_min":-41,"x_max":395,"o":"m 395 -208 q 382 -320 395 -263 q 342 -426 370 -378 q 270 -507 314 -474 q 165 -549 227 -541 q 153 -551 159 -550 q 141 -551 148 -551 q 71 -536 104 -551 q 13 -496 37 -522 q -26 -437 -12 -471 q -41 -367 -41 -404 q -24 -289 -41 -326 q 20 -220 -7 -252 q 81 -164 47 -189 q 151 -126 115 -140 l 155 -135 q 54 -232 90 -170 q 18 -368 18 -294 q 26 -428 18 -399 q 52 -478 35 -456 q 94 -513 68 -500 q 153 -526 119 -526 q 231 -502 199 -526 q 280 -441 262 -477 q 307 -361 299 -404 q 315 -281 315 -318 q 311 -217 315 -248 q 302 -155 307 -186 q 294 -93 298 -124 q 290 -29 290 -62 q 291 18 290 -6 q 298 68 293 43 q 229 8 268 33 q 145 -17 190 -17 q 95 -6 117 -17 q 58 22 73 4 q 35 63 43 39 q 27 114 27 87 q 37 177 27 144 q 64 241 47 210 q 105 299 81 272 q 157 348 129 327 q 216 380 185 368 q 280 392 248 392 q 313 388 296 392 q 343 374 330 383 q 366 352 357 366 q 374 319 374 338 q 368 295 374 306 q 353 276 362 284 q 332 260 343 267 q 309 249 320 254 l 307 257 q 314 272 312 263 q 316 289 316 281 q 312 314 316 301 q 301 337 309 326 q 283 354 294 347 q 259 361 273 361 q 197 342 224 361 q 150 295 169 323 q 120 233 130 267 q 109 170 109 199 q 113 130 109 150 q 125 93 117 109 q 150 66 134 77 q 189 56 165 56 q 256 75 225 56 q 312 121 288 94 q 337 172 321 148 q 374 214 352 196 l 386 205 q 366 149 370 180 q 361 86 361 117 q 366 14 361 50 q 378 -58 372 -22 q 390 -132 385 -95 q 395 -208 395 -170 m 330 537 q 314 496 330 512 q 273 480 297 480 q 234 496 251 480 q 218 537 218 512 q 222 558 218 548 q 234 576 227 568 q 252 588 242 584 q 273 593 262 593 q 296 588 286 593 q 314 576 306 584 q 326 558 321 568 q 330 537 330 548 z "},"":{"ha":806,"x_min":44,"x_max":833,"o":"m 825 175 q 807 176 816 175 q 788 176 798 176 q 728 174 762 176 q 653 166 693 171 q 669 57 669 111 q 648 -56 669 -3 q 591 -149 628 -109 q 504 -212 555 -189 q 391 -235 452 -235 q 279 -216 329 -235 q 191 -163 229 -197 q 124 -85 152 -130 q 79 10 96 -41 q 53 116 61 61 q 44 224 44 171 q 60 380 44 298 q 106 540 76 461 q 182 691 137 619 q 284 817 227 762 q 413 904 342 871 q 567 936 484 936 q 653 925 613 936 q 723 891 693 914 q 770 833 753 869 q 787 749 787 798 q 774 677 787 711 q 740 613 762 643 q 688 560 718 584 q 625 520 659 536 q 556 494 591 503 q 486 486 520 486 l 475 486 l 475 500 q 559 532 519 509 q 628 589 599 555 q 675 665 658 623 q 692 753 692 707 q 657 862 692 821 q 552 903 623 903 q 420 871 479 903 q 317 789 362 840 q 239 670 272 737 q 186 531 207 603 q 156 388 165 459 q 146 256 146 316 q 152 160 146 210 q 171 64 158 111 q 206 -24 184 18 q 259 -97 228 -66 q 333 -147 291 -129 q 429 -165 374 -165 q 507 -151 470 -165 q 573 -110 545 -136 q 617 -48 601 -84 q 634 31 634 -12 q 623 98 634 65 q 591 157 611 130 q 519 145 555 152 q 452 131 484 138 q 392 114 420 123 q 345 97 365 106 q 332 93 339 93 q 320 101 323 93 q 317 117 317 109 q 322 144 317 129 q 334 173 326 159 q 353 198 342 187 q 377 212 364 209 q 415 220 395 218 q 456 224 435 223 q 496 225 476 225 q 535 225 517 225 q 605 223 564 225 q 690 217 646 222 q 772 205 733 213 q 833 184 810 197 l 825 175 m 388 -450 q 394 -432 391 -441 q 397 -415 397 -423 q 394 -400 397 -407 q 384 -389 391 -393 q 358 -369 369 -382 q 347 -338 347 -356 q 363 -300 347 -316 q 401 -285 378 -285 q 437 -300 422 -285 q 454 -338 452 -316 q 448 -381 455 -361 q 429 -416 440 -401 q 408 -441 418 -431 q 393 -454 397 -451 q 391 -452 392 -452 q 388 -450 388 -450 z "},"":{"ha":426,"x_min":-41,"x_max":395,"o":"m 395 -208 q 382 -320 395 -263 q 342 -426 370 -378 q 270 -507 314 -474 q 165 -549 227 -541 q 153 -551 159 -550 q 141 -551 148 -551 q 71 -536 104 -551 q 13 -496 37 -522 q -26 -437 -12 -471 q -41 -367 -41 -404 q -24 -289 -41 -326 q 20 -220 -7 -252 q 81 -164 47 -189 q 151 -126 115 -140 l 155 -135 q 54 -232 90 -170 q 18 -368 18 -294 q 26 -428 18 -399 q 52 -478 35 -456 q 94 -513 68 -500 q 153 -526 119 -526 q 231 -502 199 -526 q 280 -441 262 -477 q 307 -361 299 -404 q 315 -281 315 -318 q 311 -217 315 -248 q 302 -155 307 -186 q 294 -93 298 -124 q 290 -29 290 -62 q 291 18 290 -6 q 298 68 293 43 q 229 8 268 33 q 145 -17 190 -17 q 95 -6 117 -17 q 58 22 73 4 q 35 63 43 39 q 27 114 27 87 q 37 177 27 144 q 64 241 47 210 q 105 299 81 272 q 157 348 129 327 q 216 380 185 368 q 280 392 248 392 q 313 388 296 392 q 343 374 330 383 q 366 352 357 366 q 374 319 374 338 q 368 295 374 306 q 353 276 362 284 q 332 260 343 267 q 309 249 320 254 l 307 257 q 314 272 312 263 q 316 289 316 281 q 312 314 316 301 q 301 337 309 326 q 283 354 294 347 q 259 361 273 361 q 197 342 224 361 q 150 295 169 323 q 120 233 130 267 q 109 170 109 199 q 113 130 109 150 q 125 93 117 109 q 150 66 134 77 q 189 56 165 56 q 256 75 225 56 q 312 121 288 94 q 337 172 321 148 q 374 214 352 196 l 386 205 q 366 149 370 180 q 361 86 361 117 q 366 14 361 50 q 378 -58 372 -22 q 390 -132 385 -95 q 395 -208 395 -170 m 279 652 q 272 632 275 642 q 268 611 269 621 q 271 594 268 602 q 283 581 275 586 q 314 557 301 572 q 326 522 326 543 q 321 497 326 509 q 308 477 317 486 q 288 464 300 469 q 264 459 277 459 q 220 477 238 459 q 201 522 203 496 q 209 572 199 549 q 230 613 218 595 q 255 642 243 631 q 272 656 267 653 q 275 654 273 656 l 277 652 q 279 652 278 652 z "},"":{"ha":836,"x_min":0,"x_max":822,"o":"m 306 911 q 304 899 306 905 q 300 888 302 894 q 278 828 290 857 q 257 768 266 799 q 232 643 241 715 q 217 489 222 570 q 210 320 212 407 q 211 151 209 234 q 326 133 266 141 q 443 120 386 125 q 550 112 500 115 q 637 109 601 109 l 664 109 q 646 313 651 212 q 642 504 642 415 q 642 566 642 530 q 646 642 643 602 q 656 724 650 682 q 674 803 663 766 q 703 869 686 840 q 745 914 720 899 q 771 928 757 922 q 800 935 785 935 q 822 913 822 935 q 820 900 822 906 q 817 888 819 894 q 795 829 806 858 q 774 770 783 800 q 749 659 759 721 q 733 527 739 597 q 726 382 728 457 q 724 234 724 308 q 728 91 725 161 q 736 -39 731 21 q 746 -148 741 -100 q 758 -225 752 -195 l 745 -231 q 698 -83 717 -163 q 668 81 680 -4 q 571 61 626 69 q 459 49 516 54 q 350 43 403 45 q 261 41 298 41 l 215 41 q 226 -117 219 -47 q 241 -227 233 -186 l 228 -232 q 186 -102 203 -172 q 156 43 168 -32 q 118 47 136 44 q 82 54 100 50 q 50 70 64 58 q 24 98 35 82 q 6 133 13 115 q 0 170 0 152 q 4 189 0 179 q 21 199 8 199 q 39 195 31 199 q 84 179 59 186 q 140 165 110 172 q 127 340 131 254 q 123 503 123 427 q 124 565 123 529 q 129 641 125 601 q 138 723 132 682 q 157 802 145 765 q 185 868 168 838 q 228 913 203 897 q 254 927 239 920 q 283 935 269 935 q 300 928 294 935 q 306 911 306 922 m 353 981 q 393 1029 374 1006 q 429 1077 411 1053 q 464 1130 446 1102 q 500 1193 481 1158 l 541 1193 q 577 1130 559 1158 q 612 1077 594 1102 q 648 1029 629 1053 q 687 981 666 1006 l 680 972 q 636 996 656 984 q 598 1022 617 1008 q 561 1050 580 1035 q 520 1083 542 1065 q 479 1050 498 1065 q 442 1021 460 1035 q 404 996 423 1008 q 361 972 384 984 l 353 981 z "},"":{"ha":559,"x_min":46,"x_max":621,"o":"m 621 100 q 592 51 609 75 q 555 8 576 27 q 511 -24 535 -12 q 458 -36 486 -36 q 406 -20 428 -36 q 368 22 383 -4 q 342 82 352 48 q 325 152 332 116 q 314 224 318 188 q 305 290 309 260 q 266 229 283 261 q 232 163 248 197 q 200 94 216 129 q 167 24 184 58 q 159 8 163 16 q 149 -8 155 -1 q 136 -20 144 -15 q 119 -24 129 -24 q 103 -21 109 -24 q 92 -13 96 -18 q 85 -1 87 -7 q 81 10 83 5 q 67 83 73 39 q 56 178 60 127 q 48 280 51 228 q 46 376 46 332 q 54 506 46 439 q 80 636 62 572 q 124 756 97 700 q 187 856 151 813 q 271 924 224 899 q 376 949 318 949 q 437 926 415 949 q 460 861 460 903 q 438 740 460 798 q 381 629 416 682 q 306 529 347 576 q 225 442 264 482 l 216 449 q 253 496 233 468 q 291 557 272 524 q 326 626 309 590 q 356 698 343 663 q 376 766 369 733 q 384 826 384 799 q 381 853 384 840 q 372 876 378 866 q 354 891 365 886 q 329 897 344 897 q 273 874 299 897 q 225 812 247 851 q 187 722 203 773 q 158 614 170 670 q 140 500 146 557 q 134 390 134 442 q 134 319 134 355 q 136 243 134 283 q 142 160 138 204 q 155 64 146 116 q 218 216 184 142 q 290 352 251 290 q 301 370 295 361 q 313 386 307 378 q 328 397 320 393 q 346 402 336 402 q 364 396 357 402 q 375 380 371 389 q 381 359 379 370 q 384 340 382 349 q 390 289 387 320 q 398 222 393 258 q 410 151 403 186 q 428 86 417 115 q 455 39 439 57 q 492 20 471 20 q 528 28 510 20 q 562 47 545 35 q 592 73 578 58 q 615 102 606 88 l 621 100 m 181 1000 q 220 1047 202 1024 q 256 1096 239 1071 q 291 1148 274 1120 q 328 1211 309 1177 l 368 1211 q 405 1148 387 1177 q 439 1096 422 1120 q 475 1047 457 1071 q 515 1000 494 1024 l 507 990 q 464 1015 484 1002 q 426 1040 445 1027 q 389 1068 408 1053 q 348 1101 370 1083 q 307 1068 326 1083 q 270 1040 288 1053 q 231 1014 251 1026 q 189 990 212 1002 l 181 1000 z "},"":{"ha":836,"x_min":0,"x_max":835,"o":"m 306 911 q 304 899 306 905 q 300 888 302 894 q 278 828 290 857 q 257 768 266 799 q 239 690 247 733 q 227 598 232 647 q 217 496 221 549 q 212 387 214 442 l 273 387 q 350 387 307 387 q 443 385 394 386 q 543 381 492 383 q 644 375 595 378 q 642 504 642 442 q 642 566 642 530 q 646 642 643 602 q 656 724 650 682 q 674 803 663 766 q 703 869 686 840 q 745 914 720 899 q 771 928 757 922 q 800 935 785 935 q 822 913 822 935 q 820 900 822 906 q 817 888 819 894 q 795 829 806 858 q 774 770 783 800 q 754 686 762 732 q 739 588 745 640 q 730 481 733 536 q 725 368 726 425 q 785 360 758 364 q 835 351 813 356 l 827 335 q 778 337 804 337 q 728 338 751 338 l 724 338 q 725 164 723 250 q 733 4 728 79 q 744 -131 738 -71 q 758 -225 751 -191 l 745 -231 q 698 -83 717 -163 q 668 81 680 -4 q 571 61 626 69 q 459 49 516 54 q 350 43 403 45 q 261 41 298 41 l 215 41 q 226 -117 219 -47 q 241 -227 233 -186 l 228 -232 q 186 -102 203 -172 q 156 43 168 -32 q 118 47 136 44 q 82 54 100 50 q 50 70 64 58 q 24 98 35 82 q 6 133 13 115 q 0 170 0 152 q 4 189 0 179 q 21 199 8 199 q 39 195 31 199 q 84 179 59 186 q 140 165 110 172 q 134 232 137 199 q 130 298 132 265 q 107 295 118 297 q 86 292 96 294 q 76 292 81 292 q 66 292 71 292 q 17 304 34 292 q 0 330 0 317 q 10 352 0 342 q 38 367 20 361 q 78 377 55 374 q 125 383 100 381 q 123 503 123 445 q 124 565 123 529 q 129 641 125 601 q 138 723 132 682 q 157 802 145 765 q 185 868 168 838 q 228 913 203 897 q 254 927 239 920 q 283 935 269 935 q 300 928 294 935 q 306 911 306 922 m 664 109 q 652 223 656 166 q 645 336 648 281 q 539 333 594 335 q 428 327 484 330 q 317 318 372 323 q 210 308 262 313 q 210 229 210 268 q 211 151 210 190 q 326 133 266 141 q 443 120 386 125 q 550 112 500 115 q 637 109 601 109 l 664 109 z "},"":{"ha":559,"x_min":-58,"x_max":621,"o":"m 330 549 q 301 551 316 551 q 272 551 286 551 q 205 549 235 551 q 146 543 174 547 q 137 465 140 503 q 134 390 134 426 q 134 319 134 355 q 136 243 134 283 q 142 160 138 204 q 155 64 146 116 q 218 216 184 142 q 290 352 251 290 q 301 370 295 361 q 313 386 307 378 q 328 397 320 393 q 346 402 336 402 q 364 396 357 402 q 375 380 371 389 q 381 359 379 370 q 384 340 382 349 q 390 289 387 320 q 399 222 394 258 q 412 151 404 186 q 430 86 419 115 q 456 39 441 57 q 492 20 471 20 q 528 28 510 20 q 562 47 545 35 q 592 73 578 58 q 615 102 606 88 l 621 100 q 592 51 609 75 q 555 8 576 27 q 511 -24 535 -12 q 458 -36 486 -36 q 406 -20 428 -36 q 368 22 384 -4 q 342 82 353 48 q 325 152 332 116 q 314 224 318 188 q 305 290 309 260 q 266 229 283 261 q 232 163 248 197 q 200 94 216 129 q 167 24 184 58 q 159 8 163 16 q 149 -8 155 -1 q 136 -20 144 -15 q 119 -24 129 -24 q 103 -21 109 -24 q 92 -13 96 -18 q 85 -1 87 -7 q 81 10 83 5 q 67 83 73 39 q 56 178 60 127 q 48 280 51 228 q 46 376 46 332 q 49 450 46 412 q 57 527 52 488 q 25 520 41 524 q -8 513 9 517 q -14 513 -12 513 q -20 513 -17 513 q -48 523 -38 513 q -58 545 -58 534 q -45 570 -58 561 q -14 584 -33 579 q 27 591 5 589 q 69 593 50 593 q 111 728 84 663 q 175 841 137 792 q 263 920 213 890 q 376 949 313 949 q 437 926 415 949 q 460 861 460 903 q 451 804 460 831 q 428 749 442 776 q 397 699 414 723 q 362 652 379 674 l 347 658 q 370 704 361 681 q 384 748 379 726 q 390 789 389 770 q 391 826 391 809 q 375 876 391 854 q 329 897 359 897 q 271 872 298 897 q 221 804 243 846 q 181 706 199 762 q 153 591 164 651 q 246 584 201 590 q 334 562 291 577 l 330 549 z "},"":{"ha":450,"x_min":-52,"x_max":533,"o":"m 311 -212 q 288 -236 311 -236 q 259 -229 273 -236 q 233 -214 245 -221 q 228 -209 230 -212 q 222 -204 225 -207 q 140 -213 179 -210 q 75 -216 102 -216 q 35 -215 56 -216 q -6 -206 13 -213 q -39 -184 -26 -199 q -52 -144 -52 -170 q -40 -109 -52 -125 q -7 -93 -28 -93 q -2 -94 -5 -93 q 3 -94 1 -94 q 92 -110 45 -104 q 186 -121 139 -117 q 178 -61 180 -92 q 174 -1 175 -31 q 173 53 173 28 q 174 94 174 78 q 175 203 174 144 q 179 327 176 262 q 188 460 182 392 q 200 596 193 528 q 217 727 207 663 q 239 848 227 791 q 127 829 182 840 q 28 804 73 818 q 20 803 24 803 q 14 803 17 803 q -5 808 3 803 q -19 820 -14 812 q -27 837 -24 827 q -31 856 -31 846 q -21 890 -31 876 q 5 912 -11 903 q 40 925 20 921 q 81 931 60 929 q 120 933 101 933 q 153 933 138 933 q 201 932 174 933 q 260 928 229 931 q 268 952 264 941 q 276 974 272 963 l 290 968 q 284 926 288 954 q 356 919 319 923 q 426 907 393 914 q 487 892 459 901 q 533 873 515 884 l 526 863 q 492 865 509 865 q 458 865 475 865 q 372 862 418 865 q 277 853 326 859 q 270 751 273 808 q 264 630 267 694 q 260 496 262 566 q 259 357 259 427 q 260 218 259 287 q 266 87 262 150 q 275 -30 269 25 q 289 -126 281 -84 q 325 -127 307 -127 q 361 -127 343 -127 q 433 -126 397 -127 q 505 -117 470 -124 l 512 -127 q 476 -146 498 -138 q 427 -163 454 -155 q 369 -179 400 -172 q 307 -191 338 -186 q 310 -202 309 -197 q 311 -212 311 -207 m 349 1014 q 231 1085 283 1045 q 137 1183 179 1126 l 224 1242 q 250 1178 235 1207 q 280 1123 264 1149 q 316 1072 297 1097 q 357 1023 336 1048 l 349 1014 z "},"":{"ha":315,"x_min":27,"x_max":382,"o":"m 382 97 q 346 50 367 71 q 299 13 324 28 q 244 -12 273 -3 q 185 -21 216 -21 q 118 -8 147 -21 q 68 27 88 5 q 38 81 48 50 q 27 149 27 112 q 39 223 27 188 q 71 289 50 258 q 118 346 91 320 q 177 392 146 372 l 185 386 q 131 298 152 347 q 111 196 111 249 q 118 137 111 165 q 140 87 125 109 q 179 53 155 66 q 237 40 203 40 q 313 57 277 40 q 378 100 349 74 l 382 97 m 272 439 q 154 511 205 471 q 60 609 102 551 l 146 667 q 172 604 158 633 q 203 548 186 574 q 239 498 220 522 q 279 449 258 473 l 272 439 z "},"":{"ha":450,"x_min":-52,"x_max":533,"o":"m 311 -212 q 288 -236 311 -236 q 259 -229 273 -236 q 233 -214 245 -221 q 228 -209 230 -212 q 222 -204 225 -207 q 140 -213 179 -210 q 75 -216 102 -216 q 35 -215 56 -216 q -6 -206 13 -213 q -39 -184 -26 -199 q -52 -144 -52 -170 q -40 -109 -52 -125 q -7 -93 -28 -93 q -2 -94 -5 -93 q 3 -94 1 -94 q 92 -110 45 -104 q 186 -121 139 -117 q 178 -61 180 -92 q 174 -1 175 -31 q 173 53 173 28 q 174 94 174 78 q 175 203 174 144 q 179 327 176 262 q 188 460 182 392 q 200 596 193 528 q 217 727 207 663 q 239 848 227 791 q 127 829 182 840 q 28 804 73 818 q 20 803 24 803 q 14 803 17 803 q -5 808 3 803 q -19 820 -14 812 q -27 837 -24 827 q -31 856 -31 846 q -21 890 -31 876 q 5 912 -11 903 q 40 925 20 921 q 81 931 60 929 q 120 933 101 933 q 153 933 138 933 q 201 932 174 933 q 260 928 229 931 q 268 952 264 941 q 276 974 272 963 l 290 968 q 284 926 288 954 q 356 919 319 923 q 426 907 393 914 q 487 892 459 901 q 533 873 515 884 l 526 863 q 492 865 509 865 q 458 865 475 865 q 372 862 418 865 q 277 853 326 859 q 270 751 273 808 q 264 630 267 694 q 260 496 262 566 q 259 357 259 427 q 260 218 259 287 q 266 87 262 150 q 275 -30 269 25 q 289 -126 281 -84 q 325 -127 307 -127 q 361 -127 343 -127 q 433 -126 397 -127 q 505 -117 470 -124 l 512 -127 q 476 -146 498 -138 q 427 -163 454 -155 q 369 -179 400 -172 q 307 -191 338 -186 q 310 -202 309 -197 q 311 -212 311 -207 m 194 1023 q 234 1072 215 1048 q 270 1123 253 1097 q 301 1178 287 1149 q 327 1242 315 1207 l 414 1183 q 320 1085 372 1126 q 201 1014 268 1045 l 194 1023 z "},"":{"ha":315,"x_min":27,"x_max":382,"o":"m 382 97 q 346 50 367 71 q 299 13 324 28 q 244 -12 273 -3 q 185 -21 216 -21 q 118 -8 147 -21 q 68 27 88 5 q 38 81 48 50 q 27 149 27 112 q 39 223 27 188 q 71 289 50 258 q 118 346 91 320 q 177 392 146 372 l 185 386 q 131 298 152 347 q 111 196 111 249 q 118 137 111 165 q 140 87 125 109 q 179 53 155 66 q 237 40 203 40 q 313 57 277 40 q 378 100 349 74 l 382 97 m 116 449 q 156 498 137 473 q 192 548 175 522 q 223 604 209 574 q 249 667 237 633 l 336 609 q 242 511 294 551 q 123 439 190 471 l 116 449 z "},"":{"ha":450,"x_min":-52,"x_max":533,"o":"m 311 -212 q 288 -236 311 -236 q 259 -229 273 -236 q 233 -214 245 -221 q 228 -209 230 -212 q 222 -204 225 -207 q 140 -213 179 -210 q 75 -216 102 -216 q 35 -215 56 -216 q -6 -206 13 -213 q -39 -184 -26 -199 q -52 -144 -52 -170 q -40 -109 -52 -125 q -7 -93 -28 -93 q -2 -94 -5 -93 q 3 -94 1 -94 q 92 -110 45 -104 q 186 -121 139 -117 q 178 -61 180 -92 q 174 -1 175 -31 q 173 53 173 28 q 174 94 174 78 q 175 203 174 144 q 179 327 176 262 q 188 460 182 392 q 200 596 193 528 q 217 727 207 663 q 239 848 227 791 q 127 829 182 840 q 28 804 73 818 q 20 803 24 803 q 14 803 17 803 q -5 808 3 803 q -19 820 -14 812 q -27 837 -24 827 q -31 856 -31 846 q -21 890 -31 876 q 5 912 -11 903 q 40 925 20 921 q 81 931 60 929 q 120 933 101 933 q 153 933 138 933 q 201 932 174 933 q 260 928 229 931 q 268 952 264 941 q 276 974 272 963 l 290 968 q 284 926 288 954 q 356 919 319 923 q 426 907 393 914 q 487 892 459 901 q 533 873 515 884 l 526 863 q 492 865 509 865 q 458 865 475 865 q 372 862 418 865 q 277 853 326 859 q 270 751 273 808 q 264 630 267 694 q 260 496 262 566 q 259 357 259 427 q 260 218 259 287 q 266 87 262 150 q 275 -30 269 25 q 289 -126 281 -84 q 325 -127 307 -127 q 361 -127 343 -127 q 433 -126 397 -127 q 505 -117 470 -124 l 512 -127 q 476 -146 498 -138 q 427 -163 454 -155 q 369 -179 400 -172 q 307 -191 338 -186 q 310 -202 309 -197 q 311 -212 311 -207 m 112 1023 q 151 1071 133 1048 q 187 1119 170 1095 q 222 1172 205 1144 q 258 1235 239 1200 l 299 1235 q 335 1172 318 1200 q 370 1119 353 1144 q 406 1071 388 1095 q 446 1023 425 1048 l 438 1014 q 395 1038 414 1026 q 357 1064 376 1050 q 319 1092 338 1077 q 279 1125 300 1107 q 238 1092 257 1107 q 200 1063 219 1077 q 162 1038 182 1050 q 119 1014 142 1026 l 112 1023 z "},"":{"ha":315,"x_min":27,"x_max":382,"o":"m 382 97 q 346 50 367 71 q 299 13 324 28 q 244 -12 273 -3 q 185 -21 216 -21 q 118 -8 147 -21 q 68 27 88 5 q 38 81 48 50 q 27 149 27 112 q 39 223 27 188 q 71 289 50 258 q 118 346 91 320 q 177 392 146 372 l 185 386 q 131 298 152 347 q 111 196 111 249 q 118 137 111 165 q 140 87 125 109 q 179 53 155 66 q 237 40 203 40 q 313 57 277 40 q 378 100 349 74 l 382 97 m 34 449 q 73 497 55 473 q 109 545 92 520 q 144 598 127 570 q 180 661 161 626 l 221 661 q 257 598 240 626 q 292 545 275 570 q 328 497 310 520 q 368 449 347 473 l 360 439 q 317 464 336 452 q 279 489 298 476 q 241 517 260 503 q 201 551 222 532 q 160 517 179 532 q 122 489 141 503 q 84 464 104 475 q 41 439 64 452 l 34 449 z "},"":{"ha":450,"x_min":-52,"x_max":533,"o":"m 311 -212 q 288 -236 311 -236 q 259 -229 273 -236 q 233 -214 245 -221 q 228 -209 230 -212 q 222 -204 225 -207 q 140 -213 179 -210 q 75 -216 102 -216 q 35 -215 56 -216 q -6 -206 13 -213 q -39 -184 -26 -199 q -52 -144 -52 -170 q -40 -109 -52 -125 q -7 -93 -28 -93 q -2 -94 -5 -93 q 3 -94 1 -94 q 92 -110 45 -104 q 186 -121 139 -117 q 178 -61 180 -92 q 174 -1 175 -31 q 173 53 173 28 q 174 94 174 78 q 175 203 174 144 q 179 327 176 262 q 188 460 182 392 q 200 596 193 528 q 217 727 207 663 q 239 848 227 791 q 127 829 182 840 q 28 804 73 818 q 20 803 24 803 q 14 803 17 803 q -5 808 3 803 q -19 820 -14 812 q -27 837 -24 827 q -31 856 -31 846 q -21 890 -31 876 q 5 912 -11 903 q 40 925 20 921 q 81 931 60 929 q 120 933 101 933 q 153 933 138 933 q 201 932 174 933 q 260 928 229 931 q 268 952 264 941 q 276 974 272 963 l 290 968 q 284 926 288 954 q 356 919 319 923 q 426 907 393 914 q 487 892 459 901 q 533 873 515 884 l 526 863 q 492 865 509 865 q 458 865 475 865 q 372 862 418 865 q 277 853 326 859 q 270 751 273 808 q 264 630 267 694 q 260 496 262 566 q 259 357 259 427 q 260 218 259 287 q 266 87 262 150 q 275 -30 269 25 q 289 -126 281 -84 q 325 -127 307 -127 q 361 -127 343 -127 q 433 -126 397 -127 q 505 -117 470 -124 l 512 -127 q 476 -146 498 -138 q 427 -163 454 -155 q 369 -179 400 -172 q 307 -191 338 -186 q 310 -202 309 -197 q 311 -212 311 -207 m 249 1118 q 232 1077 249 1093 q 192 1061 216 1061 q 153 1077 170 1061 q 136 1118 136 1093 q 141 1139 136 1129 q 153 1157 145 1149 q 171 1170 161 1165 q 192 1174 180 1174 q 214 1170 204 1174 q 232 1157 224 1165 q 244 1139 240 1149 q 249 1118 249 1129 m 421 1118 q 405 1077 421 1093 q 364 1061 388 1061 q 325 1077 342 1061 q 309 1118 309 1093 q 313 1139 309 1129 q 325 1157 317 1149 q 343 1170 333 1165 q 364 1174 353 1174 q 387 1170 376 1174 q 405 1157 397 1165 q 417 1139 412 1149 q 421 1118 421 1129 z "},"":{"ha":315,"x_min":27,"x_max":382,"o":"m 382 97 q 346 50 367 71 q 299 13 324 28 q 244 -12 273 -3 q 185 -21 216 -21 q 118 -8 147 -21 q 68 27 88 5 q 38 81 48 50 q 27 149 27 112 q 39 223 27 188 q 71 289 50 258 q 118 346 91 320 q 177 392 146 372 l 185 386 q 131 298 152 347 q 111 196 111 249 q 118 137 111 165 q 140 87 125 109 q 179 53 155 66 q 237 40 203 40 q 313 57 277 40 q 378 100 349 74 l 382 97 m 171 544 q 154 503 171 519 q 114 487 138 487 q 75 503 92 487 q 58 544 58 519 q 63 565 58 555 q 75 583 67 575 q 93 595 83 591 q 114 600 102 600 q 136 595 126 600 q 154 583 146 591 q 166 565 162 575 q 171 544 171 555 m 343 544 q 327 503 343 519 q 286 487 310 487 q 247 503 264 487 q 231 544 231 519 q 235 565 231 555 q 247 583 239 575 q 265 595 255 591 q 286 600 275 600 q 309 595 298 600 q 327 583 319 591 q 339 565 334 575 q 343 544 343 555 z "},"":{"ha":450,"x_min":-52,"x_max":533,"o":"m 311 -212 q 288 -236 311 -236 q 259 -229 273 -236 q 233 -214 245 -221 q 228 -209 230 -212 q 222 -204 225 -207 q 140 -213 179 -210 q 75 -216 102 -216 q 35 -215 56 -216 q -6 -206 13 -213 q -39 -184 -26 -199 q -52 -144 -52 -170 q -40 -109 -52 -125 q -7 -93 -28 -93 q -2 -94 -5 -93 q 3 -94 1 -94 q 92 -110 45 -104 q 186 -121 139 -117 q 178 -61 180 -92 q 174 -1 175 -31 q 173 53 173 28 q 174 94 174 78 q 175 203 174 144 q 179 327 176 262 q 188 460 182 392 q 200 596 193 528 q 217 727 207 663 q 239 848 227 791 q 127 829 182 840 q 28 804 73 818 q 20 803 24 803 q 14 803 17 803 q -5 808 3 803 q -19 820 -14 812 q -27 837 -24 827 q -31 856 -31 846 q -21 890 -31 876 q 5 912 -11 903 q 40 925 20 921 q 81 931 60 929 q 120 933 101 933 q 153 933 138 933 q 201 932 174 933 q 260 928 229 931 q 268 952 264 941 q 276 974 272 963 l 290 968 q 284 926 288 954 q 356 919 319 923 q 426 907 393 914 q 487 892 459 901 q 533 873 515 884 l 526 863 q 492 865 509 865 q 458 865 475 865 q 372 862 418 865 q 277 853 326 859 q 270 751 273 808 q 264 630 267 694 q 260 496 262 566 q 259 357 259 427 q 260 218 259 287 q 266 87 262 150 q 275 -30 269 25 q 289 -126 281 -84 q 325 -127 307 -127 q 361 -127 343 -127 q 433 -126 397 -127 q 505 -117 470 -124 l 512 -127 q 476 -146 498 -138 q 427 -163 454 -155 q 369 -179 400 -172 q 307 -191 338 -186 q 310 -202 309 -197 q 311 -212 311 -207 m 135 1060 q 147 1118 137 1092 q 157 1139 151 1128 q 172 1158 163 1149 q 193 1171 181 1166 q 219 1176 204 1176 q 252 1168 236 1176 q 284 1153 269 1161 q 317 1137 300 1144 q 349 1129 333 1129 q 376 1135 366 1129 q 391 1148 386 1141 q 399 1167 397 1156 l 422 1167 q 408 1111 419 1135 q 381 1072 399 1089 q 335 1055 364 1055 q 301 1062 319 1055 q 268 1078 284 1069 q 236 1094 251 1086 q 209 1101 221 1101 q 182 1095 193 1101 q 167 1080 172 1088 q 158 1060 160 1072 l 135 1060 z "},"":{"ha":315,"x_min":27,"x_max":382,"o":"m 382 97 q 346 50 367 71 q 299 13 324 28 q 244 -12 273 -3 q 185 -21 216 -21 q 118 -8 147 -21 q 68 27 88 5 q 38 81 48 50 q 27 149 27 112 q 39 223 27 188 q 71 289 50 258 q 118 346 91 320 q 177 392 146 372 l 185 386 q 131 298 152 347 q 111 196 111 249 q 118 137 111 165 q 140 87 125 109 q 179 53 155 66 q 237 40 203 40 q 313 57 277 40 q 378 100 349 74 l 382 97 m 57 486 q 69 543 59 517 q 79 565 73 554 q 94 583 85 575 q 115 596 103 591 q 141 602 126 602 q 174 594 158 602 q 207 578 191 587 q 239 562 222 570 q 271 555 255 555 q 298 561 288 555 q 313 574 308 566 q 321 593 319 582 l 345 593 q 330 536 341 561 q 303 497 321 515 q 257 480 286 480 q 223 488 241 480 q 190 504 206 495 q 158 519 173 512 q 131 527 143 527 q 104 520 115 527 q 89 506 94 513 q 80 486 82 497 l 57 486 z "},"":{"ha":450,"x_min":-52,"x_max":533,"o":"m 311 -212 q 288 -236 311 -236 q 259 -229 273 -236 q 233 -214 245 -221 q 228 -209 230 -212 q 222 -204 225 -207 q 140 -213 179 -210 q 75 -216 102 -216 q 35 -215 56 -216 q -6 -206 13 -213 q -39 -184 -26 -199 q -52 -144 -52 -170 q -40 -109 -52 -125 q -7 -93 -28 -93 q -2 -94 -5 -93 q 3 -94 1 -94 q 92 -110 45 -104 q 186 -121 139 -117 q 178 -61 180 -92 q 174 -1 175 -31 q 173 53 173 28 q 174 94 174 78 q 175 203 174 144 q 179 327 176 262 q 188 460 182 392 q 200 596 193 528 q 217 727 207 663 q 239 848 227 791 q 127 829 182 840 q 28 804 73 818 q 20 803 24 803 q 14 803 17 803 q -5 808 3 803 q -19 820 -14 812 q -27 837 -24 827 q -31 856 -31 846 q -21 890 -31 876 q 5 912 -11 903 q 40 925 20 921 q 81 931 60 929 q 120 933 101 933 q 153 933 138 933 q 201 932 174 933 q 260 928 229 931 q 268 952 264 941 q 276 974 272 963 l 290 968 q 284 926 288 954 q 356 919 319 923 q 426 907 393 914 q 487 892 459 901 q 533 873 515 884 l 526 863 q 492 865 509 865 q 458 865 475 865 q 372 862 418 865 q 277 853 326 859 q 270 751 273 808 q 264 630 267 694 q 260 496 262 566 q 259 357 259 427 q 260 218 259 287 q 266 87 262 150 q 275 -30 269 25 q 289 -126 281 -84 q 325 -127 307 -127 q 361 -127 343 -127 q 433 -126 397 -127 q 505 -117 470 -124 l 512 -127 q 476 -146 498 -138 q 427 -163 454 -155 q 369 -179 400 -172 q 307 -191 338 -186 q 310 -202 309 -197 q 311 -212 311 -207 m 153 1145 l 404 1145 l 404 1072 l 153 1072 l 153 1145 z "},"":{"ha":315,"x_min":27,"x_max":382,"o":"m 382 97 q 346 50 367 71 q 299 13 324 28 q 244 -12 273 -3 q 185 -21 216 -21 q 118 -8 147 -21 q 68 27 88 5 q 38 81 48 50 q 27 149 27 112 q 39 223 27 188 q 71 289 50 258 q 118 346 91 320 q 177 392 146 372 l 185 386 q 131 298 152 347 q 111 196 111 249 q 118 137 111 165 q 140 87 125 109 q 179 53 155 66 q 237 40 203 40 q 313 57 277 40 q 378 100 349 74 l 382 97 m 75 570 l 326 570 l 326 498 l 75 498 l 75 570 z "},"":{"ha":450,"x_min":-52,"x_max":533,"o":"m 311 -212 q 288 -236 311 -236 q 259 -229 273 -236 q 233 -214 245 -221 q 228 -209 230 -212 q 222 -204 225 -207 q 140 -213 179 -210 q 75 -216 102 -216 q 35 -215 56 -216 q -6 -206 13 -213 q -39 -184 -26 -199 q -52 -144 -52 -170 q -40 -109 -52 -125 q -7 -93 -28 -93 q -2 -94 -5 -93 q 3 -94 1 -94 q 92 -110 45 -104 q 186 -121 139 -117 q 178 -61 180 -92 q 174 -1 175 -31 q 173 53 173 28 q 174 94 174 78 q 175 203 174 144 q 179 327 176 262 q 188 460 182 392 q 200 596 193 528 q 217 727 207 663 q 239 848 227 791 q 127 829 182 840 q 28 804 73 818 q 20 803 24 803 q 14 803 17 803 q -5 808 3 803 q -19 820 -14 812 q -27 837 -24 827 q -31 856 -31 846 q -21 890 -31 876 q 5 912 -11 903 q 40 925 20 921 q 81 931 60 929 q 120 933 101 933 q 153 933 138 933 q 201 932 174 933 q 260 928 229 931 q 268 952 264 941 q 276 974 272 963 l 290 968 q 284 926 288 954 q 356 919 319 923 q 426 907 393 914 q 487 892 459 901 q 533 873 515 884 l 526 863 q 492 865 509 865 q 458 865 475 865 q 372 862 418 865 q 277 853 326 859 q 270 751 273 808 q 264 630 267 694 q 260 496 262 566 q 259 357 259 427 q 260 218 259 287 q 266 87 262 150 q 275 -30 269 25 q 289 -126 281 -84 q 325 -127 307 -127 q 361 -127 343 -127 q 433 -126 397 -127 q 505 -117 470 -124 l 512 -127 q 476 -146 498 -138 q 427 -163 454 -155 q 369 -179 400 -172 q 307 -191 338 -186 q 310 -202 309 -197 q 311 -212 311 -207 m 279 1027 q 201 1044 231 1027 q 152 1086 170 1061 q 127 1140 134 1112 q 119 1191 120 1168 l 138 1191 q 148 1168 140 1183 q 170 1139 155 1154 q 212 1114 186 1125 q 279 1103 238 1103 q 344 1113 319 1103 q 384 1137 369 1123 q 408 1166 399 1151 q 422 1191 416 1181 l 437 1191 q 429 1141 436 1169 q 404 1087 422 1112 q 356 1045 387 1062 q 279 1027 326 1027 z "},"":{"ha":315,"x_min":27,"x_max":382,"o":"m 382 97 q 346 50 367 71 q 299 13 324 28 q 244 -12 273 -3 q 185 -21 216 -21 q 118 -8 147 -21 q 68 27 88 5 q 38 81 48 50 q 27 149 27 112 q 39 223 27 188 q 71 289 50 258 q 118 346 91 320 q 177 392 146 372 l 185 386 q 131 298 152 347 q 111 196 111 249 q 118 137 111 165 q 140 87 125 109 q 179 53 155 66 q 237 40 203 40 q 313 57 277 40 q 378 100 349 74 l 382 97 m 201 453 q 123 470 153 453 q 74 512 92 487 q 49 566 56 537 q 41 616 42 594 l 60 616 q 70 594 62 608 q 92 565 77 579 q 134 540 108 551 q 201 529 160 529 q 266 539 241 529 q 306 563 291 549 q 330 591 321 576 q 344 616 338 606 l 359 616 q 351 566 358 595 q 326 513 344 538 q 278 470 309 488 q 201 453 248 453 z "},"":{"ha":450,"x_min":-52,"x_max":533,"o":"m 512 -71 q 467 -94 494 -83 q 406 -114 439 -104 q 334 -130 372 -123 q 258 -143 296 -138 q 219 -199 229 -174 q 209 -242 209 -224 q 212 -263 209 -253 q 222 -281 216 -273 q 240 -295 229 -290 q 264 -300 250 -300 q 295 -293 278 -300 q 334 -267 312 -286 l 343 -274 q 326 -300 336 -288 q 302 -323 315 -313 q 272 -340 288 -334 q 237 -347 256 -347 q 206 -342 222 -347 q 177 -327 190 -337 q 155 -302 163 -317 q 146 -267 146 -288 q 170 -201 146 -231 q 226 -148 193 -171 q 142 -157 181 -153 q 75 -160 102 -160 q 35 -158 56 -160 q -6 -150 13 -157 q -39 -128 -26 -142 q -52 -88 -52 -114 q -40 -53 -52 -69 q -7 -37 -28 -37 q -2 -37 -5 -37 q 3 -38 1 -38 q 94 -54 46 -47 q 191 -64 142 -61 q 177 -27 181 -47 q 173 13 174 -7 q 173 55 172 34 q 174 94 174 76 q 175 203 174 144 q 179 327 176 262 q 188 460 182 392 q 200 596 193 528 q 217 727 207 663 q 239 848 227 791 q 127 829 182 840 q 28 804 73 818 q 20 803 24 803 q 14 803 17 803 q -5 808 3 803 q -19 820 -14 812 q -27 837 -24 827 q -31 856 -31 846 q -21 890 -31 876 q 5 912 -11 903 q 40 925 20 921 q 81 931 60 929 q 120 933 101 933 q 153 933 138 933 q 201 932 174 933 q 260 928 229 931 q 268 952 264 941 q 276 974 272 963 l 290 968 q 287 950 289 960 q 283 926 286 940 q 356 919 319 923 q 426 908 393 914 q 487 893 459 901 q 533 873 515 884 l 526 863 q 492 865 509 865 q 458 865 475 865 q 371 862 418 865 q 275 852 324 859 q 265 714 270 793 q 258 548 260 635 q 255 370 255 460 q 258 197 254 279 q 271 45 262 115 q 294 -70 279 -24 q 328 -71 311 -71 q 361 -71 345 -71 q 433 -70 397 -71 q 505 -60 470 -68 l 512 -71 z "},"":{"ha":315,"x_min":27,"x_max":382,"o":"m 382 97 q 346 51 367 72 q 301 14 326 30 q 248 -11 276 -2 q 190 -21 220 -20 q 159 -70 167 -48 q 151 -109 151 -92 q 155 -130 151 -119 q 165 -148 158 -140 q 182 -161 172 -156 q 207 -166 193 -166 q 237 -159 220 -166 q 276 -133 254 -153 l 286 -140 q 268 -167 279 -154 q 244 -190 258 -180 q 214 -207 231 -200 q 180 -213 198 -213 q 148 -208 164 -213 q 119 -194 132 -203 q 97 -169 106 -184 q 89 -134 89 -154 q 110 -71 89 -99 q 161 -20 131 -42 q 104 -1 129 -16 q 62 35 79 13 q 36 86 45 57 q 27 149 27 115 q 39 223 27 188 q 71 289 50 258 q 118 346 91 320 q 177 392 146 372 l 185 386 q 131 298 152 347 q 111 196 111 249 q 118 137 111 165 q 140 87 125 109 q 179 53 155 66 q 237 40 203 40 q 313 57 277 40 q 378 100 349 74 l 382 97 m 193 547 q 186 520 193 534 q 171 496 180 507 q 148 479 161 486 q 121 472 135 472 q 93 484 104 472 q 83 513 83 495 q 89 539 83 526 q 105 563 95 553 q 127 579 115 573 q 153 586 140 586 q 182 575 171 586 q 193 547 193 564 z "},"":{"ha":450,"x_min":-52,"x_max":533,"o":"m 311 -212 q 288 -236 311 -236 q 259 -229 273 -236 q 233 -214 245 -221 q 228 -209 230 -212 q 222 -204 225 -207 q 140 -213 179 -210 q 75 -216 102 -216 q 35 -215 56 -216 q -6 -206 13 -213 q -39 -184 -26 -199 q -52 -144 -52 -170 q -40 -109 -52 -125 q -7 -93 -28 -93 q -2 -94 -5 -93 q 3 -94 1 -94 q 92 -110 45 -104 q 186 -121 139 -117 q 178 -61 180 -92 q 174 -1 175 -31 q 173 53 173 28 q 174 94 174 78 q 175 203 174 144 q 179 327 176 262 q 188 460 182 392 q 200 596 193 528 q 217 727 207 663 q 239 848 227 791 q 127 829 182 840 q 28 804 73 818 q 20 803 24 803 q 14 803 17 803 q -5 808 3 803 q -19 820 -14 812 q -27 837 -24 827 q -31 856 -31 846 q -21 890 -31 876 q 5 912 -11 903 q 40 925 20 921 q 81 931 60 929 q 120 933 101 933 q 153 933 138 933 q 201 932 174 933 q 260 928 229 931 q 268 952 264 941 q 276 974 272 963 l 290 968 q 284 926 288 954 q 356 919 319 923 q 426 907 393 914 q 487 892 459 901 q 533 873 515 884 l 526 863 q 492 865 509 865 q 458 865 475 865 q 372 862 418 865 q 277 853 326 859 q 270 751 273 808 q 264 630 267 694 q 260 496 262 566 q 259 357 259 427 q 260 218 259 287 q 266 87 262 150 q 275 -30 269 25 q 289 -126 281 -84 q 325 -127 307 -127 q 361 -127 343 -127 q 433 -126 397 -127 q 505 -117 470 -124 l 512 -127 q 476 -146 498 -138 q 427 -163 454 -155 q 369 -179 400 -172 q 307 -191 338 -186 q 310 -202 309 -197 q 311 -212 311 -207 m 336 1118 q 319 1077 336 1093 q 279 1061 302 1061 q 240 1077 256 1061 q 223 1118 223 1093 q 228 1139 223 1129 q 240 1157 232 1149 q 257 1170 248 1165 q 279 1174 267 1174 q 301 1170 291 1174 q 319 1157 311 1165 q 331 1139 327 1149 q 336 1118 336 1129 z "},"":{"ha":315,"x_min":27,"x_max":382,"o":"m 382 97 q 346 50 367 71 q 299 13 324 28 q 244 -12 273 -3 q 185 -21 216 -21 q 118 -8 147 -21 q 68 27 88 5 q 38 81 48 50 q 27 149 27 112 q 39 223 27 188 q 71 289 50 258 q 118 346 91 320 q 177 392 146 372 l 185 386 q 131 298 152 347 q 111 196 111 249 q 118 137 111 165 q 140 87 125 109 q 179 53 155 66 q 237 40 203 40 q 313 57 277 40 q 378 100 349 74 l 382 97 z "},"":{"ha":1190,"x_min":-52,"x_max":1190,"o":"m 311 -212 q 288 -236 311 -236 q 259 -229 273 -236 q 233 -214 245 -221 q 228 -209 230 -212 q 222 -204 225 -207 q 140 -213 179 -210 q 75 -216 102 -216 q 35 -215 56 -216 q -6 -206 13 -213 q -39 -184 -26 -199 q -52 -144 -52 -170 q -40 -109 -52 -125 q -7 -93 -28 -93 q -2 -94 -5 -93 q 3 -94 1 -94 q 92 -110 45 -104 q 186 -121 139 -117 q 178 -61 180 -92 q 174 -1 175 -31 q 173 53 173 28 q 174 94 174 78 q 175 203 174 144 q 179 327 176 262 q 188 460 182 392 q 200 596 193 528 q 217 727 207 663 q 239 848 227 791 q 127 829 182 840 q 28 804 73 818 q 20 803 24 803 q 14 803 17 803 q -5 808 3 803 q -19 820 -14 812 q -27 837 -24 827 q -31 856 -31 846 q -21 890 -31 876 q 5 912 -11 903 q 40 925 20 921 q 81 931 60 929 q 120 933 101 933 q 153 933 138 933 q 201 932 174 933 q 260 928 229 931 q 268 952 264 941 q 276 974 272 963 l 290 968 q 284 926 288 954 q 356 919 319 923 q 426 907 393 914 q 487 892 459 901 q 533 873 515 884 l 526 863 q 492 865 509 865 q 458 865 475 865 q 372 862 418 865 q 277 853 326 859 q 270 751 273 808 q 264 630 267 694 q 260 496 262 566 q 259 357 259 427 q 260 218 259 287 q 266 87 262 150 q 275 -30 269 25 q 289 -126 281 -84 q 325 -127 307 -127 q 361 -127 343 -127 q 433 -126 397 -127 q 505 -117 470 -124 l 512 -127 q 476 -146 498 -138 q 427 -163 454 -155 q 369 -179 400 -172 q 307 -191 338 -186 q 310 -202 309 -197 q 311 -212 311 -207 m 1122 196 q 1113 88 1122 143 q 1085 -19 1104 33 q 1037 -117 1066 -71 q 968 -197 1008 -163 q 877 -251 928 -231 q 763 -271 825 -271 q 646 -253 703 -271 q 546 -202 589 -236 q 476 -117 503 -168 q 450 -1 450 -67 q 459 76 450 38 q 485 150 469 115 q 526 216 502 185 q 579 273 549 248 l 592 267 q 556 171 568 220 q 543 71 543 122 q 558 -36 543 16 q 603 -131 573 -89 q 679 -198 633 -172 q 785 -224 724 -224 q 872 -208 836 -224 q 933 -164 908 -192 q 975 -101 959 -137 q 999 -23 991 -64 q 1011 60 1008 18 q 1014 143 1014 103 q 1004 315 1014 227 q 979 493 995 404 q 941 671 962 583 q 895 843 919 759 q 788 807 838 825 q 701 772 738 789 q 691 769 695 770 q 681 768 686 768 q 661 773 670 768 q 646 786 652 779 q 637 804 640 794 q 633 823 633 814 q 639 849 633 838 q 653 869 644 861 q 674 884 663 878 q 698 895 686 890 q 776 914 731 906 q 869 926 821 922 q 862 947 865 937 q 856 968 859 957 l 868 975 q 884 952 876 964 q 901 928 892 941 q 968 932 936 931 q 1027 933 1001 933 q 1065 933 1044 933 q 1109 930 1087 932 q 1153 925 1132 928 q 1190 914 1174 921 l 1185 903 q 1074 889 1137 901 q 944 858 1011 877 q 1020 702 987 783 q 1076 536 1053 621 q 1111 366 1099 452 q 1122 196 1122 280 z "},"":{"ha":507,"x_min":27,"x_max":500,"o":"m 193 547 q 186 520 193 534 q 171 496 180 507 q 148 479 161 486 q 121 472 135 472 q 93 484 104 472 q 83 513 83 495 q 89 539 83 526 q 105 563 95 553 q 127 579 115 573 q 153 586 140 586 q 182 575 171 586 q 193 547 193 564 m 382 97 q 346 50 367 71 q 299 13 324 28 q 244 -12 273 -3 q 185 -21 216 -21 q 118 -8 147 -21 q 68 27 88 5 q 38 81 48 50 q 27 149 27 112 q 39 223 27 188 q 71 289 50 258 q 118 346 91 320 q 177 392 146 372 l 185 386 q 131 298 152 347 q 111 196 111 249 q 118 137 111 165 q 140 87 125 109 q 179 53 155 66 q 237 40 203 40 q 313 57 277 40 q 378 100 349 74 l 382 97 m 484 547 q 477 520 484 534 q 461 496 471 507 q 439 479 452 486 q 413 472 427 472 q 386 484 395 472 q 376 513 376 495 q 382 539 376 526 q 398 563 388 553 q 420 579 408 573 q 446 586 433 586 q 474 575 464 586 q 484 547 484 564 m 500 -227 q 487 -334 500 -279 q 445 -433 473 -388 q 374 -509 416 -478 q 273 -549 331 -541 q 261 -551 267 -550 q 249 -551 256 -551 q 178 -536 212 -551 q 120 -496 145 -522 q 81 -437 96 -471 q 67 -367 67 -404 q 84 -289 67 -326 q 127 -220 100 -252 q 189 -164 155 -189 q 259 -126 223 -140 l 263 -135 q 161 -232 197 -170 q 125 -368 125 -294 q 134 -428 125 -399 q 159 -478 142 -456 q 202 -513 176 -500 q 260 -526 227 -526 q 337 -501 306 -526 q 386 -438 368 -476 q 412 -356 404 -400 q 420 -273 420 -311 q 410 -172 420 -222 q 389 -72 400 -122 q 367 29 377 -22 q 357 132 357 79 q 362 205 357 168 q 379 276 367 242 q 414 338 392 310 q 470 385 435 367 l 475 382 q 448 344 459 365 q 431 301 437 323 q 422 255 425 278 q 420 208 420 231 q 432 93 420 147 q 460 -12 445 39 q 488 -116 475 -64 q 500 -227 500 -168 z "},"":{"ha":739,"x_min":0,"x_max":739,"o":"m 672 196 q 663 88 672 143 q 635 -19 654 33 q 587 -117 616 -71 q 517 -197 557 -163 q 426 -251 477 -231 q 313 -271 375 -271 q 196 -253 252 -271 q 96 -202 139 -236 q 26 -117 52 -168 q 0 -1 0 -67 q 9 76 0 38 q 35 150 18 115 q 75 216 52 185 q 129 273 99 248 l 142 267 q 105 171 118 220 q 93 71 93 122 q 108 -36 93 16 q 153 -131 123 -89 q 229 -198 183 -172 q 335 -224 274 -224 q 421 -208 385 -224 q 483 -164 458 -192 q 525 -101 509 -137 q 549 -23 541 -64 q 561 60 557 18 q 564 143 564 103 q 554 315 564 227 q 528 493 545 404 q 490 671 512 583 q 444 843 469 759 q 338 807 388 825 q 250 772 288 789 q 240 769 245 770 q 231 768 236 768 q 211 773 220 768 q 196 786 202 779 q 186 804 190 794 q 183 823 183 814 q 189 849 183 838 q 203 869 194 861 q 224 884 212 878 q 248 895 235 890 q 326 914 281 906 q 418 926 371 922 q 412 947 415 937 q 406 968 409 957 l 418 975 q 434 952 426 964 q 450 928 442 941 q 518 932 486 931 q 576 933 551 933 q 615 933 593 933 q 659 930 637 932 q 703 925 682 928 q 739 914 724 921 l 734 903 q 624 889 687 901 q 494 858 561 877 q 569 702 536 783 q 625 536 602 621 q 660 366 648 452 q 672 196 672 280 m 250 1022 q 290 1070 271 1046 q 326 1118 308 1093 q 360 1171 343 1143 q 397 1234 378 1199 l 437 1234 q 474 1171 456 1199 q 509 1118 491 1143 q 545 1070 526 1093 q 584 1022 563 1046 l 576 1013 q 533 1037 553 1025 q 495 1062 514 1049 q 458 1090 477 1076 q 417 1124 439 1105 q 376 1090 395 1105 q 339 1062 357 1076 q 300 1037 320 1048 q 258 1013 281 1025 l 250 1022 z "}}}
